<svg width="33" height="32" viewBox="0 0 33 32" fill="none" xmlns="http://www.w3.org/2000/svg">
<path d="M24.8235 18.7067C25.1665 18.7926 25.4613 19.0113 25.6431 19.3146C25.8249 19.6179 25.8787 19.981 25.7928 20.324L24.8728 24H25.8328V22.6667C25.8328 22.313 25.9733 21.9739 26.2233 21.7239C26.4734 21.4738 26.8125 21.3333 27.1661 21.3333C27.5198 21.3333 27.8589 21.4738 28.109 21.7239C28.359 21.9739 28.4995 22.313 28.4995 22.6667V24C28.8531 24 29.1922 24.1405 29.4423 24.3905C29.6923 24.6406 29.8328 24.9797 29.8328 25.3333C29.8328 25.687 29.6923 26.0261 29.4423 26.2761C29.1922 26.5262 28.8531 26.6667 28.4995 26.6667V28C28.4995 28.3536 28.359 28.6928 28.109 28.9428C27.8589 29.1929 27.5198 29.3333 27.1661 29.3333C26.8125 29.3333 26.4734 29.1929 26.2233 28.9428C25.9733 28.6928 25.8328 28.3536 25.8328 28V26.6667H23.1661C22.9636 26.6666 22.7638 26.6204 22.5817 26.5316C22.3997 26.4428 22.2403 26.3136 22.1157 26.154C21.991 25.9944 21.9044 25.8085 21.8623 25.6104C21.8202 25.4123 21.8238 25.2072 21.8728 25.0107L23.2061 19.6773C23.2918 19.3344 23.5102 19.0395 23.8132 18.8574C24.1162 18.6754 24.4805 18.6212 24.8235 18.7067ZM18.4995 18.6667C19.3458 18.6665 20.1604 18.9883 20.7782 19.5667C21.396 20.1451 21.7706 20.9369 21.8261 21.7813L21.8328 22V22.4333C21.8328 23.2333 21.5795 24.008 21.1115 24.6507L20.9248 24.884L19.3995 26.6667H20.4995C20.8393 26.667 21.1662 26.7972 21.4133 27.0305C21.6604 27.2638 21.8091 27.5826 21.829 27.9219C21.849 28.2611 21.7386 28.5952 21.5205 28.8558C21.3023 29.1164 20.9929 29.2839 20.6555 29.324L20.4995 29.3333H16.4995C16.259 29.3335 16.023 29.2685 15.8164 29.1455C15.6098 29.0224 15.4403 28.8457 15.3259 28.6342C15.2115 28.4226 15.1565 28.1841 15.1666 27.9438C15.1768 27.7035 15.2517 27.4705 15.3835 27.2693L15.4875 27.132L18.9008 23.1493C19.0364 22.9903 19.1243 22.7962 19.1541 22.5893L19.1661 22.4333V22C19.1661 21.8232 19.0959 21.6536 18.9709 21.5286C18.8459 21.4036 18.6763 21.3333 18.4995 21.3333C18.3227 21.3333 18.1531 21.4036 18.0281 21.5286C17.903 21.6536 17.8328 21.8232 17.8328 22C17.8328 22.3536 17.6923 22.6928 17.4423 22.9428C17.1922 23.1929 16.8531 23.3333 16.4995 23.3333C16.1459 23.3333 15.8067 23.1929 15.5567 22.9428C15.3066 22.6928 15.1661 22.3536 15.1661 22C15.1661 21.1159 15.5173 20.2681 16.1425 19.643C16.7676 19.0179 17.6154 18.6667 18.4995 18.6667ZM16.4995 4C22.0928 4 26.7888 7.82667 28.1208 13C28.2092 13.3425 28.158 13.7061 27.9783 14.0107C27.7986 14.3154 27.5053 14.5363 27.1628 14.6247C26.8203 14.7131 26.4568 14.6618 26.1521 14.4821C25.8474 14.3025 25.6265 14.0091 25.5381 13.6667C25.1529 12.1775 24.4057 10.8066 23.3628 9.676C22.3199 8.54535 21.0138 7.68998 19.5605 7.18596C18.1073 6.68195 16.552 6.54491 15.033 6.78705C13.514 7.02918 12.0784 7.64298 10.8539 8.57385C9.62936 9.50472 8.65389 10.7238 8.01422 12.1226C7.37456 13.5215 7.09054 15.0568 7.18742 16.5919C7.2843 18.127 7.75908 19.6144 8.56953 20.9217C9.37998 22.229 10.501 23.3158 11.8328 24.0853C12.123 24.2698 12.3307 24.5593 12.4126 24.8933C12.4944 25.2274 12.444 25.5801 12.2719 25.8778C12.0998 26.1755 11.8193 26.3953 11.489 26.4911C11.1587 26.5869 10.8042 26.5514 10.4995 26.392C8.21193 25.0711 6.42412 23.0324 5.41333 20.5919C4.40253 18.1514 4.22522 15.4456 4.9089 12.8941C5.59259 10.3426 7.09905 8.088 9.19467 6.47991C11.2903 4.87181 13.858 4.00012 16.4995 4ZM16.4995 9.33333C16.8261 9.33338 17.1413 9.45327 17.3853 9.67029C17.6294 9.8873 17.7853 10.1863 17.8235 10.5107L17.8328 10.6667V16C17.8328 16.3266 17.7129 16.6418 17.4959 16.8858C17.2788 17.1299 16.9798 17.2858 16.6555 17.324L16.4995 17.3333H13.8328C13.493 17.333 13.1661 17.2028 12.919 16.9695C12.6719 16.7362 12.5232 16.4174 12.5032 16.0781C12.4833 15.7389 12.5937 15.4048 12.8118 15.1442C13.0299 14.8836 13.3393 14.7161 13.6768 14.676L13.8328 14.6667H15.1661V10.6667C15.1661 10.313 15.3066 9.97391 15.5567 9.72386C15.8067 9.47381 16.1459 9.33333 16.4995 9.33333Z" fill="#262626"/>
</svg>
