<svg width="25" height="25" viewBox="0 0 25 25" fill="none" xmlns="http://www.w3.org/2000/svg">
<path d="M14.25 9.5H11.75C10.9216 9.5 10.25 10.1716 10.25 11C10.25 11.8284 10.9216 12.5 11.75 12.5H12.75C13.5784 12.5 14.25 13.1716 14.25 14C14.25 14.8284 13.5784 15.5 12.75 15.5H10.25M12.25 8.5V9.5M12.25 15.5V16.5M18.25 12.5H18.26M6.25 12.5H6.26M2.25 8.7L2.25 16.3C2.25 17.4201 2.25 17.9802 2.46799 18.408C2.65973 18.7843 2.96569 19.0903 3.34202 19.282C3.76984 19.5 4.32989 19.5 5.45 19.5L19.05 19.5C20.1701 19.5 20.7302 19.5 21.158 19.282C21.5343 19.0903 21.8403 18.7843 22.032 18.408C22.25 17.9802 22.25 17.4201 22.25 16.3V8.7C22.25 7.5799 22.25 7.01984 22.032 6.59202C21.8403 6.2157 21.5343 5.90974 21.158 5.71799C20.7302 5.5 20.1701 5.5 19.05 5.5L5.45 5.5C4.3299 5.5 3.76984 5.5 3.34202 5.71799C2.9657 5.90973 2.65973 6.21569 2.46799 6.59202C2.25 7.01984 2.25 7.57989 2.25 8.7ZM18.75 12.5C18.75 12.7761 18.5261 13 18.25 13C17.9739 13 17.75 12.7761 17.75 12.5C17.75 12.2239 17.9739 12 18.25 12C18.5261 12 18.75 12.2239 18.75 12.5ZM6.75 12.5C6.75 12.7761 6.52614 13 6.25 13C5.97386 13 5.75 12.7761 5.75 12.5C5.75 12.2239 5.97386 12 6.25 12C6.52614 12 6.75 12.2239 6.75 12.5Z" stroke="#344054" stroke-width="2" stroke-linecap="round" stroke-linejoin="round"/>
</svg>
