<svg width="33" height="32" viewBox="0 0 33 32" fill="none" xmlns="http://www.w3.org/2000/svg">
<path d="M16.8333 26.6666H7.76667C6.27319 26.6666 5.52646 26.6666 4.95603 26.3759C4.45426 26.1203 4.04631 25.7123 3.79065 25.2106C3.5 24.6401 3.5 23.8934 3.5 22.3999V9.59992C3.5 8.10644 3.5 7.35971 3.79065 6.78928C4.04631 6.28751 4.45426 5.87956 4.95603 5.6239C5.52646 5.33325 6.27319 5.33325 7.76667 5.33325H8.3C11.2869 5.33325 12.7804 5.33325 13.9213 5.91455C14.9248 6.42588 15.7407 7.24177 16.252 8.2453C16.8333 9.38616 16.8333 10.8796 16.8333 13.8666M16.8333 26.6666V13.8666M16.8333 26.6666H25.9C27.3935 26.6666 28.1402 26.6666 28.7106 26.3759C29.2124 26.1203 29.6204 25.7123 29.876 25.2106C30.1667 24.6401 30.1667 23.8934 30.1667 22.3999V9.59992C30.1667 8.10644 30.1667 7.35971 29.876 6.78928C29.6204 6.28751 29.2124 5.87956 28.7106 5.6239C28.1402 5.33325 27.3935 5.33325 25.9 5.33325H25.3667C22.3797 5.33325 20.8862 5.33325 19.7454 5.91455C18.7419 6.42588 17.926 7.24177 17.4146 8.2453C16.8333 9.38616 16.8333 10.8796 16.8333 13.8666" stroke="black" stroke-width="2" stroke-linecap="round" stroke-linejoin="round"/>
</svg>
