<svg width="22" height="22" viewBox="0 0 22 22" fill="none" xmlns="http://www.w3.org/2000/svg">
<path d="M9.83325 2.5H6.63325C4.95309 2.5 4.11302 2.5 3.47128 2.82698C2.90679 3.1146 2.44785 3.57354 2.16023 4.13803C1.83325 4.77976 1.83325 5.61984 1.83325 7.3V15.7C1.83325 17.3802 1.83325 18.2202 2.16023 18.862C2.44785 19.4265 2.90679 19.8854 3.47128 20.173C4.11302 20.5 4.95309 20.5 6.63325 20.5H15.0333C16.7134 20.5 17.5535 20.5 18.1952 20.173C18.7597 19.8854 19.2187 19.4265 19.5063 18.862C19.8333 18.2202 19.8333 17.3802 19.8333 15.7V12.5M10.8333 7.5H14.8333V11.5M14.3333 3V1.5M18.2726 4.06066L19.3333 3M19.3435 8H20.8435M1.83325 12.8471C2.48519 12.9478 3.15312 13 3.83325 13C8.21961 13 12.0986 10.8276 14.4529 7.5" stroke="#344054" stroke-width="2" stroke-linecap="round" stroke-linejoin="round"/>
</svg>
