<svg width="33" height="32" viewBox="0 0 33 32" fill="none" xmlns="http://www.w3.org/2000/svg">
<path d="M15.166 14.6667H8.76602C7.27254 14.6667 6.52581 14.6667 5.95537 14.9573C5.45361 15.213 5.04566 15.6209 4.79 16.1227C4.49935 16.6931 4.49935 17.4399 4.49935 18.9333V28M28.4993 28V8.26667C28.4993 6.77319 28.4993 6.02646 28.2087 5.45603C27.953 4.95426 27.5451 4.54631 27.0433 4.29065C26.4729 4 25.7262 4 24.2327 4H19.4327C17.9392 4 17.1925 4 16.622 4.29065C16.1203 4.54631 15.7123 4.95426 15.4567 5.45603C15.166 6.02646 15.166 6.77319 15.166 8.26667V28M29.8327 28H3.16602M19.8327 9.33333H23.8327M19.8327 14.6667H23.8327M19.8327 20H23.8327" stroke="black" stroke-width="2" stroke-linecap="round" stroke-linejoin="round"/>
</svg>
