<svg width="35" height="40" viewBox="0 0 35 40" fill="none" xmlns="http://www.w3.org/2000/svg">
<path d="M14.6884 35.0238C14.7702 35.3284 14.9113 35.6138 15.1035 35.8638C15.2956 36.1137 15.5352 36.3234 15.8085 36.4808C16.0817 36.6381 16.3833 36.7401 16.696 36.7808C17.0087 36.8216 17.3263 36.8003 17.6308 36.7182L30.6316 33.2358C31.2461 33.0705 31.7697 32.668 32.0875 32.1166C32.4052 31.5653 32.491 30.9104 32.326 30.2958L25.5196 4.97824C25.438 4.67376 25.2972 4.38834 25.1053 4.13828C24.9134 3.88822 24.6741 3.67841 24.4011 3.52084C24.128 3.36328 23.8267 3.26104 23.5141 3.21996C23.2016 3.17888 22.884 3.19977 22.5796 3.28144L9.57638 6.76624C8.96243 6.93158 8.43919 7.33378 8.12151 7.88454C7.80383 8.4353 7.71768 9.08962 7.88198 9.70384L14.6884 35.0238ZM18.2548 39.0366C17.6457 39.2003 17.0103 39.2424 16.385 39.1604C15.7597 39.0784 15.1566 38.874 14.6103 38.5589C14.064 38.2437 13.5852 37.824 13.2012 37.3237C12.8172 36.8233 12.5356 36.2523 12.3724 35.643L5.56598 10.3278C5.23602 9.09841 5.40793 7.78825 6.04389 6.68556C6.67985 5.58286 7.72778 4.77794 8.95718 4.44784L21.9556 0.965441C22.5645 0.801704 23.1997 0.759544 23.8249 0.84137C24.4501 0.923196 25.0531 1.1274 25.5994 1.44233C26.1456 1.75725 26.6245 2.17672 27.0086 2.67677C27.3927 3.17682 27.6745 3.74764 27.838 4.35664L34.6444 29.6766C34.9736 30.9057 34.8013 32.2153 34.1654 33.3174C33.5295 34.4196 32.482 35.2241 31.2532 35.5542L18.2548 39.0366ZM10.8052 39.1998H11.17C10.8069 38.6556 10.5354 38.0557 10.366 37.4238L10.1764 36.7158C9.66695 36.5787 9.21692 36.2775 8.89588 35.8588C8.57484 35.4402 8.4007 34.9274 8.40038 34.3998V30.1038L5.99078 21.147L6.00278 34.4022C6.00278 35.0328 6.12701 35.6572 6.36838 36.2397C6.60976 36.8222 6.96354 37.3515 7.40951 37.7972C7.85549 38.243 8.38492 38.5965 8.96756 38.8376C9.5502 39.0786 10.1746 39.2026 10.8052 39.2022M3.59558 35.6022C3.59558 35.967 3.62758 36.323 3.69158 36.6702L3.56198 36.6342C2.95259 36.4716 2.38124 36.1904 1.88058 35.8068C1.37993 35.4231 0.959787 34.9446 0.644175 34.3985C0.328562 33.8525 0.123667 33.2495 0.041203 32.6242C-0.0412611 31.9989 0.000322276 31.3635 0.163576 30.7542L3.58118 17.9622L3.58838 27.2358L2.48438 31.3758C2.19638 32.4462 2.68118 33.5406 3.59318 34.0734L3.59558 35.6022ZM13.8004 9.19984C14.0368 9.19984 14.2708 9.2464 14.4892 9.33686C14.7076 9.42732 14.906 9.5599 15.0732 9.72705C15.2403 9.89419 15.3729 10.0926 15.4634 10.311C15.5538 10.5294 15.6004 10.7635 15.6004 10.9998C15.6004 11.2362 15.5538 11.4703 15.4634 11.6887C15.3729 11.9071 15.2403 12.1055 15.0732 12.2726C14.906 12.4398 14.7076 12.5724 14.4892 12.6628C14.2708 12.7533 14.0368 12.7998 13.8004 12.7998C13.323 12.7998 12.8651 12.6102 12.5276 12.2726C12.19 11.9351 12.0004 11.4772 12.0004 10.9998C12.0004 10.5225 12.19 10.0646 12.5276 9.72705C12.8651 9.38948 13.323 9.19984 13.8004 9.19984Z" fill="#454545"/>
</svg>
