<svg width="24" height="25" viewBox="0 0 24 25" fill="none" xmlns="http://www.w3.org/2000/svg">
<g clip-path="url(#clip0_2225_33084)">
<path d="M20.666 13.8332H12.666V11.1665H16.666C16.8428 11.1665 17.0124 11.0963 17.1374 10.9712C17.2624 10.8462 17.3327 10.6766 17.3327 10.4998V5.1665C17.3327 4.98969 17.2624 4.82012 17.1374 4.6951C17.0124 4.57008 16.8428 4.49984 16.666 4.49984H12.666V1.83317C12.666 1.65636 12.5958 1.48679 12.4708 1.36177C12.3457 1.23674 12.1762 1.1665 11.9993 1.1665C11.8225 1.1665 11.653 1.23674 11.5279 1.36177C11.4029 1.48679 11.3327 1.65636 11.3327 1.83317V4.49984H7.33268C7.15587 4.49984 6.9863 4.57008 6.86128 4.6951C6.73625 4.82012 6.66602 4.98969 6.66602 5.1665V10.4998C6.66602 10.6766 6.73625 10.8462 6.86128 10.9712C6.9863 11.0963 7.15587 11.1665 7.33268 11.1665H11.3327V13.8332H3.33268C3.15587 13.8332 2.9863 13.9034 2.86128 14.0284C2.73625 14.1535 2.66602 14.323 2.66602 14.4998V19.8332C2.66602 20.01 2.73625 20.1796 2.86128 20.3046C2.9863 20.4296 3.15587 20.4998 3.33268 20.4998H11.3327V23.1665C11.3327 23.3433 11.4029 23.5129 11.5279 23.6379C11.653 23.7629 11.8225 23.8332 11.9993 23.8332C12.1762 23.8332 12.3457 23.7629 12.4708 23.6379C12.5958 23.5129 12.666 23.3433 12.666 23.1665V20.4998H20.666C20.8428 20.4998 21.0124 20.4296 21.1374 20.3046C21.2624 20.1796 21.3327 20.01 21.3327 19.8332V14.4998C21.3327 14.323 21.2624 14.1535 21.1374 14.0284C21.0124 13.9034 20.8428 13.8332 20.666 13.8332ZM7.99935 9.83317V5.83317H15.9993V9.83317H7.99935ZM19.9993 19.1665H3.99935V15.1665H19.9993V19.1665Z" fill="white"/>
</g>
<defs>
<clipPath id="clip0_2225_33084">
<rect width="24" height="24" fill="white" transform="translate(0 0.5)"/>
</clipPath>
</defs>
</svg>
