<svg width="25" height="25" viewBox="0 0 25 25" fill="none" xmlns="http://www.w3.org/2000/svg">
<path d="M14.1965 8.85186C13.6241 9.25995 12.9236 9.5 12.167 9.5C10.234 9.5 8.66699 7.933 8.66699 6C8.66699 4.067 10.234 2.5 12.167 2.5C13.42 2.5 14.5192 3.15842 15.1375 4.14814M6.66699 20.5872H9.27728C9.61762 20.5872 9.95588 20.6277 10.2858 20.7086L13.0439 21.3789C13.6423 21.5247 14.2658 21.5388 14.8705 21.4214L17.92 20.8281C18.7255 20.6712 19.4666 20.2854 20.0473 19.7205L22.2049 17.6217C22.821 17.0234 22.821 16.0524 22.2049 15.4531C21.6501 14.9134 20.7717 14.8527 20.1441 15.3103L17.6296 17.1449C17.2695 17.4081 16.8313 17.5498 16.3806 17.5498H13.9525L15.4981 17.5498C16.3692 17.5498 17.0748 16.8633 17.0748 16.0159V15.7091C17.0748 15.0055 16.5826 14.392 15.8811 14.2219L13.4956 13.6417C13.1074 13.5476 12.7098 13.5 12.3101 13.5C11.3453 13.5 9.59889 14.2988 9.59889 14.2988L6.66699 15.5249M20.667 7C20.667 8.933 19.1 10.5 17.167 10.5C15.234 10.5 13.667 8.933 13.667 7C13.667 5.067 15.234 3.5 17.167 3.5C19.1 3.5 20.667 5.067 20.667 7ZM2.66699 15.1L2.66699 20.9C2.66699 21.4601 2.66699 21.7401 2.77599 21.954C2.87186 22.1422 3.02484 22.2951 3.213 22.391C3.42691 22.5 3.70694 22.5 4.26699 22.5H5.06699C5.62704 22.5 5.90707 22.5 6.12098 22.391C6.30914 22.2951 6.46213 22.1422 6.558 21.954C6.66699 21.7401 6.66699 21.4601 6.66699 20.9V15.1C6.66699 14.5399 6.66699 14.2599 6.558 14.046C6.46213 13.8578 6.30914 13.7049 6.12098 13.609C5.90707 13.5 5.62705 13.5 5.06699 13.5L4.26699 13.5C3.70694 13.5 3.42691 13.5 3.213 13.609C3.02484 13.7049 2.87186 13.8578 2.77599 14.046C2.66699 14.2599 2.66699 14.5399 2.66699 15.1Z" stroke="#344054" stroke-width="2" stroke-linecap="round" stroke-linejoin="round"/>
</svg>
