<svg width="33" height="32" viewBox="0 0 33 32" fill="none" xmlns="http://www.w3.org/2000/svg">
<path d="M14.0826 11.476C15.0929 11.476 16.0618 11.0747 16.7762 10.3603M14.0826 11.476C13.0723 11.476 12.1033 11.0747 11.389 10.3603M14.0826 11.476V14.3333M16.7762 10.3603C17.4906 9.64588 17.8919 8.67696 17.8919 7.66667C17.8919 6.65637 17.4906 5.68745 16.7762 4.97306M16.7762 10.3603L18.7972 12.3813M16.7762 4.97306C16.0618 4.25867 15.0929 3.85733 14.0826 3.85733M16.7762 4.97306L18.7972 2.952M14.0826 3.85733C13.0723 3.85733 12.1033 4.25867 11.389 4.97306M14.0826 3.85733V1M11.389 4.97306C10.6746 5.68745 10.2732 6.65637 10.2732 7.66667M11.389 4.97306L9.36923 2.952M10.2732 7.66667C10.2732 8.67696 10.6746 9.64588 11.389 10.3603M10.2732 7.66667H7.41589M11.389 10.3603L9.36923 12.3813M13.4479 1H14.7186M18.3479 2.504L19.2466 3.40133M20.7492 7.032V8.30133M20.7492 7.66667H17.8932M19.2466 11.932L18.3479 12.8293M14.7186 14.3333H13.4479M9.81856 12.8293L8.91989 11.932M7.41589 8.30133V7.032M8.91989 3.40133L9.81856 2.504M15.4159 25V19H28.5839C29.2911 19 29.9694 19.281 30.4695 19.781C30.9696 20.2811 31.2506 20.9594 31.2506 21.6667V25M31.2506 25H1.41589V29H31.2492M31.2506 25L31.2492 29M31.2492 29L31.2506 31M1.41589 31V19M9.41589 25C9.80986 25 10.2 24.9224 10.5639 24.7716C10.9279 24.6209 11.2586 24.3999 11.5372 24.1213C11.8158 23.8427 12.0368 23.512 12.1875 23.1481C12.3383 22.7841 12.4159 22.394 12.4159 22C12.4159 21.606 12.3383 21.2159 12.1875 20.8519C12.0368 20.488 11.8158 20.1573 11.5372 19.8787C11.2586 19.6001 10.9279 19.3791 10.5639 19.2284C10.2 19.0776 9.80986 19 9.41589 19C8.62024 19 7.85718 19.3161 7.29457 19.8787C6.73196 20.4413 6.41589 21.2044 6.41589 22C6.41589 22.7957 6.73196 23.5587 7.29457 24.1213C7.85718 24.6839 8.62024 25 9.41589 25Z" stroke="#262626" stroke-width="1.5" stroke-linecap="round" stroke-linejoin="round"/>
</svg>
