<svg width="48" height="48" viewBox="0 0 48 48" fill="none" xmlns="http://www.w3.org/2000/svg">
<path fill-rule="evenodd" clip-rule="evenodd" d="M30.1831 11.7375C29.7674 11.7375 29.4333 11.4013 29.4333 10.9878C29.4333 10.5721 29.7695 10.238 30.1831 10.238H41.747C42.1606 10.238 42.4967 10.5742 42.4967 10.9878C42.4967 11.4013 42.1606 11.7375 41.747 11.7375H30.1831ZM30.1831 0.000391698C27.4999 0.000391698 25.3036 2.19051 25.3036 4.87162V13.2509C25.3036 15.9321 27.4999 18.1222 30.1831 18.1222L33.0231 18.1181L35.364 21.1333C35.6594 21.5204 36.2482 21.5387 36.5559 21.1455L38.9029 18.1221H41.7449C44.4281 18.1221 46.6243 15.932 46.6243 13.2509L46.6264 4.87158C46.6264 2.19047 44.4302 0.000352653 41.747 0.000352653L30.1831 0.000391698ZM41.747 1.49987H30.1831C28.323 1.49987 26.8031 3.00748 26.8031 4.87162V13.2509C26.8031 15.1131 28.3209 16.6248 30.1831 16.6248H33.3308C33.5752 16.6065 33.8218 16.7042 33.9827 16.9121L35.963 19.4628L37.927 16.9324C38.0635 16.7429 38.2855 16.6207 38.5361 16.6207H41.7449C43.605 16.6207 45.1228 15.1131 45.1228 13.2489L45.1269 4.87169C45.1269 3.00957 43.6091 1.49993 41.749 1.49993L41.747 1.49987ZM33.7161 47.2503C33.7161 47.6638 33.3799 48 32.9663 48C32.5528 48 32.2166 47.6638 32.2166 47.2503V43.4832H15.7834V47.2503C15.7834 47.6638 15.4473 48 15.0337 48C14.6201 48 14.2839 47.6638 14.2839 47.2503V43.4812L13.0534 43.4832V47.2503C13.0534 47.6638 12.7172 48 12.3036 48C11.8901 48 11.5539 47.6638 11.5539 47.2503V43.4832L8.66292 43.4853C8.35121 43.4853 8.08431 43.2937 7.97228 43.0228L6.44021 39.2904C6.28333 38.9094 6.46669 38.4714 6.84767 38.3145C7.22865 38.1577 7.66667 38.339 7.82356 38.722L9.16411 41.9899L15.0337 41.9817H18.7743C19.7827 41.9675 19.744 39.6143 18.6724 39.6143H12.3016C11.888 39.6143 11.5518 39.2782 11.5518 38.8646V36.0694C11.5518 34.9529 10.6351 34.0361 9.51861 34.0361H3.53271C2.41627 34.0361 1.49947 34.9529 1.49947 36.0694V47.2463C1.49947 47.6599 1.16332 47.996 0.749737 47.996C0.336159 47.996 0 47.6599 0 47.2463V36.0694C0 34.1237 1.58913 32.5366 3.53271 32.5366H9.51861C11.4643 32.5366 13.0513 34.1258 13.0513 36.0694V38.1148H18.67C20.6238 38.1148 21.4062 40.3783 20.797 41.9817H32.9639C33.3774 41.9817 33.7136 42.3179 33.7136 42.7314V47.2482L33.7161 47.2503ZM6.52579 22.8388C4.50883 22.8388 2.87287 24.4748 2.87287 26.4917C2.87287 28.5087 4.50883 30.1447 6.52579 30.1447C8.54276 30.1447 10.1787 28.5087 10.1787 26.4917C10.1787 24.4748 8.54276 22.8388 6.52579 22.8388ZM2.88304 22.847C4.89593 20.8341 8.15753 20.8341 10.1707 22.847C12.1836 24.8599 12.1836 28.1215 10.1707 30.1347C8.15785 32.1479 4.89624 32.1476 2.88304 30.1347C0.86983 28.1218 0.870143 24.8602 2.88304 22.847ZM47.9997 47.248V36.4173C47.9997 34.2802 46.2558 32.5362 44.1186 32.5362H33.1639L29.68 29.1807C28.804 28.3373 27.7099 28.3067 26.7829 28.7264C25.1796 29.4517 24.1894 31.5359 25.6176 33.0272L30.6498 38.2897C30.7964 38.4446 30.9941 38.522 31.1917 38.522L34.9465 38.524V47.246C34.9465 47.6596 35.2826 47.9957 35.6962 47.9957C36.1098 47.9957 36.446 47.6596 36.446 47.246V37.7745C36.446 37.361 36.1098 37.0248 35.6962 37.0248H31.5095L26.7014 31.9967C25.7419 30.9943 27.6427 29.2972 28.643 30.2589L32.3041 33.7855C32.4426 33.9383 32.6402 34.034 32.8623 34.034H44.1164C44.7704 34.034 45.3653 34.303 45.7973 34.7349C46.2292 35.1668 46.4981 35.7617 46.4981 36.4157V47.2463C46.4981 47.6599 46.8343 47.9961 47.2479 47.9961C47.6614 47.9961 47.9976 47.6599 47.9976 47.2463L47.9997 47.248ZM41.474 22.8365C43.491 22.8365 45.1269 24.4725 45.1269 26.4895C45.1269 28.5064 43.491 30.1424 41.474 30.1424C39.4571 30.1424 37.8211 28.5064 37.8211 26.4895C37.8211 24.4725 39.4571 22.8365 41.474 22.8365ZM37.8313 22.8447C39.8442 20.8318 43.1058 20.8318 45.119 22.8447C47.1319 24.8576 47.1319 28.1192 45.119 30.1324C43.1061 32.1453 39.8445 32.1453 37.8313 30.1324C35.8184 28.1195 35.8184 24.8579 37.8313 22.8447ZM17.8165 1.49947H6.2526C4.39253 1.49947 2.87266 3.00708 2.87266 4.87123V13.2506C2.87266 15.1127 4.39049 16.6223 6.2526 16.6223H9.46137C9.71197 16.6223 9.93403 16.7446 10.0685 16.934L12.0325 19.4644L14.0128 16.9137C14.1737 16.7059 14.4223 16.606 14.6647 16.6264L17.8124 16.6223C19.6725 16.6223 21.1903 15.1147 21.1903 13.2506L21.1944 4.87127C21.1944 3.00915 19.6766 1.49947 17.8165 1.49947ZM6.2526 0C3.56946 0 1.37318 2.19012 1.37318 4.87123V13.2506C1.37318 15.9317 3.56941 18.1218 6.2526 18.1218H9.09467L11.4417 21.1452C11.7493 21.5404 12.3381 21.5221 12.6335 21.133L14.9744 18.1177H17.8145C20.4976 18.1177 22.6939 15.9317 22.6939 13.2506V4.87126C22.6939 2.19015 20.4977 3.23307e-05 17.8145 3.23307e-05L6.2526 0ZM14.6079 6.48712H16.8775C17.2932 6.48712 17.6273 6.82328 17.6273 7.23685V10.8837C17.6273 11.2973 17.2911 11.6334 16.8775 11.6334H14.6079V13.903C14.6079 14.3166 14.2718 14.6528 13.8582 14.6528H10.2114C9.79779 14.6528 9.46163 14.3166 9.46163 13.903V11.6334H7.19203C6.77845 11.6334 6.44229 11.2973 6.44229 10.8837V7.23685C6.44229 6.82328 6.77845 6.48712 7.19203 6.48712H9.46163V4.21751C9.46163 3.80393 9.79779 3.46778 10.2114 3.46778H13.8582C14.2738 3.46778 14.6079 3.80393 14.6079 4.21751V6.48712ZM16.1278 7.98659V10.1339H13.8582C13.4446 10.1339 13.1085 10.4701 13.1085 10.8837V13.1533H10.9611V10.8837C10.9611 10.4681 10.6249 10.1339 10.2114 10.1339H7.94177V7.98659H10.2114C10.627 7.98659 10.9611 7.65043 10.9611 7.23685V4.96725H13.1085V7.23685C13.1085 7.65043 13.4446 7.98659 13.8582 7.98659H16.1278ZM39.1639 7.88269C38.7503 7.88269 38.4142 7.54653 38.4142 7.13295C38.4142 6.71937 38.7503 6.38321 39.1639 6.38321H41.7472C42.1608 6.38321 42.4969 6.71937 42.4969 7.13295C42.4969 7.54653 42.1608 7.88269 41.7472 7.88269H39.1639ZM30.1832 7.88269C29.7676 7.88269 29.4335 7.54653 29.4335 7.13295C29.4335 6.71937 29.7696 6.38321 30.1832 6.38321H36.2912C36.7047 6.38321 37.0409 6.71937 37.0409 7.13295C37.0409 7.54653 36.7047 7.88269 36.2912 7.88269H30.1832Z" fill="white"/>
</svg>
