<svg width="24" height="25" viewBox="0 0 24 25" fill="none" xmlns="http://www.w3.org/2000/svg">
<path d="M17.8778 20.5899C16.1693 21.8312 14.1117 22.4998 11.9999 22.4998C9.88812 22.4998 7.83054 21.8312 6.12206 20.5899M16.3836 3.51182C18.2817 4.43756 19.838 5.94044 20.8294 7.80504C21.8208 9.66964 22.1965 11.8002 21.9026 13.8915M2.09733 13.8914C1.80343 11.8002 2.17911 9.66955 3.17053 7.80494C4.16196 5.94034 5.71823 4.43747 7.6163 3.51172M11.4342 7.06544L6.5656 11.9341C6.36759 12.1321 6.26859 12.2311 6.23149 12.3452C6.19886 12.4457 6.19886 12.5538 6.23149 12.6543C6.26859 12.7684 6.36759 12.8674 6.5656 13.0654L11.4342 17.9341C11.6322 18.1321 11.7312 18.2311 11.8454 18.2682C11.9458 18.3008 12.054 18.3008 12.1544 18.2682C12.2686 18.2311 12.3676 18.1321 12.5656 17.9341L17.4342 13.0654C17.6322 12.8674 17.7312 12.7684 17.7683 12.6543C17.801 12.5538 17.801 12.4457 17.7683 12.3452C17.7312 12.2311 17.6322 12.1321 17.4342 11.9341L12.5656 7.06544C12.3676 6.86743 12.2686 6.76843 12.1544 6.73134C12.054 6.69871 11.9458 6.69871 11.8454 6.73134C11.7312 6.76843 11.6322 6.86743 11.4342 7.06544Z" stroke="#344054" stroke-width="2" stroke-linecap="round" stroke-linejoin="round"/>
</svg>
