<svg width="25" height="25" viewBox="0 0 25 25" fill="none" xmlns="http://www.w3.org/2000/svg">
<path d="M2.75 2.5L4.75 4.5M22.75 2.5L20.75 4.5M22.75 22.5L20.75 20.5M2.75 22.5L4.75 20.5M2.75 16.5H4.25M8.75 2.5V4M22.75 8.5H21.25M16.75 22.5V21M18.75 16.5H22.25M16.75 2.5V6.5M2.75 8.5H6.75M8.75 22.5V18.5M16.75 12.5C16.75 14.7091 14.9591 16.5 12.75 16.5C10.5409 16.5 8.75 14.7091 8.75 12.5C8.75 10.2909 10.5409 8.5 12.75 8.5C14.9591 8.5 16.75 10.2909 16.75 12.5Z" stroke="#344054" stroke-width="2" stroke-linecap="round" stroke-linejoin="round"/>
</svg>
