<svg width="33" height="32" viewBox="0 0 33 32" fill="none" xmlns="http://www.w3.org/2000/svg">
<path d="M11.4987 19.5556C11.4987 21.2739 12.8916 22.6667 14.6098 22.6667H17.4987C19.3396 22.6667 20.832 21.1744 20.832 19.3334C20.832 17.4925 19.3396 16.0001 17.4987 16.0001H14.832C12.9911 16.0001 11.4987 14.5077 11.4987 12.6667C11.4987 10.8258 12.9911 9.33341 14.832 9.33341H17.7209C19.4391 9.33341 20.832 10.7263 20.832 12.4445M16.1654 7.33341V9.33341M16.1654 22.6667V24.6667M29.4987 16.0001C29.4987 23.3639 23.5292 29.3334 16.1654 29.3334C8.80157 29.3334 2.83203 23.3639 2.83203 16.0001C2.83203 8.63628 8.80157 2.66675 16.1654 2.66675C23.5292 2.66675 29.4987 8.63628 29.4987 16.0001Z" stroke="black" stroke-width="2" stroke-linecap="round" stroke-linejoin="round"/>
</svg>
