<svg width="25" height="25" viewBox="0 0 25 25" fill="none" xmlns="http://www.w3.org/2000/svg">
<path d="M21.533 22.5C21.813 22.5 21.953 22.5 22.06 22.4455C22.1541 22.3976 22.2306 22.3211 22.2785 22.227C22.333 22.12 22.333 21.98 22.333 21.7V11.3C22.333 11.02 22.333 10.88 22.2785 10.773C22.2306 10.6789 22.1541 10.6024 22.06 10.5545C21.953 10.5 21.813 10.5 21.533 10.5L19.133 10.5C18.853 10.5 18.713 10.5 18.606 10.5545C18.5119 10.6024 18.4354 10.6789 18.3875 10.773C18.333 10.88 18.333 11.02 18.333 11.3V13.7C18.333 13.98 18.333 14.12 18.2785 14.227C18.2306 14.3211 18.1541 14.3976 18.06 14.4455C17.953 14.5 17.813 14.5 17.533 14.5H15.133C14.853 14.5 14.713 14.5 14.606 14.5545C14.5119 14.6024 14.4354 14.6789 14.3875 14.773C14.333 14.88 14.333 15.02 14.333 15.3V17.7C14.333 17.98 14.333 18.12 14.2785 18.227C14.2306 18.3211 14.1541 18.3976 14.06 18.4455C13.953 18.5 13.813 18.5 13.533 18.5H11.133C10.853 18.5 10.713 18.5 10.606 18.5545C10.5119 18.6024 10.4354 18.6789 10.3875 18.773C10.333 18.88 10.333 19.02 10.333 19.3V21.7C10.333 21.98 10.333 22.12 10.3875 22.227C10.4354 22.3211 10.5119 22.3976 10.606 22.4455C10.713 22.5 10.853 22.5 11.133 22.5L21.533 22.5Z" stroke="#344054" stroke-width="2" stroke-linecap="round" stroke-linejoin="round"/>
<path d="M10.333 7.3C10.333 7.01997 10.333 6.87996 10.3875 6.773C10.4354 6.67892 10.5119 6.60243 10.606 6.5545C10.713 6.5 10.853 6.5 11.133 6.5H13.533C13.813 6.5 13.953 6.5 14.06 6.5545C14.1541 6.60243 14.2306 6.67892 14.2785 6.773C14.333 6.87996 14.333 7.01997 14.333 7.3V9.7C14.333 9.98003 14.333 10.12 14.2785 10.227C14.2306 10.3211 14.1541 10.3976 14.06 10.4455C13.953 10.5 13.813 10.5 13.533 10.5H11.133C10.853 10.5 10.713 10.5 10.606 10.4455C10.5119 10.3976 10.4354 10.3211 10.3875 10.227C10.333 10.12 10.333 9.98003 10.333 9.7V7.3Z" stroke="#344054" stroke-width="2" stroke-linecap="round" stroke-linejoin="round"/>
<path d="M3.33301 13.3C3.33301 13.02 3.33301 12.88 3.3875 12.773C3.43544 12.6789 3.51193 12.6024 3.60601 12.5545C3.71297 12.5 3.85298 12.5 4.13301 12.5H6.53301C6.81303 12.5 6.95305 12.5 7.06 12.5545C7.15408 12.6024 7.23057 12.6789 7.27851 12.773C7.33301 12.88 7.33301 13.02 7.33301 13.3V15.7C7.33301 15.98 7.33301 16.12 7.27851 16.227C7.23057 16.3211 7.15408 16.3976 7.06 16.4455C6.95305 16.5 6.81303 16.5 6.53301 16.5H4.13301C3.85298 16.5 3.71297 16.5 3.60601 16.4455C3.51193 16.3976 3.43544 16.3211 3.3875 16.227C3.33301 16.12 3.33301 15.98 3.33301 15.7V13.3Z" stroke="#344054" stroke-width="2" stroke-linecap="round" stroke-linejoin="round"/>
<path d="M2.33301 3.3C2.33301 3.01997 2.33301 2.87996 2.3875 2.773C2.43544 2.67892 2.51193 2.60243 2.60601 2.5545C2.71297 2.5 2.85298 2.5 3.13301 2.5H5.53301C5.81303 2.5 5.95305 2.5 6.06 2.5545C6.15408 2.60243 6.23057 2.67892 6.27851 2.773C6.33301 2.87996 6.33301 3.01997 6.33301 3.3V5.7C6.33301 5.98003 6.33301 6.12004 6.27851 6.227C6.23057 6.32108 6.15408 6.39757 6.06 6.4455C5.95305 6.5 5.81303 6.5 5.53301 6.5H3.13301C2.85298 6.5 2.71297 6.5 2.60601 6.4455C2.51193 6.39757 2.43544 6.32108 2.3875 6.227C2.33301 6.12004 2.33301 5.98003 2.33301 5.7V3.3Z" stroke="#344054" stroke-width="2" stroke-linecap="round" stroke-linejoin="round"/>
</svg>
