<svg width="32" height="32" viewBox="0 0 32 32" fill="none" xmlns="http://www.w3.org/2000/svg">
<path d="M4 14H0V12H4V14ZM5.92188 7.34375L3.09375 4.51562L4.51562 3.09375L7.34375 5.92188L5.92188 7.34375ZM14 4H12V0H14V4ZM20.0781 7.34375L18.6562 5.92188L21.4844 3.09375L22.9062 4.51562L20.0781 7.34375ZM20 20.25C20.2396 20.25 20.4635 20.2969 20.6719 20.3906C20.8802 20.4844 21.0677 20.6094 21.2344 20.7656C21.401 20.9219 21.526 21.1042 21.6094 21.3125C21.6927 21.5208 21.7396 21.75 21.75 22C21.75 22.2396 21.7031 22.4635 21.6094 22.6719C21.5156 22.8802 21.3906 23.0677 21.2344 23.2344C21.0781 23.401 20.8958 23.526 20.6875 23.6094C20.4792 23.6927 20.25 23.7396 20 23.75C19.7604 23.75 19.5365 23.7031 19.3281 23.6094C19.1198 23.5156 18.9323 23.3906 18.7656 23.2344C18.599 23.0781 18.474 22.8958 18.3906 22.6875C18.3073 22.4792 18.2604 22.25 18.25 22C18.25 21.7604 18.2969 21.5365 18.3906 21.3281C18.4844 21.1198 18.6094 20.9323 18.7656 20.7656C18.9219 20.599 19.1042 20.474 19.3125 20.3906C19.5208 20.3073 19.75 20.2604 20 20.25ZM20 26.25C20.2396 26.25 20.4635 26.2969 20.6719 26.3906C20.8802 26.4844 21.0677 26.6094 21.2344 26.7656C21.401 26.9219 21.526 27.1042 21.6094 27.3125C21.6927 27.5208 21.7396 27.75 21.75 28C21.75 28.2396 21.7031 28.4635 21.6094 28.6719C21.5156 28.8802 21.3906 29.0677 21.2344 29.2344C21.0781 29.401 20.8958 29.526 20.6875 29.6094C20.4792 29.6927 20.25 29.7396 20 29.75C19.7604 29.75 19.5365 29.7031 19.3281 29.6094C19.1198 29.5156 18.9323 29.3906 18.7656 29.2344C18.599 29.0781 18.474 28.8958 18.3906 28.6875C18.3073 28.4792 18.2604 28.25 18.25 28C18.25 27.7604 18.2969 27.5365 18.3906 27.3281C18.4844 27.1198 18.6094 26.9323 18.7656 26.7656C18.9219 26.599 19.1042 26.474 19.3125 26.3906C19.5208 26.3073 19.75 26.2604 20 26.25ZM14 22.25C14.2396 22.25 14.4635 22.2969 14.6719 22.3906C14.8802 22.4844 15.0677 22.6094 15.2344 22.7656C15.401 22.9219 15.526 23.1042 15.6094 23.3125C15.6927 23.5208 15.7396 23.75 15.75 24C15.75 24.2396 15.7031 24.4635 15.6094 24.6719C15.5156 24.8802 15.3906 25.0677 15.2344 25.2344C15.0781 25.401 14.8958 25.526 14.6875 25.6094C14.4792 25.6927 14.25 25.7396 14 25.75C13.7604 25.75 13.5365 25.7031 13.3281 25.6094C13.1198 25.5156 12.9323 25.3906 12.7656 25.2344C12.599 25.0781 12.474 24.8958 12.3906 24.6875C12.3073 24.4792 12.2604 24.25 12.25 24C12.25 23.7604 12.2969 23.5365 12.3906 23.3281C12.4844 23.1198 12.6094 22.9323 12.7656 22.7656C12.9219 22.599 13.1042 22.474 13.3125 22.3906C13.5208 22.3073 13.75 22.2604 14 22.25ZM14 28.25C14.2396 28.25 14.4635 28.2969 14.6719 28.3906C14.8802 28.4844 15.0677 28.6094 15.2344 28.7656C15.401 28.9219 15.526 29.1042 15.6094 29.3125C15.6927 29.5208 15.7396 29.75 15.75 30C15.75 30.2396 15.7031 30.4635 15.6094 30.6719C15.5156 30.8802 15.3906 31.0677 15.2344 31.2344C15.0781 31.401 14.8958 31.526 14.6875 31.6094C14.4792 31.6927 14.25 31.7396 14 31.75C13.7604 31.75 13.5365 31.7031 13.3281 31.6094C13.1198 31.5156 12.9323 31.3906 12.7656 31.2344C12.599 31.0781 12.474 30.8958 12.3906 30.6875C12.3073 30.4792 12.2604 30.25 12.25 30C12.25 29.7604 12.2969 29.5365 12.3906 29.3281C12.4844 29.1198 12.6094 28.9323 12.7656 28.7656C12.9219 28.599 13.1042 28.474 13.3125 28.3906C13.5208 28.3073 13.75 28.2604 14 28.25ZM27.5156 16.1875C28.1719 16.3646 28.7708 16.6354 29.3125 17C29.8542 17.3646 30.3281 17.8073 30.7344 18.3281C31.1406 18.849 31.4531 19.4167 31.6719 20.0312C31.8906 20.6458 32 21.3021 32 22C32 22.8333 31.8438 23.6094 31.5312 24.3281C31.2188 25.0469 30.7917 25.6823 30.25 26.2344C29.7083 26.7865 29.0677 27.2188 28.3281 27.5312C27.5885 27.8438 26.8125 28 26 28H24V26H26C26.5521 26 27.0677 25.8958 27.5469 25.6875C28.026 25.4792 28.4531 25.1927 28.8281 24.8281C29.2031 24.4635 29.4896 24.0417 29.6875 23.5625C29.8854 23.0833 29.9896 22.5625 30 22C30 21.4271 29.8958 20.8958 29.6875 20.4062C29.4792 19.9167 29.1823 19.4948 28.7969 19.1406C28.4115 18.7865 27.9792 18.5104 27.5 18.3125C27.0208 18.1146 26.4896 18.0104 25.9062 18C25.7812 17.1458 25.5156 16.3542 25.1094 15.625C24.7031 14.8958 24.1927 14.2604 23.5781 13.7188C22.9635 13.1771 22.2656 12.7552 21.4844 12.4531C20.7031 12.151 19.875 12 19 12C18.1979 12 17.4375 12.1302 16.7188 12.3906C16 12.651 15.3385 13.0104 14.7344 13.4688C14.1302 13.9271 13.6198 14.4792 13.2031 15.125C12.7865 15.7708 12.4688 16.474 12.25 17.2344C11.7917 16.8385 11.2865 16.5365 10.7344 16.3281C10.1823 16.1198 9.60417 16.0104 9 16C8.3125 16 7.66667 16.1302 7.0625 16.3906C6.45833 16.651 5.92708 17.0052 5.46875 17.4531C5.01042 17.901 4.65104 18.4323 4.39062 19.0469C4.13021 19.6615 4 20.3125 4 21C4 21.6875 4.13021 22.3333 4.39062 22.9375C4.65104 23.5417 5.00521 24.0729 5.45312 24.5312C5.90104 24.9896 6.43229 25.349 7.04688 25.6094C7.66146 25.8698 8.3125 26 9 26H10V28H9C8.03125 28 7.125 27.8177 6.28125 27.4531C5.4375 27.0885 4.69792 26.5885 4.0625 25.9531C3.42708 25.3177 2.92708 24.5781 2.5625 23.7344C2.19792 22.8906 2.01042 21.9792 2 21C2 20.3125 2.09896 19.6458 2.29688 19C2.49479 18.3542 2.77604 17.75 3.14062 17.1875C3.50521 16.625 3.94271 16.125 4.45312 15.6875C4.96354 15.25 5.54167 14.8854 6.1875 14.5938C6.0625 14.0833 6 13.5521 6 13C6 12.0312 6.18229 11.125 6.54688 10.2812C6.91146 9.4375 7.41146 8.69792 8.04688 8.0625C8.68229 7.42708 9.42188 6.92708 10.2656 6.5625C11.1094 6.19792 12.0208 6.01042 13 6C13.6771 6 14.3281 6.09375 14.9531 6.28125C15.5781 6.46875 16.1667 6.73438 16.7188 7.07812C17.2708 7.42188 17.7656 7.84375 18.2031 8.34375C18.6406 8.84375 19.0052 9.39583 19.2969 10C20.2344 10.0312 21.1354 10.2031 22 10.5156C22.8646 10.8281 23.6562 11.2604 24.375 11.8125C25.0938 12.3646 25.724 13.0052 26.2656 13.7344C26.8073 14.4635 27.224 15.2812 27.5156 16.1875ZM11.2969 14.3906C11.9323 13.3177 12.7552 12.4167 13.7656 11.6875C14.776 10.9583 15.8958 10.4635 17.125 10.2031C16.6562 9.51562 16.0625 8.97917 15.3438 8.59375C14.625 8.20833 13.8438 8.01042 13 8C12.3125 8 11.6667 8.13021 11.0625 8.39062C10.4583 8.65104 9.92708 9.01042 9.46875 9.46875C9.01042 9.92708 8.65104 10.4583 8.39062 11.0625C8.13021 11.6667 8 12.3125 8 13C8 13.3333 8.04167 13.6823 8.125 14.0469C8.41667 14.0156 8.70833 14 9 14C9.77083 14 10.5365 14.1302 11.2969 14.3906Z" fill="#262626"/>
</svg>
