<svg width="33" height="32" viewBox="0 0 33 32" fill="none" xmlns="http://www.w3.org/2000/svg">
<path d="M14.1673 26.6666H10.1673M24.834 22.6666H22.1673M18.1676 11.9999H9.10091C7.60744 11.9999 6.86014 11.9999 6.28971 12.2906C5.78795 12.5462 5.3803 12.9539 5.12463 13.4556C4.83398 14.0261 4.83398 14.7734 4.83398 16.2668V18.4002C4.83398 19.8937 4.83398 20.6393 5.12463 21.2098C5.3803 21.7115 5.78795 22.1206 6.28971 22.3762C6.85959 22.6666 7.60598 22.6666 9.09653 22.6666H18.1674M18.1676 11.9999L18.1673 22.4002C18.1673 22.4917 18.1673 22.5805 18.1674 22.6666M18.1676 11.9999L18.1673 9.60018C18.1673 8.10671 18.1673 7.35941 18.458 6.78898C18.7136 6.28722 19.1213 5.87956 19.623 5.6239C20.1935 5.33325 20.9408 5.33325 22.4342 5.33325H24.5676C26.0611 5.33325 26.8067 5.33325 27.3772 5.6239C27.8789 5.87956 28.288 6.28722 28.5436 6.78898C28.834 7.35885 28.834 8.10524 28.834 9.5958V22.404C28.834 23.8946 28.834 24.6399 28.5436 25.2098C28.288 25.7115 27.8789 26.1206 27.3772 26.3762C26.8073 26.6666 26.062 26.6666 24.5714 26.6666H22.4299C20.9393 26.6666 20.1929 26.6666 19.623 26.3762C19.1213 26.1206 18.7136 25.7115 18.458 25.2098C18.1851 24.6743 18.1684 23.9844 18.1674 22.6666M23.5033 9.33325V9.33592L23.5007 9.33586V9.33325H23.5033Z" stroke="black" stroke-width="2" stroke-linecap="round" stroke-linejoin="round"/>
</svg>
