<svg width="24" height="25" viewBox="0 0 24 25" fill="none" xmlns="http://www.w3.org/2000/svg">
<path d="M16.0006 6.77986C16.0005 7.38158 15.7626 7.95886 15.3386 8.38586C14.3626 9.36986 13.4156 10.3959 12.4026 11.3439C12.2895 11.4469 12.1412 11.5026 11.9882 11.4994C11.8353 11.4963 11.6894 11.4345 11.5806 11.3269L8.66261 8.38686C8.2382 7.95971 8 7.38201 8 6.77986C8 6.17772 8.2382 5.60002 8.66261 5.17286C8.87426 4.95965 9.12602 4.79042 9.40337 4.67494C9.68072 4.55946 9.97818 4.50001 10.2786 4.50001C10.579 4.50001 10.8765 4.55946 11.1539 4.67494C11.4312 4.79042 11.683 4.95965 11.8946 5.17286L12.0006 5.27986L12.1066 5.17286C12.4243 4.85173 12.8304 4.6324 13.2731 4.54279C13.7159 4.45318 14.1753 4.49735 14.5929 4.66968C15.0104 4.842 15.3673 5.13469 15.618 5.51047C15.8687 5.88625 16.0019 6.32814 16.0006 6.77986Z" stroke="white" stroke-width="1.5" stroke-linejoin="round"/>
<path d="M18 20.5L21.824 16.676C21.9366 16.5636 21.9999 16.4111 22 16.252V11C22 10.6022 21.842 10.2206 21.5607 9.93934C21.2794 9.65804 20.8978 9.5 20.5 9.5C20.1022 9.5 19.7206 9.65804 19.4393 9.93934C19.158 10.2206 19 10.6022 19 11V15.5" stroke="white" stroke-width="1.5" stroke-linecap="round" stroke-linejoin="round"/>
<path d="M18 16.5L18.858 15.642C18.9033 15.5971 18.9391 15.5437 18.9635 15.4848C18.9879 15.4259 19.0003 15.3627 19 15.299C18.9993 15.2092 18.9739 15.1213 18.9267 15.045C18.8794 14.9686 18.8121 14.9067 18.732 14.866L18.289 14.645C17.9137 14.4573 17.4889 14.3925 17.0747 14.4596C16.6604 14.5267 16.2778 14.7224 15.981 15.019L15.086 15.914C14.7109 16.289 14.5001 16.7976 14.5 17.328V20.5M6 20.5L2.176 16.676C2.06345 16.5636 2.00014 16.4111 2 16.252V11C2 10.6022 2.15804 10.2206 2.43934 9.93934C2.72064 9.65804 3.10218 9.5 3.5 9.5C3.89782 9.5 4.27936 9.65804 4.56066 9.93934C4.84196 10.2206 5 10.6022 5 11V15.5" stroke="white" stroke-width="1.5" stroke-linecap="round" stroke-linejoin="round"/>
<path d="M6 16.4997L5.142 15.6417C5.0524 15.5499 5.00156 15.4271 5 15.2987C5 15.1157 5.104 14.9487 5.268 14.8657L5.711 14.6447C6.08631 14.4571 6.51114 14.3922 6.92534 14.4593C7.33955 14.5265 7.72216 14.7222 8.019 15.0187L8.914 15.9137C9.2891 16.2887 9.49989 16.7974 9.5 17.3277V20.4997" stroke="white" stroke-width="1.5" stroke-linecap="round" stroke-linejoin="round"/>
</svg>
