<svg width="24" height="25" viewBox="0 0 24 25" fill="none" xmlns="http://www.w3.org/2000/svg">
<path d="M1.86788 10.6227L1.87131 10.6193H1.86297C1.76066 10.5155 1.69132 10.3838 1.66373 10.2406C1.63584 10.0959 1.65191 9.94613 1.70987 9.81061L4.25536 3.87062L4.25536 3.87061C4.30284 3.75971 4.37677 3.66212 4.47068 3.5864C4.5646 3.51068 4.67564 3.45913 4.79409 3.43626C4.91254 3.41338 5.03479 3.41988 5.15015 3.45519C5.26551 3.4905 5.37045 3.55354 5.45581 3.63879L9.06479 7.24478C9.17415 7.35444 9.24625 7.49571 9.2709 7.64861C9.29554 7.80151 9.27148 7.95828 9.20211 8.09675L8.38161 9.73475L8.35888 9.72337L8.3838 9.74829L14.7498 16.1143L14.7319 16.1322L14.7633 16.1165L16.4013 15.2975C16.5399 15.2283 16.6968 15.2045 16.8497 15.2294C17.0026 15.2543 17.1438 15.3267 17.2533 15.4363L17.2616 15.428L17.2533 15.4363L20.8593 19.0438C20.9446 19.129 21.0077 19.2339 21.0431 19.3492C21.0785 19.4645 21.0852 19.5867 21.0625 19.7051C21.0397 19.8235 20.9883 19.9346 20.9128 20.0286C20.8372 20.1226 20.7398 20.1966 20.629 20.2442L14.689 22.7882C14.5535 22.8462 14.4037 22.8623 14.259 22.8344C14.1142 22.8065 13.9811 22.7359 13.8769 22.6317L1.86788 10.6227ZM3.26632 9.92438L3.24806 9.91655L3.26881 9.93729L14.5623 21.2293L14.5483 21.2433L14.5752 21.2318L19.0302 19.3223L19.0461 19.3155L19.0339 19.3032L16.5919 16.8627L16.6097 16.8449L16.5784 16.8605L15.4234 17.4365L15.4233 17.4365L14.4649 17.9172L13.7059 17.1582L7.34139 10.7937L7.34138 10.7937L6.58385 10.0347L7.06307 9.07625L7.06307 9.07624L7.64057 7.92275L7.66325 7.9341L7.63838 7.90922L5.19638 5.46572L5.18415 5.45347L5.17732 5.46938L3.26632 9.92438ZM12.0113 7.9883V6.51173C13.5953 6.51483 15.1137 7.14539 16.2339 8.26565C17.3542 9.3859 17.9848 10.9043 17.9879 12.4883H16.5113C16.5082 11.2959 16.0332 10.1531 15.1899 9.30973C14.3465 8.46638 13.2037 7.99139 12.0113 7.9883ZM12.0113 3.48829V2.01173C14.7887 2.01482 17.4518 3.11949 19.4159 5.08367C21.3801 7.04784 22.4848 9.71084 22.4879 12.4883H21.0113C21.0082 10.1025 20.0591 7.81502 18.3718 6.12775C16.6846 4.44049 14.3971 3.49139 12.0113 3.48829Z" fill="white" stroke="white" stroke-width="0.0234375"/>
</svg>
