<svg width="33" height="32" viewBox="0 0 33 32" fill="none" xmlns="http://www.w3.org/2000/svg">
<path d="M9.99995 9.33333V6.66666C9.99997 5.8945 10.2235 5.13884 10.6435 4.49091C11.0635 3.84298 11.6621 3.33047 12.367 3.01525C13.0719 2.70002 13.853 2.59556 14.6159 2.71446C15.3789 2.83336 16.0911 3.17055 16.6666 3.68533C17.2422 3.17055 17.9544 2.83336 18.7173 2.71446C19.4803 2.59556 20.2614 2.70002 20.9662 3.01525C21.6711 3.33047 22.2697 3.84298 22.6897 4.49091C23.1098 5.13884 23.3333 5.8945 23.3333 6.66666V9.33333H25.3333C25.8637 9.33333 26.3724 9.54404 26.7475 9.91911C27.1226 10.2942 27.3333 10.8029 27.3333 11.3333V24.6733C27.3333 25.9092 26.8423 27.0945 25.9684 27.9684C25.0945 28.8424 23.9092 29.3333 22.6733 29.3333H11.3333C9.9188 29.3333 8.56225 28.7714 7.56205 27.7712C6.56186 26.771 5.99995 25.4145 5.99995 24V11.3333C5.99995 10.8029 6.21067 10.2942 6.58574 9.91911C6.96081 9.54404 7.46952 9.33333 7.99995 9.33333H9.99995ZM18.8466 27.3333C18.3043 26.5523 18.0136 25.6242 18.0133 24.6733V11.3333H7.99995V24C7.99995 24.4377 8.08617 24.8712 8.25369 25.2756C8.4212 25.68 8.66674 26.0475 8.97626 26.357C9.28579 26.6665 9.65326 26.9121 10.0577 27.0796C10.4621 27.2471 10.8955 27.3333 11.3333 27.3333H18.8466ZM16 9.33333V6.66666C16 6.13623 15.7892 5.62752 15.4142 5.25245C15.0391 4.87737 14.5304 4.66666 14 4.66666C13.4695 4.66666 12.9608 4.87737 12.5857 5.25245C12.2107 5.62752 12 6.13623 12 6.66666V9.33333H16ZM18 9.33333H21.3333V6.66666C21.3333 6.25497 21.2063 5.8533 20.9696 5.51648C20.7329 5.17965 20.398 4.92409 20.0106 4.78466C19.6233 4.64523 19.2023 4.62874 18.8052 4.73744C18.4082 4.84613 18.0543 5.07472 17.792 5.39199C17.9266 5.79199 18 6.22133 18 6.66666V9.33333ZM20.0133 24.6733C20.0133 25.3788 20.2935 26.0554 20.7924 26.5542C21.2912 27.0531 21.9678 27.3333 22.6733 27.3333C23.3788 27.3333 24.0553 27.0531 24.5542 26.5542C25.053 26.0554 25.3333 25.3788 25.3333 24.6733V11.3333H20.0133V24.6733Z" fill="#262626"/>
</svg>
