<svg width="33" height="32" viewBox="0 0 33 32" fill="none" xmlns="http://www.w3.org/2000/svg">
<g clip-path="url(#clip0_2181_22075)">
<path d="M23.5 14C24.7396 14 25.9062 14.2344 27 14.7031C28.0938 15.1719 29.0469 15.8177 29.8594 16.6406C30.6719 17.4635 31.3125 18.4167 31.7812 19.5C32.25 20.5833 32.4896 21.75 32.5 23C32.5 24.2396 32.2656 25.4062 31.7969 26.5C31.3281 27.5938 30.6823 28.5469 29.8594 29.3594C29.0365 30.1719 28.0833 30.8125 27 31.2812C25.9167 31.75 24.75 31.9896 23.5 32C22.2604 32 21.0938 31.7656 20 31.2969C18.9062 30.8281 17.9531 30.1823 17.1406 29.3594C16.3281 28.5365 15.6875 27.5833 15.2188 26.5C14.75 25.4167 14.5104 24.25 14.5 23C14.5 21.7604 14.7344 20.5938 15.2031 19.5C15.6719 18.4062 16.3177 17.4531 17.1406 16.6406C17.9635 15.8281 18.9167 15.1875 20 14.7188C21.0833 14.25 22.25 14.0104 23.5 14ZM23.5 30C24.4688 30 25.375 29.8177 26.2188 29.4531C27.0625 29.0885 27.8021 28.5885 28.4375 27.9531C29.0729 27.3177 29.5729 26.5781 29.9375 25.7344C30.3021 24.8906 30.4896 23.9792 30.5 23C30.5 22.0312 30.3177 21.125 29.9531 20.2812C29.5885 19.4375 29.0885 18.6979 28.4531 18.0625C27.8177 17.4271 27.0781 16.9271 26.2344 16.5625C25.3906 16.1979 24.4792 16.0104 23.5 16C22.5312 16 21.625 16.1823 20.7812 16.5469C19.9375 16.9115 19.1979 17.4115 18.5625 18.0469C17.9271 18.6823 17.4271 19.4219 17.0625 20.2656C16.6979 21.1094 16.5104 22.0208 16.5 23C16.5 23.9688 16.6823 24.875 17.0469 25.7188C17.4115 26.5625 17.9115 27.3021 18.5469 27.9375C19.1823 28.5729 19.9219 29.0729 20.7656 29.4375C21.6094 29.8021 22.5208 29.9896 23.5 30ZM22.5 24V18H24.5V24H22.5ZM22.5 28V26H24.5V28H22.5ZM14.7812 16.3125C14.0938 17.1875 13.5625 18.1458 13.1875 19.1875C12.8125 20.2292 12.5938 21.3073 12.5312 22.4219C11.9688 22.9219 11.3438 23.3073 10.6562 23.5781C9.96875 23.849 9.25 23.9896 8.5 24C7.66667 24 6.89062 24.1562 6.17188 24.4688C5.45312 24.7812 4.81771 25.2083 4.26562 25.75C3.71354 26.2917 3.28125 26.9323 2.96875 27.6719C2.65625 28.4115 2.5 29.1875 2.5 30H0.5C0.5 29.2396 0.604167 28.5052 0.8125 27.7969C1.02083 27.0885 1.31771 26.4167 1.70312 25.7812C2.08854 25.1458 2.55729 24.5833 3.10938 24.0938C3.66146 23.6042 4.27604 23.1823 4.95312 22.8281C4.18229 22.2656 3.58333 21.5625 3.15625 20.7188C2.72917 19.875 2.51042 18.9688 2.5 18C2.5 17.1771 2.65625 16.401 2.96875 15.6719C3.28125 14.9427 3.70833 14.3073 4.25 13.7656C4.79167 13.224 5.42708 12.7917 6.15625 12.4688C6.88542 12.1458 7.66667 11.9896 8.5 12C9.46875 12 10.375 12.2135 11.2188 12.6406C12.0625 13.0677 12.7708 13.6771 13.3438 14.4688C13.7292 13.6875 14.2292 12.9844 14.8438 12.3594C15.4583 11.7344 16.1562 11.224 16.9375 10.8281C16.1667 10.2552 15.5677 9.54688 15.1406 8.70312C14.7135 7.85938 14.5 6.95833 14.5 6C14.5 5.17708 14.6562 4.40104 14.9688 3.67188C15.2812 2.94271 15.7083 2.30729 16.25 1.76562C16.7917 1.22396 17.4271 0.791667 18.1562 0.46875C18.8854 0.145833 19.6667 -0.0104167 20.5 0C21.3229 0 22.099 0.15625 22.8281 0.46875C23.5573 0.78125 24.1927 1.20833 24.7344 1.75C25.276 2.29167 25.7083 2.93229 26.0312 3.67188C26.3542 4.41146 26.5104 5.1875 26.5 6C26.5 6.83333 26.3438 7.60938 26.0312 8.32812C25.7188 9.04688 25.2917 9.68229 24.75 10.2344C24.2083 10.7865 23.5677 11.2188 22.8281 11.5312C22.0885 11.8438 21.3125 12 20.5 12C19.8333 12 19.1979 12.1042 18.5938 12.3125C17.9896 12.5208 17.4323 12.8125 16.9219 13.1875C16.4115 13.5625 15.974 14.0208 15.6094 14.5625C15.2448 15.1042 14.9688 15.6875 14.7812 16.3125ZM16.5 6C16.5 6.55208 16.6042 7.06771 16.8125 7.54688C17.0208 8.02604 17.3073 8.45312 17.6719 8.82812C18.0365 9.20312 18.4583 9.48958 18.9375 9.6875C19.4167 9.88542 19.9375 9.98958 20.5 10C21.0521 10 21.5677 9.89583 22.0469 9.6875C22.526 9.47917 22.9531 9.19271 23.3281 8.82812C23.7031 8.46354 23.9896 8.04167 24.1875 7.5625C24.3854 7.08333 24.4896 6.5625 24.5 6C24.5 5.44792 24.3958 4.93229 24.1875 4.45312C23.9792 3.97396 23.6927 3.54688 23.3281 3.17188C22.9635 2.79688 22.5417 2.51042 22.0625 2.3125C21.5833 2.11458 21.0625 2.01042 20.5 2C19.9479 2 19.4323 2.10417 18.9531 2.3125C18.474 2.52083 18.0469 2.80729 17.6719 3.17188C17.2969 3.53646 17.0104 3.95833 16.8125 4.4375C16.6146 4.91667 16.5104 5.4375 16.5 6ZM8.5 22C9.05208 22 9.56771 21.8958 10.0469 21.6875C10.526 21.4792 10.9531 21.1927 11.3281 20.8281C11.7031 20.4635 11.9896 20.0417 12.1875 19.5625C12.3854 19.0833 12.4896 18.5625 12.5 18C12.5 17.4479 12.3958 16.9323 12.1875 16.4531C11.9792 15.974 11.6927 15.5469 11.3281 15.1719C10.9635 14.7969 10.5417 14.5104 10.0625 14.3125C9.58333 14.1146 9.0625 14.0104 8.5 14C7.94792 14 7.43229 14.1042 6.95312 14.3125C6.47396 14.5208 6.04688 14.8073 5.67188 15.1719C5.29688 15.5365 5.01042 15.9583 4.8125 16.4375C4.61458 16.9167 4.51042 17.4375 4.5 18C4.5 18.5521 4.60417 19.0677 4.8125 19.5469C5.02083 20.026 5.30729 20.4531 5.67188 20.8281C6.03646 21.2031 6.45833 21.4896 6.9375 21.6875C7.41667 21.8854 7.9375 21.9896 8.5 22Z" fill="black"/>
</g>
<defs>
<clipPath id="clip0_2181_22075">
<rect width="32" height="32" fill="white" transform="translate(0.5)"/>
</clipPath>
</defs>
</svg>
