<svg width="33" height="32" viewBox="0 0 33 32" fill="none" xmlns="http://www.w3.org/2000/svg">
<path d="M27.1673 13.3334V9.06675C27.1673 6.82654 27.1673 5.70643 26.7313 4.85079C26.3478 4.09814 25.7359 3.48622 24.9833 3.10272C24.1276 2.66675 23.0075 2.66675 20.7673 2.66675H12.234C9.99377 2.66675 8.87367 2.66675 8.01802 3.10272C7.26537 3.48622 6.65345 4.09814 6.26996 4.85079C5.83398 5.70643 5.83398 6.82654 5.83398 9.06675V22.9334C5.83398 25.1736 5.83398 26.2937 6.26996 27.1494C6.65345 27.902 7.26537 28.5139 8.01802 28.8974C8.87367 29.3334 9.99377 29.3334 12.234 29.3334H16.5007M17.1673 14.6667H11.1673M12.5007 20.0001H11.1673M21.834 9.33341H11.1673M23.1637 19.7742C22.0973 18.5622 20.3192 18.2362 18.9832 19.346C17.6471 20.4558 17.459 22.3114 18.5082 23.624C19.5574 24.9366 23.1637 28.0001 23.1637 28.0001C23.1637 28.0001 26.7699 24.9366 27.8191 23.624C28.8683 22.3114 28.7032 20.4442 27.3442 19.346C25.9852 18.2479 24.23 18.5622 23.1637 19.7742Z" stroke="black" stroke-width="2" stroke-linecap="round" stroke-linejoin="round"/>
</svg>
