<svg width="48" height="48" viewBox="0 0 48 48" fill="none" xmlns="http://www.w3.org/2000/svg">
<g clip-path="url(#clip0_989_37887)">
<path d="M21.5156 44.0859C21.3594 44.6797 21.2422 45.2812 21.1641 45.8906C21.0859 46.5 21.0312 47.125 21 47.7656C19 47.5312 17.0938 47.0625 15.2812 46.3594C13.4688 45.6562 11.7891 44.7578 10.2422 43.6641C8.69531 42.5703 7.28906 41.3047 6.02344 39.8672C4.75781 38.4297 3.67969 36.8672 2.78906 35.1797C1.89844 33.4922 1.21094 31.7109 0.726562 29.8359C0.242188 27.9609 0 26.0156 0 24C0 21.7969 0.28125 19.6719 0.84375 17.625C1.40625 15.5781 2.21094 13.6641 3.25781 11.8828C4.30469 10.1016 5.55469 8.48438 7.00781 7.03125C8.46094 5.57812 10.0859 4.32812 11.8828 3.28125C13.6797 2.23438 15.5859 1.42969 17.6016 0.867188C19.6172 0.304688 21.75 0.015625 24 0C26.2031 0 28.3203 0.28125 30.3516 0.84375C32.3828 1.40625 34.2969 2.21875 36.0938 3.28125C37.8906 4.34375 39.5078 5.59375 40.9453 7.03125C42.3828 8.46875 43.6406 10.0938 44.7188 11.9062C45.7969 13.7188 46.6016 15.625 47.1328 17.625C47.6641 19.625 47.9531 21.75 48 24H46.3359C46.1172 23.6406 45.8906 23.2891 45.6562 22.9453C45.4219 22.6016 45.1484 22.2734 44.8359 21.9609C44.7422 20.6016 44.5 19.2812 44.1094 18H15.3984C15.2734 19 15.1797 19.9922 15.1172 20.9766C15.0547 21.9609 15.0156 22.9688 15 24C15 25.0156 15.0312 26.0156 15.0938 27C15.1562 27.9844 15.2578 28.9844 15.3984 30H24C24 30.5 24.0391 31 24.1172 31.5C24.1953 32 24.2969 32.5 24.4219 33H15.9141C16.1016 33.8906 16.3516 34.8672 16.6641 35.9297C16.9766 36.9922 17.3672 38.0312 17.8359 39.0469C18.3047 40.0625 18.8438 41.0156 19.4531 41.9062C20.0625 42.7969 20.75 43.5234 21.5156 44.0859ZM42.9609 15C42.3516 13.7344 41.6328 12.5469 40.8047 11.4375C39.9766 10.3281 39.0391 9.3125 37.9922 8.39062C36.9453 7.46875 35.8359 6.64844 34.6641 5.92969C33.4922 5.21094 32.2266 4.625 30.8672 4.17188C31.4297 4.95312 31.9297 5.78125 32.3672 6.65625C32.8047 7.53125 33.2031 8.42969 33.5625 9.35156C33.9219 10.2734 34.2266 11.2109 34.4766 12.1641C34.7266 13.1172 34.9453 14.0625 35.1328 15H42.9609ZM24 3C23.2188 3 22.5 3.21094 21.8438 3.63281C21.1875 4.05469 20.5781 4.60938 20.0156 5.29688C19.4531 5.98438 18.9531 6.75781 18.5156 7.61719C18.0781 8.47656 17.6797 9.35938 17.3203 10.2656C16.9609 11.1719 16.6719 12.0312 16.4531 12.8438C16.2344 13.6562 16.0547 14.375 15.9141 15H32.0859C31.9609 14.3906 31.7812 13.6719 31.5469 12.8438C31.3125 12.0156 31.0234 11.1562 30.6797 10.2656C30.3359 9.375 29.9453 8.5 29.5078 7.64062C29.0703 6.78125 28.5703 6 28.0078 5.29688C27.4453 4.59375 26.8281 4.03906 26.1562 3.63281C25.4844 3.22656 24.7656 3.01562 24 3ZM17.1562 4.14844C15.8281 4.60156 14.5625 5.17969 13.3594 5.88281C12.1562 6.58594 11.0391 7.40625 10.0078 8.34375C8.97656 9.28125 8.03906 10.3047 7.19531 11.4141C6.35156 12.5234 5.63281 13.7188 5.03906 15H12.8672C13.0391 14.1406 13.25 13.2266 13.5 12.2578C13.75 11.2891 14.0625 10.3203 14.4375 9.35156C14.8125 8.38281 15.2188 7.45312 15.6562 6.5625C16.0938 5.67188 16.5938 4.86719 17.1562 4.14844ZM3 24C3 26.0781 3.28906 28.0781 3.86719 30H12.375C12.25 29 12.1562 28.0078 12.0938 27.0234C12.0312 26.0391 12 25.0312 12 24C12 22.9844 12.0312 21.9844 12.0938 21C12.1562 20.0156 12.25 19.0156 12.375 18H3.86719C3.28906 19.9219 3 21.9219 3 24ZM4.99219 33C5.60156 34.2656 6.32031 35.4531 7.14844 36.5625C7.97656 37.6719 8.91406 38.6953 9.96094 39.6328C11.0078 40.5703 12.1328 41.3828 13.3359 42.0703C14.5391 42.7578 15.8047 43.3438 17.1328 43.8281C16.5703 43.0469 16.0703 42.2188 15.6328 41.3438C15.1953 40.4688 14.7969 39.5703 14.4375 38.6484C14.0781 37.7266 13.7734 36.7891 13.5234 35.8359C13.2734 34.8828 13.0469 33.9375 12.8438 33H4.99219ZM41.2969 37.2422C42.3125 37.7578 43.2344 38.3906 44.0625 39.1406C44.8906 39.8906 45.5938 40.7344 46.1719 41.6719C46.75 42.6094 47.2031 43.6094 47.5312 44.6719C47.8594 45.7344 48.0156 46.8438 48 48H45C45 46.7656 44.7656 45.6016 44.2969 44.5078C43.8281 43.4141 43.1875 42.4609 42.375 41.6484C41.5625 40.8359 40.6016 40.1875 39.4922 39.7031C38.3828 39.2188 37.2188 38.9844 36 39C34.75 39 33.5859 39.2344 32.5078 39.7031C31.4297 40.1719 30.4766 40.8125 29.6484 41.625C28.8203 42.4375 28.1719 43.3984 27.7031 44.5078C27.2344 45.6172 27 46.7812 27 48H24C24 46.8594 24.1562 45.7578 24.4688 44.6953C24.7812 43.6328 25.2266 42.625 25.8047 41.6719C26.3828 40.7188 27.0859 39.875 27.9141 39.1406C28.7422 38.4062 29.6641 37.7734 30.6797 37.2422C29.5078 36.3984 28.6016 35.3438 27.9609 34.0781C27.3203 32.8125 27 31.4531 27 30C27 28.7656 27.2344 27.6016 27.7031 26.5078C28.1719 25.4141 28.8125 24.4609 29.625 23.6484C30.4375 22.8359 31.3906 22.1875 32.4844 21.7031C33.5781 21.2188 34.75 20.9844 36 21C37.2344 21 38.3984 21.2344 39.4922 21.7031C40.5859 22.1719 41.5391 22.8125 42.3516 23.625C43.1641 24.4375 43.8125 25.3984 44.2969 26.5078C44.7812 27.6172 45.0156 28.7812 45 30C45 31.4375 44.6797 32.7891 44.0391 34.0547C43.3984 35.3203 42.4844 36.3828 41.2969 37.2422ZM36 36C36.8281 36 37.6016 35.8438 38.3203 35.5312C39.0391 35.2188 39.6797 34.7891 40.2422 34.2422C40.8047 33.6953 41.2344 33.0625 41.5312 32.3438C41.8281 31.625 41.9844 30.8438 42 30C42 29.1719 41.8438 28.3984 41.5312 27.6797C41.2188 26.9609 40.7891 26.3203 40.2422 25.7578C39.6953 25.1953 39.0625 24.7656 38.3438 24.4688C37.625 24.1719 36.8438 24.0156 36 24C35.1719 24 34.3984 24.1562 33.6797 24.4688C32.9609 24.7812 32.3203 25.2109 31.7578 25.7578C31.1953 26.3047 30.7656 26.9375 30.4688 27.6562C30.1719 28.375 30.0156 29.1562 30 30C30 30.8281 30.1562 31.6016 30.4688 32.3203C30.7812 33.0391 31.2109 33.6797 31.7578 34.2422C32.3047 34.8047 32.9375 35.2344 33.6562 35.5312C34.375 35.8281 35.1562 35.9844 36 36Z" fill="#454545"/>
</g>
<defs>
<clipPath id="clip0_989_37887">
<rect width="48" height="48" fill="white"/>
</clipPath>
</defs>
</svg>
