<svg width="33" height="32" viewBox="0 0 33 32" fill="none" xmlns="http://www.w3.org/2000/svg">
<path d="M16.4993 9.33341H10.4993C9.61529 9.33341 8.76745 8.98223 8.14233 8.3571C7.51721 7.73198 7.16602 6.88414 7.16602 6.00008C7.16602 5.11603 7.51721 4.26818 8.14233 3.64306C8.76745 3.01794 9.61529 2.66675 10.4993 2.66675C15.166 2.66675 16.4993 9.33341 16.4993 9.33341ZM16.4993 9.33341H22.4993C23.3834 9.33341 24.2313 8.98223 24.8564 8.3571C25.4815 7.73198 25.8327 6.88414 25.8327 6.00008C25.8327 5.11603 25.4815 4.26818 24.8564 3.64306C24.2313 3.01794 23.3834 2.66675 22.4993 2.66675C17.8327 2.66675 16.4993 9.33341 16.4993 9.33341ZM16.4993 9.33341L16.4994 29.3334M3.16602 18.6667H29.8327M3.16602 13.6001L3.16602 25.0667C3.16602 26.5602 3.16602 27.307 3.45666 27.8774C3.71233 28.3792 4.12028 28.7871 4.62204 29.0428C5.19247 29.3334 5.93921 29.3334 7.43268 29.3334L25.566 29.3334C27.0595 29.3334 27.8062 29.3334 28.3767 29.0428C28.8784 28.7871 29.2864 28.3792 29.542 27.8774C29.8327 27.307 29.8327 26.5602 29.8327 25.0667V13.6001C29.8327 12.1066 29.8327 11.3599 29.542 10.7894C29.2864 10.2877 28.8784 9.87973 28.3767 9.62407C27.8062 9.33342 27.0595 9.33342 25.566 9.33342L7.43268 9.33342C5.93921 9.33342 5.19247 9.33342 4.62204 9.62406C4.12028 9.87973 3.71233 10.2877 3.45667 10.7894C3.16602 11.3599 3.16602 12.1066 3.16602 13.6001Z" stroke="black" stroke-width="2" stroke-linecap="round" stroke-linejoin="round"/>
</svg>
