<svg width="48" height="43" viewBox="0 0 48 43" fill="none" xmlns="http://www.w3.org/2000/svg">
<path d="M41.9531 34.7419C43.4844 35.4919 44.75 36.5466 45.75 37.906C46.75 39.2654 47.3828 40.7966 47.6484 42.4998H45.0703C44.8984 41.6091 44.5781 40.781 44.1094 40.0154C43.6406 39.2498 43.0703 38.5935 42.3984 38.0466C41.7266 37.4998 40.9688 37.0623 40.125 36.7341C39.2812 36.406 38.4062 36.2498 37.5 36.2654C36.5781 36.2654 35.7031 36.4216 34.875 36.7341C34.0469 37.0466 33.2891 37.4763 32.6016 38.0232C31.9141 38.5701 31.3438 39.2341 30.8906 40.0154C30.4375 40.7966 30.1172 41.6248 29.9297 42.4998H27.3516C27.6016 40.8123 28.2266 39.2888 29.2266 37.9294C30.2266 36.5701 31.5 35.5076 33.0469 34.7419C32.1562 34.0388 31.4688 33.1873 30.9844 32.1873C30.5 31.1873 30.25 30.1248 30.2344 28.9998C30.2344 28.2966 30.3281 27.6169 30.5156 26.9607C30.7031 26.3044 30.9844 25.6873 31.3594 25.1091C31.7344 24.531 32.1797 24.0154 32.6953 23.5623C33.2109 23.1091 33.7891 22.7263 34.4297 22.4138C34.0078 21.8044 33.5234 21.2654 32.9766 20.7966C32.4297 20.3279 31.8359 19.9138 31.1953 19.5544C30.5547 19.1951 29.8828 18.9373 29.1797 18.781C28.4766 18.6248 27.75 18.531 27 18.4998C25.75 18.4998 24.5547 18.7419 23.4141 19.2263C22.2734 19.7107 21.2812 20.4216 20.4375 21.3591C20.8125 22.3748 21 23.4216 21 24.4998C21 25.9373 20.6797 27.2888 20.0391 28.5544C19.3984 29.8201 18.5 30.8826 17.3438 31.7419C18.3594 32.2576 19.2734 32.8904 20.0859 33.6404C20.8984 34.3904 21.6016 35.2341 22.1953 36.1716C22.7891 37.1091 23.2344 38.1091 23.5312 39.1716C23.8281 40.2341 23.9844 41.3435 24 42.4998H21C21 41.2654 20.7656 40.1013 20.2969 39.0076C19.8281 37.9138 19.1875 36.9607 18.375 36.1482C17.5625 35.3357 16.6016 34.6873 15.4922 34.2029C14.3828 33.7185 13.2188 33.4841 12 33.4998C10.75 33.4998 9.58594 33.7341 8.50781 34.2029C7.42969 34.6716 6.47656 35.3123 5.64844 36.1248C4.82031 36.9373 4.17188 37.8982 3.70312 39.0076C3.23438 40.1169 3 41.281 3 42.4998H0C0 41.3591 0.15625 40.2576 0.46875 39.1951C0.78125 38.1326 1.22656 37.1326 1.80469 36.1951C2.38281 35.2576 3.07812 34.4138 3.89062 33.6638C4.70312 32.9138 5.625 32.2732 6.65625 31.7419C5.5 30.8826 4.60156 29.8201 3.96094 28.5544C3.32031 27.2888 3 25.9373 3 24.4998C3 23.2654 3.23438 22.1013 3.70312 21.0076C4.17188 19.9138 4.8125 18.9607 5.625 18.1482C6.4375 17.3357 7.39062 16.6873 8.48438 16.2029C9.57812 15.7185 10.75 15.4841 12 15.4998C13.3281 15.4998 14.5859 15.781 15.7734 16.3435C16.9609 16.906 17.9922 17.6873 18.8672 18.6873C19.2734 18.2966 19.7109 17.9451 20.1797 17.6326C20.6484 17.3201 21.1406 17.0232 21.6562 16.7419C20.5 15.8826 19.6016 14.8201 18.9609 13.5544C18.3203 12.2888 18 10.9373 18 9.49976C18 8.26538 18.2344 7.10132 18.7031 6.00757C19.1719 4.91382 19.8125 3.96069 20.625 3.14819C21.4375 2.33569 22.3906 1.68726 23.4844 1.20288C24.5781 0.718506 25.75 0.484131 27 0.499756C28.2344 0.499756 29.3984 0.734131 30.4922 1.20288C31.5859 1.67163 32.5391 2.31226 33.3516 3.12476C34.1641 3.93726 34.8125 4.89819 35.2969 6.00757C35.7812 7.11694 36.0156 8.28101 36 9.49976C36 10.9373 35.6797 12.2888 35.0391 13.5544C34.3984 14.8201 33.5 15.8826 32.3438 16.7419C33.4375 17.3201 34.4219 18.0232 35.2969 18.8513C36.1719 19.6794 36.9141 20.6404 37.5234 21.7341C38.5234 21.7341 39.4609 21.9216 40.3359 22.2966C41.2109 22.6716 41.9844 23.1951 42.6562 23.8669C43.3281 24.5388 43.8438 25.3044 44.2031 26.1638C44.5625 27.0232 44.75 27.9685 44.7656 28.9998C44.7656 30.1248 44.5234 31.1873 44.0391 32.1873C43.5547 33.1873 42.8594 34.0388 41.9531 34.7419ZM12 30.4998C12.8281 30.4998 13.6016 30.3435 14.3203 30.031C15.0391 29.7185 15.6797 29.2888 16.2422 28.7419C16.8047 28.1951 17.2344 27.5623 17.5312 26.8435C17.8281 26.1248 17.9844 25.3435 18 24.4998C18 23.6716 17.8438 22.8982 17.5312 22.1794C17.2188 21.4607 16.7891 20.8201 16.2422 20.2576C15.6953 19.6951 15.0625 19.2654 14.3438 18.9685C13.625 18.6716 12.8438 18.5154 12 18.4998C11.1719 18.4998 10.3984 18.656 9.67969 18.9685C8.96094 19.281 8.32031 19.7107 7.75781 20.2576C7.19531 20.8044 6.76562 21.4373 6.46875 22.156C6.17188 22.8748 6.01562 23.656 6 24.4998C6 25.3279 6.15625 26.1013 6.46875 26.8201C6.78125 27.5388 7.21094 28.1794 7.75781 28.7419C8.30469 29.3044 8.9375 29.7341 9.65625 30.031C10.375 30.3279 11.1562 30.4841 12 30.4998ZM21 9.49976C21 10.3279 21.1562 11.1013 21.4688 11.8201C21.7812 12.5388 22.2109 13.1794 22.7578 13.7419C23.3047 14.3044 23.9375 14.7341 24.6562 15.031C25.375 15.3279 26.1562 15.4841 27 15.4998C27.8281 15.4998 28.6016 15.3435 29.3203 15.031C30.0391 14.7185 30.6797 14.2888 31.2422 13.7419C31.8047 13.1951 32.2344 12.5623 32.5312 11.8435C32.8281 11.1248 32.9844 10.3435 33 9.49976C33 8.67163 32.8438 7.89819 32.5312 7.17944C32.2188 6.46069 31.7891 5.82007 31.2422 5.25757C30.6953 4.69507 30.0625 4.26538 29.3438 3.96851C28.625 3.67163 27.8438 3.51538 27 3.49976C26.1719 3.49976 25.3984 3.65601 24.6797 3.96851C23.9609 4.28101 23.3203 4.71069 22.7578 5.25757C22.1953 5.80444 21.7656 6.43726 21.4688 7.15601C21.1719 7.87476 21.0156 8.65601 21 9.49976ZM37.5 24.2654C36.8438 24.2654 36.2344 24.3904 35.6719 24.6404C35.1094 24.8904 34.6094 25.2263 34.1719 25.6482C33.7344 26.0701 33.3906 26.5701 33.1406 27.1482C32.8906 27.7263 32.7656 28.3435 32.7656 28.9998C32.7656 29.656 32.8906 30.2654 33.1406 30.8279C33.3906 31.3904 33.7266 31.8904 34.1484 32.3279C34.5703 32.7654 35.0703 33.1091 35.6484 33.3591C36.2266 33.6091 36.8438 33.7341 37.5 33.7341C38.1562 33.7341 38.7656 33.6091 39.3281 33.3591C39.8906 33.1091 40.3906 32.7732 40.8281 32.3513C41.2656 31.9294 41.6094 31.4294 41.8594 30.8513C42.1094 30.2732 42.2344 29.656 42.2344 28.9998C42.2344 28.3435 42.1094 27.7341 41.8594 27.1716C41.6094 26.6091 41.2734 26.1091 40.8516 25.6716C40.4297 25.2341 39.9297 24.8904 39.3516 24.6404C38.7734 24.3904 38.1562 24.2654 37.5 24.2654Z" fill="#454545"/>
</svg>
