<svg width="33" height="32" viewBox="0 0 33 32" fill="none" xmlns="http://www.w3.org/2000/svg">
<path fill-rule="evenodd" clip-rule="evenodd" d="M14 2.66675C13.4696 2.66675 12.9609 2.87746 12.5858 3.25253C12.2107 3.62761 12 4.13631 12 4.66675H10C9.46957 4.66675 8.96086 4.87746 8.58579 5.25253C8.21071 5.62761 8 6.13631 8 6.66675V25.3334C8 25.8638 8.21071 26.3726 8.58579 26.7476C8.96086 27.1227 9.46957 27.3334 10 27.3334H18V26.0001H10C9.82319 26.0001 9.65362 25.9298 9.5286 25.8048C9.40357 25.6798 9.33333 25.5102 9.33333 25.3334V6.66675C9.33333 6.48994 9.40357 6.32037 9.5286 6.19534C9.65362 6.07032 9.82319 6.00008 10 6.00008H12C12 6.53051 12.2107 7.03922 12.5858 7.41429C12.9609 7.78937 13.4696 8.00008 14 8.00008H19.3333C19.8638 8.00008 20.3725 7.78937 20.7475 7.41429C21.1226 7.03922 21.3333 6.53051 21.3333 6.00008H23.3333C23.5101 6.00008 23.6797 6.07032 23.8047 6.19534C23.9298 6.32037 24 6.48994 24 6.66675V16.6667H25.3333V6.66675C25.3333 6.13631 25.1226 5.62761 24.7475 5.25253C24.3725 4.87746 23.8638 4.66675 23.3333 4.66675H21.3333C21.3333 4.13631 21.1226 3.62761 20.7475 3.25253C20.3725 2.87746 19.8638 2.66675 19.3333 2.66675H14ZM13.3333 4.66675C13.3333 4.48994 13.4036 4.32037 13.5286 4.19534C13.6536 4.07032 13.8232 4.00008 14 4.00008H19.3333C19.5101 4.00008 19.6797 4.07032 19.8047 4.19534C19.9298 4.32037 20 4.48994 20 4.66675V6.00008C20 6.17689 19.9298 6.34646 19.8047 6.47149C19.6797 6.59651 19.5101 6.66675 19.3333 6.66675H14C13.8232 6.66675 13.6536 6.59651 13.5286 6.47149C13.4036 6.34646 13.3333 6.17689 13.3333 6.00008V4.66675ZM16 12.6667V10.6667H17.3333V12.6667H19.3333V14.0001H17.3333V16.0001H16V14.0001H14V12.6667H16ZM18.6667 18.6667C18.6667 18.4899 18.7369 18.3204 18.8619 18.1953C18.987 18.0703 19.1565 18.0001 19.3333 18.0001H27.3333C27.5101 18.0001 27.6797 18.0703 27.8047 18.1953C27.9298 18.3204 28 18.4899 28 18.6667V23.1927C28 23.961 27.8103 24.7173 27.4478 25.3946C27.0853 26.0719 26.5612 26.6493 25.922 27.0754L23.7033 28.5554C23.5938 28.6285 23.465 28.6675 23.3333 28.6675C23.2016 28.6675 23.0729 28.6285 22.9633 28.5554L20.7447 27.0754C20.1056 26.6493 19.5815 26.0721 19.219 25.3949C18.8565 24.7177 18.6668 23.9615 18.6667 23.1934V18.6667ZM20 19.3334V23.1927C20.0001 23.7415 20.1356 24.2818 20.3946 24.7656C20.6536 25.2494 21.028 25.6617 21.4847 25.9661L23.3333 27.2001L25.182 25.9667C25.6386 25.6624 26.0131 25.25 26.2721 24.7662C26.5311 24.2824 26.6666 23.7422 26.6667 23.1934V19.3334H20ZM23.138 24.4714L25.8047 21.8047L24.862 20.8621L22.6667 23.0574L21.8047 22.1954L20.862 23.1381L22.1953 24.4714C22.3204 24.5964 22.4899 24.6666 22.6667 24.6666C22.8434 24.6666 23.013 24.5964 23.138 24.4714Z" fill="#262626"/>
</svg>
