<svg width="25" height="25" viewBox="0 0 25 25" fill="none" xmlns="http://www.w3.org/2000/svg">
<path d="M8.05836 2.96863C8.23131 2.79568 8.31779 2.7092 8.41871 2.64736C8.50818 2.59253 8.60572 2.55213 8.70776 2.52763C8.82285 2.5 8.94514 2.5 9.18973 2.5H16.1442C16.3888 2.5 16.5111 2.5 16.6262 2.52763C16.7283 2.55213 16.8258 2.59253 16.9153 2.64736C17.0162 2.7092 17.1027 2.79568 17.2756 2.96863L22.1984 7.89137C22.3713 8.06432 22.4578 8.1508 22.5196 8.25172C22.5745 8.34119 22.6149 8.43873 22.6394 8.54077C22.667 8.65586 22.667 8.77815 22.667 9.02274V15.9773C22.667 16.2218 22.667 16.3441 22.6394 16.4592C22.6149 16.5613 22.5745 16.6588 22.5196 16.7483C22.4578 16.8492 22.3713 16.9357 22.1984 17.1086L17.2756 22.0314C17.1027 22.2043 17.0162 22.2908 16.9153 22.3526C16.8258 22.4075 16.7283 22.4479 16.6262 22.4724C16.5111 22.5 16.3888 22.5 16.1442 22.5H9.18973C8.94514 22.5 8.82285 22.5 8.70776 22.4724C8.60572 22.4479 8.50818 22.4075 8.41871 22.3526C8.31779 22.2908 8.23131 22.2043 8.05836 22.0314L3.13562 17.1086C2.96267 16.9357 2.87619 16.8492 2.81435 16.7483C2.75952 16.6588 2.71912 16.5613 2.69462 16.4592C2.66699 16.3441 2.66699 16.2218 2.66699 15.9773V9.02274C2.66699 8.77815 2.66699 8.65586 2.69462 8.54077C2.71912 8.43873 2.75952 8.34119 2.81435 8.25172C2.87619 8.1508 2.96267 8.06432 3.13562 7.89137L8.05836 2.96863Z" stroke="#344054" stroke-width="2" stroke-linecap="round" stroke-linejoin="round"/>
<path fill-rule="evenodd" clip-rule="evenodd" d="M12.6636 9.56791C11.6639 8.3992 9.99686 8.08482 8.74434 9.15501C7.49181 10.2252 7.31548 12.0145 8.29909 13.2802C8.9291 14.0909 10.5426 15.5942 11.6212 16.5704C11.9797 16.8947 12.1589 17.0569 12.3736 17.122C12.5581 17.1779 12.769 17.1779 12.9536 17.122C13.1682 17.0569 13.3475 16.8947 13.7059 16.5704C14.7846 15.5942 16.398 14.0909 17.028 13.2802C18.0117 12.0145 17.8568 10.2139 16.5828 9.15501C15.3087 8.09608 13.6632 8.3992 12.6636 9.56791Z" stroke="#344054" stroke-width="2" stroke-linecap="round" stroke-linejoin="round"/>
</svg>
