<svg width="33" height="32" viewBox="0 0 33 32" fill="none" xmlns="http://www.w3.org/2000/svg">
<path d="M11.3347 18.6666C11.9267 20.9669 14.0149 22.6666 16.5 22.6666C18.9851 22.6666 21.0733 20.9669 21.6653 18.6666M15.1903 3.68533L6.14719 10.7188C5.54269 11.189 5.24045 11.4241 5.0227 11.7185C4.82982 11.9793 4.68614 12.273 4.5987 12.5854C4.5 12.938 4.5 13.3209 4.5 14.0867V23.7333C4.5 25.2268 4.5 25.9735 4.79065 26.544C5.04631 27.0457 5.45426 27.4537 5.95603 27.7093C6.52646 28 7.27319 28 8.76667 28H24.2333C25.7268 28 26.4735 28 27.044 27.7093C27.5457 27.4537 27.9537 27.0457 28.2094 26.544C28.5 25.9735 28.5 25.2268 28.5 23.7333V14.0867C28.5 13.3209 28.5 12.938 28.4013 12.5854C28.3139 12.273 28.1702 11.9793 27.9773 11.7185C27.7596 11.4241 27.4573 11.189 26.8528 10.7188L17.8097 3.68533C17.3413 3.32099 17.1071 3.13883 16.8485 3.0688C16.6203 3.00701 16.3797 3.00701 16.1515 3.0688C15.8929 3.13883 15.6587 3.32099 15.1903 3.68533Z" stroke="black" stroke-width="2" stroke-linecap="round" stroke-linejoin="round"/>
</svg>
