<svg width="33" height="32" viewBox="0 0 33 32" fill="none" xmlns="http://www.w3.org/2000/svg">
<path fill-rule="evenodd" clip-rule="evenodd" d="M22.3333 5V7.25333L25 9.38667V5H22.3333ZM27 10.9867V4.66667C27 3.74667 26.2533 3 25.3333 3H22C21.08 3 20.3333 3.74667 20.3333 4.66667V5.65333L19.7906 5.21867C18.904 4.50915 17.8022 4.12259 16.6666 4.12259C15.531 4.12259 14.4293 4.50915 13.5426 5.21867L2.7093 13.8853C2.50208 14.051 2.36915 14.2922 2.33977 14.5559C2.31039 14.8196 2.38696 15.0841 2.55263 15.2913C2.7183 15.4986 2.95951 15.6315 3.22318 15.6609C3.48686 15.6902 3.75141 15.6137 3.95863 15.448L4.99996 14.6133V28.3333H3.3333C3.06808 28.3333 2.81373 28.4387 2.62619 28.6262C2.43865 28.8138 2.3333 29.0681 2.3333 29.3333C2.3333 29.5986 2.43865 29.8529 2.62619 30.0404C2.81373 30.228 3.06808 30.3333 3.3333 30.3333H30C30.2652 30.3333 30.5195 30.228 30.7071 30.0404C30.8946 29.8529 31 29.5986 31 29.3333C31 29.0681 30.8946 28.8138 30.7071 28.6262C30.5195 28.4387 30.2652 28.3333 30 28.3333H28.3333V14.6133L29.376 15.448C29.5835 15.6098 29.8465 15.6832 30.1078 15.6523C30.3692 15.6215 30.6078 15.4889 30.772 15.2833C30.9363 15.0776 31.0128 14.8156 30.9851 14.5539C30.9574 14.2922 30.8276 14.052 30.624 13.8853L27 10.9867ZM26.3333 13.0133L18.5413 6.78C18.0093 6.35416 17.3481 6.12214 16.6666 6.12214C15.9852 6.12214 15.324 6.35416 14.792 6.78L6.99996 13.0133V28.3333H11.6666V22.6C11.6666 21.7147 11.6666 20.9507 11.7493 20.3387C11.8373 19.6827 12.036 19.0547 12.5453 18.5453C13.0546 18.036 13.684 17.8373 14.3386 17.7493C14.9506 17.6667 15.7146 17.6667 16.6013 17.6667H16.732C17.6186 17.6667 18.3826 17.6667 18.9946 17.7493C19.6506 17.8373 20.2786 18.036 20.788 18.5453C21.2973 19.0547 21.496 19.6827 21.584 20.3387C21.6666 20.9507 21.6666 21.7147 21.6666 22.6013V28.3333H26.3333V13.0133ZM19.6666 28.3333V22.6667C19.6666 21.696 19.664 21.0667 19.6026 20.6053C19.544 20.172 19.4506 20.036 19.3733 19.96C19.296 19.884 19.1613 19.7893 18.728 19.7307C18.2653 19.6693 17.6373 19.6667 16.6666 19.6667C15.696 19.6667 15.0666 19.6693 14.6053 19.7307C14.172 19.7893 14.036 19.884 13.96 19.96C13.884 20.036 13.7893 20.172 13.7306 20.6053C13.6693 21.068 13.6666 21.696 13.6666 22.6667V28.3333H19.6666ZM16.6666 11C16.4478 11 16.231 11.0431 16.0288 11.1269C15.8266 11.2106 15.6429 11.3334 15.4881 11.4882C15.3334 11.6429 15.2106 11.8267 15.1268 12.0289C15.0431 12.2311 15 12.4478 15 12.6667C15 12.8855 15.0431 13.1023 15.1268 13.3045C15.2106 13.5067 15.3334 13.6904 15.4881 13.8452C15.6429 13.9999 15.8266 14.1227 16.0288 14.2065C16.231 14.2902 16.4478 14.3333 16.6666 14.3333C17.1087 14.3333 17.5326 14.1577 17.8451 13.8452C18.1577 13.5326 18.3333 13.1087 18.3333 12.6667C18.3333 12.2246 18.1577 11.8007 17.8451 11.4882C17.5326 11.1756 17.1087 11 16.6666 11ZM13 12.6667C13 11.6942 13.3863 10.7616 14.0739 10.0739C14.7615 9.38631 15.6942 9 16.6666 9C17.6391 9 18.5717 9.38631 19.2594 10.0739C19.947 10.7616 20.3333 11.6942 20.3333 12.6667C20.3333 13.6391 19.947 14.5718 19.2594 15.2594C18.5717 15.947 17.6391 16.3333 16.6666 16.3333C15.6942 16.3333 14.7615 15.947 14.0739 15.2594C13.3863 14.5718 13 13.6391 13 12.6667Z" fill="#262626"/>
</svg>
