<svg width="25" height="24" viewBox="0 0 25 24" fill="none" xmlns="http://www.w3.org/2000/svg">
<path d="M7 9H6M11 9H10M7 6H6M11 6H10M19 15H18M19 11H18M14.5 8V22H18.5C20.386 22 21.328 22 21.914 21.414C22.5 20.828 22.5 19.886 22.5 18V12C22.5 10.114 22.5 9.172 21.914 8.586C21.328 8 20.386 8 18.5 8H14.5ZM14.5 8C14.5 5.172 14.5 3.757 13.621 2.879C12.743 2 11.328 2 8.5 2C5.672 2 4.257 2 3.379 2.879C2.5 3.757 2.5 5.172 2.5 8V10M8.525 13.955C8.53082 14.2213 8.48337 14.4862 8.38544 14.7339C8.28751 14.9817 8.14107 15.2074 7.95471 15.3977C7.76836 15.5881 7.54584 15.7393 7.30024 15.8425C7.05463 15.9457 6.79088 15.9988 6.52448 15.9987C6.25807 15.9986 5.99438 15.9452 5.74887 15.8418C5.50337 15.7383 5.28101 15.5869 5.09485 15.3963C4.90868 15.2057 4.76246 14.9799 4.66478 14.7321C4.56709 14.4842 4.51991 14.2193 4.526 13.953C4.53795 13.4304 4.75399 12.9333 5.12788 12.5681C5.50176 12.2028 6.00379 11.9984 6.52648 11.9987C7.04917 11.999 7.55099 12.2038 7.92451 12.5695C8.29803 12.9351 8.51358 13.4324 8.525 13.955ZM2.57 20.21C3.628 18.582 5.309 17.972 6.525 17.973C7.741 17.974 9.372 18.582 10.431 20.21C10.499 20.315 10.518 20.445 10.456 20.554C10.209 20.993 9.44 21.864 8.886 21.922C8.247 21.99 6.579 22 6.526 22C6.473 22 4.753 21.99 4.116 21.922C3.56 21.863 2.792 20.993 2.544 20.554C2.51618 20.4998 2.50388 20.439 2.50847 20.3783C2.51306 20.3176 2.53435 20.2594 2.57 20.21Z" stroke="#454545" stroke-width="1.5" stroke-linecap="round" stroke-linejoin="round"/>
</svg>
