<svg width="33" height="32" viewBox="0 0 33 32" fill="none" xmlns="http://www.w3.org/2000/svg">
<path d="M21.4987 6.66675L24.1654 9.33341L29.4987 4.00008M29.4987 16.0001V22.9334C29.4987 25.1736 29.4987 26.2937 29.0627 27.1494C28.6792 27.902 28.0673 28.5139 27.3147 28.8974C26.459 29.3334 25.3389 29.3334 23.0987 29.3334H9.23203C6.99182 29.3334 5.87172 29.3334 5.01607 28.8974C4.26342 28.5139 3.6515 27.902 3.26801 27.1494C2.83203 26.2937 2.83203 25.1736 2.83203 22.9334V9.06675C2.83203 6.82654 2.83203 5.70643 3.26801 4.85079C3.6515 4.09814 4.26342 3.48622 5.01607 3.10272C5.87172 2.66675 6.99182 2.66675 9.23203 2.66675H16.1654M3.02604 26.5685C3.65157 24.3182 5.71545 22.6667 8.16506 22.6667H17.4984C18.7375 22.6667 19.357 22.6667 19.8722 22.7692C21.9879 23.1901 23.6417 24.8439 24.0626 26.9596C24.1651 27.4748 24.1651 28.0943 24.1651 29.3334M18.832 12.6667C18.832 15.6123 16.4442 18.0001 13.4987 18.0001C10.5532 18.0001 8.16536 15.6123 8.16536 12.6667C8.16536 9.72123 10.5532 7.33341 13.4987 7.33341C16.4442 7.33341 18.832 9.72123 18.832 12.6667Z" stroke="black" stroke-width="2" stroke-linecap="round" stroke-linejoin="round"/>
</svg>
