<svg width="24" height="25" viewBox="0 0 24 25" fill="none" xmlns="http://www.w3.org/2000/svg">
<path d="M2.02344 12.5C2.02344 6.99007 6.49012 2.52344 12 2.52344C17.5099 2.52344 21.9766 6.99007 21.9766 12.5C21.9766 18.0099 17.5099 22.4766 12 22.4766C6.49012 22.4766 2.02344 18.0099 2.02344 12.5ZM3.97658 12.5C3.97658 16.9241 7.57587 20.5234 12 20.5234C16.4242 20.5234 20.0234 16.9241 20.0234 12.5C20.0234 8.07582 16.4242 4.47658 12 4.47658C7.57582 4.47658 3.97658 8.07582 3.97658 12.5ZM13.2288 8.5C13.2288 9.21218 12.7113 9.72658 12.0102 9.72658C11.6443 9.72658 11.336 9.59744 11.1192 9.37866C10.9023 9.15985 10.7756 8.85 10.7756 8.48612C10.7756 7.78922 11.2937 7.27347 12.0102 7.27347C12.7113 7.27347 13.2288 7.78884 13.2288 8.5ZM11.0256 11.5234H12.9787V17.4766H11.0256V11.5234Z" fill="white" stroke="#85532B" stroke-width="0.046875"/>
</svg>
