<svg width="33" height="32" viewBox="0 0 33 32" fill="none" xmlns="http://www.w3.org/2000/svg">
<path d="M12.7452 2.94675C13.3052 2.57341 14.0332 2.57341 14.5919 2.94675L19.5906 6.27475C20.9639 7.18941 20.3159 9.32808 18.6666 9.32808H18.3332V12.1974C18.8447 12.3933 19.2928 12.7255 19.6289 13.158C19.965 13.5905 20.1763 14.1067 20.2399 14.6507L21.6559 26.7281C21.6943 27.0552 21.663 27.3867 21.5641 27.7009C21.4652 28.0151 21.3008 28.3047 21.082 28.5508C20.8631 28.7969 20.5945 28.9939 20.2941 29.1288C19.9936 29.2637 19.6679 29.3334 19.3386 29.3334H8.00658C7.67722 29.3334 7.35158 29.2637 7.0511 29.1288C6.75063 28.9939 6.48211 28.7969 6.26321 28.5508C6.04431 28.3047 5.88 28.0151 5.78107 27.7009C5.68215 27.3867 5.65085 27.0552 5.68925 26.7281L7.10791 14.6507C7.17112 14.1093 7.38065 13.5953 7.71399 13.164C8.04734 12.7327 8.4919 12.4004 8.99991 12.2027V9.32941H8.66925C7.01858 9.32941 6.37191 7.18941 7.74525 6.27608L12.7452 2.94675ZM10.9999 12.0001H16.3332V9.32941H10.9999V12.0001ZM13.6679 4.73341L9.77325 7.32941H17.5666L13.6679 4.73341ZM21.9599 5.62675C21.7833 5.81631 21.6871 6.06704 21.6917 6.32611C21.6963 6.58518 21.8012 6.83236 21.9844 7.01558C22.1676 7.19879 22.4148 7.30374 22.6739 7.30831C22.933 7.31289 23.1837 7.21672 23.3732 7.04008L25.3732 5.04008C25.5499 4.85051 25.6461 4.59979 25.6415 4.34072C25.6369 4.08165 25.532 3.83447 25.3487 3.65125C25.1655 3.46803 24.9183 3.36309 24.6593 3.35851C24.4002 3.35394 24.1495 3.45011 23.9599 3.62675L21.9599 5.62675ZM21.9599 15.0401C21.8617 14.9485 21.7829 14.8381 21.7282 14.7155C21.6735 14.5928 21.6442 14.4604 21.6418 14.3261C21.6394 14.1918 21.6641 14.0585 21.7144 13.934C21.7647 13.8094 21.8396 13.6963 21.9345 13.6014C22.0295 13.5064 22.1426 13.4315 22.2671 13.3813C22.3916 13.331 22.525 13.3063 22.6593 13.3086C22.7935 13.311 22.926 13.3404 23.0486 13.395C23.1713 13.4497 23.2817 13.5285 23.3732 13.6267L25.3732 15.6267C25.4715 15.7183 25.5503 15.8287 25.605 15.9514C25.6596 16.074 25.689 16.2064 25.6914 16.3407C25.6937 16.475 25.669 16.6084 25.6187 16.7329C25.5684 16.8574 25.4936 16.9705 25.3986 17.0655C25.3037 17.1604 25.1906 17.2353 25.066 17.2856C24.9415 17.3359 24.8082 17.3606 24.6739 17.3582C24.5396 17.3558 24.4072 17.3264 24.2845 17.2718C24.1619 17.2171 24.0515 17.1383 23.9599 17.0401L21.9599 15.0401ZM22.6666 9.33341H27.3332C27.5985 9.33341 27.8528 9.43877 28.0404 9.62631C28.2279 9.81384 28.3332 10.0682 28.3332 10.3334C28.3332 10.5986 28.2279 10.853 28.0404 11.0405C27.8528 11.2281 27.5985 11.3334 27.3332 11.3334H22.6666C22.4014 11.3334 22.147 11.2281 21.9595 11.0405C21.7719 10.853 21.6666 10.5986 21.6666 10.3334C21.6666 10.0682 21.7719 9.81384 21.9595 9.62631C22.147 9.43877 22.4014 9.33341 22.6666 9.33341ZM7.77325 26.1467L7.67725 26.9601C7.67159 27.0069 7.67592 27.0543 7.68995 27.0993C7.70398 27.1443 7.7274 27.1858 7.75864 27.2211C7.78989 27.2564 7.82826 27.2846 7.87123 27.304C7.9142 27.3233 7.96079 27.3334 8.00791 27.3334H19.3399C19.387 27.3334 19.4336 27.3233 19.4766 27.304C19.5196 27.2846 19.5579 27.2564 19.5892 27.2211C19.6204 27.1858 19.6438 27.1443 19.6579 27.0993C19.6719 27.0543 19.6762 27.0069 19.6706 26.9601L19.1746 22.7254L7.77325 26.1467ZM18.9372 20.7081L18.4946 16.9294L8.50258 19.9267L8.02658 23.9814L18.9372 20.7081ZM18.2586 14.9121L18.2559 14.8841C18.2275 14.6406 18.1106 14.416 17.9275 14.2531C17.7443 14.0901 17.5077 14.0001 17.2626 14.0001H10.0892C9.84431 14 9.60786 14.0899 9.42477 14.2526C9.24167 14.4153 9.12465 14.6395 9.09591 14.8827L8.75725 17.7627L18.2586 14.9121Z" fill="#262626"/>
</svg>
