<svg width="42" height="37" viewBox="0 0 42 37" fill="none" xmlns="http://www.w3.org/2000/svg">
<path d="M24 29H21V26C20.9988 24.8069 20.5243 23.663 19.6807 22.8193C18.837 21.9757 17.6931 21.5012 16.5 21.5H10.5C9.30689 21.5012 8.16299 21.9757 7.31933 22.8193C6.47568 23.663 6.00119 24.8069 6 26V29H3V26C3.00238 24.0116 3.79332 22.1053 5.19933 20.6993C6.60534 19.2933 8.51161 18.5024 10.5 18.5H16.5C18.4884 18.5024 20.3947 19.2933 21.8007 20.6993C23.2067 22.1053 23.9976 24.0116 24 26V29ZM13.5 3.5C14.39 3.5 15.26 3.76392 16.0001 4.25839C16.7401 4.75285 17.3169 5.45566 17.6575 6.27792C17.9981 7.10019 18.0872 8.00499 17.9135 8.87791C17.7399 9.75082 17.3113 10.5526 16.682 11.182C16.0526 11.8113 15.2508 12.2399 14.3779 12.4135C13.505 12.5872 12.6002 12.4981 11.7779 12.1575C10.9557 11.8169 10.2529 11.2401 9.75839 10.5001C9.26392 9.76005 9 8.89002 9 8C9 6.80653 9.4741 5.66193 10.318 4.81802C11.1619 3.97411 12.3065 3.5 13.5 3.5ZM13.5 0.5C12.0166 0.5 10.5666 0.939867 9.33322 1.76398C8.09985 2.58809 7.13856 3.75943 6.5709 5.12987C6.00325 6.50032 5.85472 8.00832 6.14411 9.46318C6.4335 10.918 7.14781 12.2544 8.1967 13.3033C9.24559 14.3522 10.582 15.0665 12.0368 15.3559C13.4917 15.6453 14.9997 15.4968 16.3701 14.9291C17.7406 14.3614 18.9119 13.4001 19.736 12.1668C20.5601 10.9334 21 9.48336 21 8C21 6.01088 20.2098 4.10322 18.8033 2.6967C17.3968 1.29018 15.4891 0.5 13.5 0.5ZM0 33.5H42V36.5H0V33.5ZM37.9545 6.5C37.4208 6.49989 36.8926 6.60683 36.401 6.81449C35.9094 7.02216 35.4645 7.32633 35.0925 7.709L34.5 8.315L33.9075 7.7075C33.5356 7.32467 33.0907 7.02033 32.5991 6.81251C32.1075 6.6047 31.5792 6.49762 31.0455 6.49762C30.5118 6.49762 29.9835 6.6047 29.4919 6.81251C29.0003 7.02033 28.5554 7.32467 28.1835 7.7075C27.4247 8.49094 27.0004 9.53884 27.0004 10.6295C27.0004 11.7202 27.4247 12.7681 28.1835 13.5515L34.5 20L40.815 13.553C41.5738 12.7696 41.9981 11.7217 41.9981 10.631C41.9981 9.54034 41.5738 8.49244 40.815 7.709C40.4434 7.32669 39.9989 7.02273 39.5079 6.81507C39.0168 6.60742 38.4892 6.50029 37.956 6.5" fill="#454545"/>
</svg>
