<svg width="119" height="137" viewBox="0 0 119 137" fill="none" xmlns="http://www.w3.org/2000/svg">
<path d="M69.0252 18.1914L34.534 34.2777L39.253 44.4098L73.7582 28.3234L69.0252 18.1914Z" fill="#B6965A"/>
<path d="M54.6981 66.2021L44.344 71.0322L49.3479 81.7581L59.702 76.9281L54.6981 66.2021Z" fill="#B6965A"/>
<path d="M109.248 15.4707L86.1387 66.2003L89.9556 67.9213L113.065 17.2056L109.248 15.4707Z" fill="#B6965A"/>
<path d="M122.406 21.412L99.2826 72.1277L95.4657 70.4066L118.575 19.6909L122.406 21.412Z" fill="#B6965A"/>
<path d="M114.772 9.39111L111.552 16.5113L120.324 20.467L123.53 13.3468L114.772 9.39111Z" fill="white"/>
<path d="M53.5358 22.022C53.2708 21.5039 52.8592 21.0752 52.3523 20.7893C51.8454 20.5034 51.2657 20.373 50.6852 20.4142C50.1047 20.4554 49.5492 20.6665 49.0878 21.0212C48.6264 21.3758 48.2796 21.8584 48.0904 22.4087C47.9013 22.9591 47.8783 23.5529 48.0242 24.1162C48.1701 24.6796 48.4785 25.1876 48.9111 25.5769C49.3436 25.9662 49.8811 26.2197 50.4566 26.3058C51.0322 26.3919 51.6203 26.3067 52.1478 26.0609C52.5044 25.8872 52.8232 25.6448 53.086 25.3476C53.3489 25.0505 53.5505 24.7045 53.6794 24.3293C53.8083 23.9542 53.862 23.5573 53.8373 23.1614C53.8127 22.7654 53.7102 22.3783 53.5358 22.022Z" fill="white"/>
<path d="M16.0187 74.8612C15.9519 74.7224 15.8451 74.6067 15.7121 74.5289C15.5791 74.451 15.4259 74.4147 15.2721 74.4244C15.1572 74.431 15.0451 74.4631 14.944 74.5183C14.843 74.5735 14.7554 74.6505 14.6878 74.7437C14.6201 74.8368 14.574 74.9439 14.5527 75.0571C14.5315 75.1703 14.5357 75.2868 14.565 75.3982C14.6067 75.5601 14.6996 75.7042 14.8297 75.8092C14.9599 75.9142 15.1205 75.9744 15.2875 75.9808C15.4546 75.9873 15.6194 75.9397 15.7573 75.8452C15.8952 75.7506 15.9989 75.6141 16.053 75.4559C16.1205 75.2609 16.1082 75.0471 16.0187 74.8612Z" fill="white"/>
<path d="M90.011 79.0248L87.5682 80.8569L87.2629 77.7896L90.011 79.0248Z" fill="white"/>
<path d="M75.618 4.90922C75.669 5.13023 75.6531 5.3614 75.5725 5.5734C75.4919 5.7854 75.3501 5.96866 75.1651 6.09993C75.0271 6.19845 74.869 6.26507 74.7021 6.29498C74.5353 6.32489 74.3638 6.31734 74.2003 6.27288C74.0367 6.22841 73.885 6.14815 73.7562 6.03789C73.6275 5.92763 73.5248 5.79013 73.4557 5.63533C73.386 5.48082 73.3515 5.31275 73.3546 5.14326C73.3578 4.97378 73.3985 4.80711 73.474 4.65529C73.5494 4.50348 73.6576 4.37031 73.7907 4.26541C73.9239 4.1605 74.0787 4.08648 74.2439 4.04869C74.5401 3.9833 74.85 4.03686 75.107 4.19782C75.364 4.35878 75.5475 4.61426 75.618 4.90922Z" stroke="white" stroke-width="0.734171" stroke-linecap="round" stroke-linejoin="round"/>
<path d="M71.3986 23.2569L85.8888 16.4976L97.4643 41.328" stroke="white" stroke-width="0.734171" stroke-linecap="round" stroke-linejoin="round"/>
<path d="M105.487 58.5252L126.597 103.814L63.1126 133.42L22.3895 46.1031L36.8935 39.3438" stroke="white" stroke-width="0.734171" stroke-linecap="round" stroke-linejoin="round"/>
<path d="M73.7581 28.3234L39.253 44.4098L34.5339 34.2777L69.0252 18.1914L73.7581 28.3234Z" stroke="white" stroke-width="0.734171" stroke-linecap="round" stroke-linejoin="round"/>
<path d="M53.5358 22.0219C53.7639 22.5578 53.8292 23.149 53.7235 23.7218C53.6179 24.2946 53.346 24.8236 52.9417 25.2429C52.5374 25.6621 52.0187 25.9531 51.4501 26.0796C50.8815 26.206 50.2884 26.1622 49.7445 25.9538C49.2006 25.7453 48.7302 25.3814 48.3918 24.9074C48.0533 24.4333 47.862 23.8702 47.8415 23.2881C47.821 22.706 47.9723 22.1308 48.2765 21.6341C48.5808 21.1374 49.0245 20.7413 49.5524 20.4952C50.2831 20.1695 51.1132 20.1474 51.8602 20.4337C52.6072 20.72 53.2099 21.2913 53.5358 22.0219Z" stroke="white" stroke-width="0.734171" stroke-linecap="round" stroke-linejoin="round"/>
<path d="M87.1102 41.2446L40.5715 62.9382L35.6721 52.4453L82.2108 30.7378L87.1102 41.2446Z" stroke="white" stroke-width="0.734171" stroke-linecap="round" stroke-linejoin="round"/>
<path d="M59.6983 76.9295L49.3434 81.7596L44.3468 71.0308L54.7016 66.2007L59.6983 76.9295Z" stroke="white" stroke-width="0.734171" stroke-linecap="round" stroke-linejoin="round"/>
<path d="M92.3705 52.5289L87.0547 64.1877L68.4978 72.8346L63.4873 62.1058L90.8716 49.3228L92.3705 52.5289Z" stroke="white" stroke-width="0.734171" stroke-linecap="round" stroke-linejoin="round"/>
<path d="M68.4277 95.6385L58.0743 100.469L53.063 89.7259L63.4179 84.9097L68.4284 95.6385H68.4277Z" stroke="white" stroke-width="0.734171" stroke-linecap="round" stroke-linejoin="round"/>
<path d="M100.379 69.7266L104.598 78.776L77.2142 91.5313L72.2175 80.8024L86.8882 73.9598" stroke="white" stroke-width="0.734171" stroke-linecap="round" stroke-linejoin="round"/>
<path d="M77.1448 114.349L66.7907 119.166L61.7795 108.436L72.1482 103.606L77.1448 114.349Z" stroke="white" stroke-width="0.734171" stroke-linecap="round" stroke-linejoin="round"/>
<path d="M113.329 97.4715L85.9444 110.241L80.9339 99.5118L108.318 86.7427L113.329 97.4715Z" stroke="white" stroke-width="0.734171" stroke-linecap="round" stroke-linejoin="round"/>
<path d="M43.3198 73.1125L53.5497 77.2625L56.1035 64.9375" stroke="white" stroke-width="0.734171" stroke-linecap="round" stroke-linejoin="round"/>
<path d="M64.2784 82.4668L57.2138 102.911" stroke="white" stroke-width="0.734171" stroke-linecap="round" stroke-linejoin="round"/>
<path d="M70.8296 96.5828L50.6627 88.7964" stroke="white" stroke-width="0.734171" stroke-linecap="round" stroke-linejoin="round"/>
<path d="M72.9947 101.163L65.9301 121.608" stroke="white" stroke-width="0.734171" stroke-linecap="round" stroke-linejoin="round"/>
<path d="M79.5598 115.279L59.379 107.492" stroke="white" stroke-width="0.734171" stroke-linecap="round" stroke-linejoin="round"/>
<path d="M122.406 21.4111L99.2826 72.1268L86.1387 66.2003L109.248 15.4707L122.406 21.4111Z" stroke="white" stroke-width="0.734171" stroke-linecap="round" stroke-linejoin="round"/>
<path d="M123.53 13.3468L120.324 20.467L111.552 16.5113L114.772 9.39111L123.53 13.3468Z" stroke="white" stroke-width="0.734171" stroke-linecap="round" stroke-linejoin="round"/>
<path d="M99.2826 72.1272L87.5683 80.8574L86.1387 66.2007" stroke="white" stroke-width="0.734171" stroke-linecap="round" stroke-linejoin="round"/>
<path d="M87.2629 77.7896L90.011 79.0248" stroke="white" stroke-width="0.734171" stroke-linecap="round" stroke-linejoin="round"/>
<path d="M113.065 17.1919L89.9556 67.9215" stroke="white" stroke-width="0.734171" stroke-linecap="round" stroke-linejoin="round"/>
<path d="M118.575 19.6909L95.4656 70.4066" stroke="white" stroke-width="0.734171" stroke-linecap="round" stroke-linejoin="round"/>
<path d="M13.8812 72.2524C13.4648 71.3641 13.4926 70.5591 13.8812 68.5604C14.7089 64.3046 12.2325 62.8151 10.1893 63.7026C9.86118 63.8427 9.56405 64.0464 9.31505 64.3019C9.06605 64.5574 8.87009 64.8597 8.73848 65.1913C8.60687 65.5229 8.54221 65.8772 8.54824 66.234C8.55426 66.5907 8.63085 66.9427 8.77357 67.2697C8.84224 67.4252 8.92625 67.5743 9.02341 67.7138" stroke="white" stroke-width="0.734171" stroke-linecap="round" stroke-linejoin="round"/>
<path d="M16.0187 74.8613C16.0633 74.9533 16.0893 75.0533 16.0952 75.1553C16.1011 75.2574 16.0869 75.3597 16.0533 75.4563C16.0198 75.5529 15.9675 75.6419 15.8995 75.7183C15.8315 75.7947 15.7492 75.857 15.6571 75.9015C15.5651 75.9461 15.4651 75.9721 15.3631 75.978C15.261 75.984 15.1587 75.9697 15.0621 75.9362C14.9655 75.9026 14.8765 75.8503 14.8001 75.7823C14.7237 75.7143 14.6614 75.632 14.6169 75.5399C14.5269 75.354 14.5144 75.14 14.5822 74.9449C14.65 74.7498 14.7926 74.5897 14.9785 74.4997C15.1644 74.4097 15.3784 74.3972 15.5735 74.465C15.7686 74.5329 15.9287 74.6754 16.0187 74.8613Z" stroke="white" stroke-width="0.734171" stroke-linejoin="round"/>
</svg>
