<svg width="32" height="32" viewBox="0 0 32 32" fill="none" xmlns="http://www.w3.org/2000/svg">
<path fill-rule="evenodd" clip-rule="evenodd" d="M26.6667 18.6761H5.43199V18.6774H3.99999C3.64637 18.6774 3.30723 18.8179 3.05718 19.068C2.80713 19.318 2.66666 19.6571 2.66666 20.0108C2.66666 20.3644 2.80713 20.7035 3.05718 20.9536C3.30723 21.2036 3.64637 21.3441 3.99999 21.3441H5.43199C5.4334 23.1113 6.13641 24.8056 7.3865 26.0547C8.63658 27.3038 10.3315 28.0054 12.0987 28.0054H20C21.7672 28.0054 23.4621 27.3038 24.7121 26.0547C25.9622 24.8056 26.6652 23.1113 26.6667 21.3441H28C28.3536 21.3441 28.6927 21.2036 28.9428 20.9536C29.1928 20.7035 29.3333 20.3644 29.3333 20.0108C29.3333 19.6571 29.1928 19.318 28.9428 19.068C28.6927 18.8179 28.3536 18.6774 28 18.6774L26.6667 18.6761ZM24 21.3428H8.09866C8.10007 22.4027 8.52212 23.4188 9.27211 24.1677C10.0221 24.9167 11.0387 25.3374 12.0987 25.3374H20C21.0599 25.3374 22.0765 24.9167 22.8265 24.1677C23.5765 23.4188 23.9986 22.4027 24 21.3428ZM17.2347 5.78277L16.6693 6.60677C16.0867 7.45743 16.04 8.14677 16.128 8.6561C16.224 9.2001 16.4893 9.62277 16.6667 9.8801L16.696 9.92143C16.9093 10.2268 17.3453 10.8548 17.504 11.7481C17.676 12.7161 17.504 13.8708 16.6987 15.1961L16.1787 16.0494L14.472 15.0121L14.9907 14.1574C15.5787 13.1894 15.6107 12.5228 15.5347 12.0961C15.4547 11.6414 15.232 11.3201 15.028 11.0241L15.0227 11.0188C14.796 10.6908 14.3293 9.97877 14.1587 8.99877C13.9813 7.98543 14.1373 6.7641 15.02 5.4761L15.5853 4.6521L17.2347 5.78277ZM10.8467 7.85877L10.2813 8.68277C9.87466 9.2761 9.85199 9.7361 9.90932 10.0614C9.97199 10.4228 10.1493 10.7094 10.2787 10.8961L10.3027 10.9294C10.4653 11.1641 10.824 11.6788 10.9547 12.4094C11.096 13.2094 10.9493 14.1468 10.312 15.1961L9.79199 16.0494L8.08266 15.0121L8.60266 14.1574C9.02399 13.4641 9.03066 13.0174 8.98532 12.7574C8.93199 12.4681 8.79199 12.2614 8.63466 12.0348C8.28761 11.5483 8.05016 10.9925 7.93866 10.4054C7.79466 9.57343 7.92532 8.58277 8.63199 7.5521L9.19866 6.72677L10.8467 7.85877ZM23.616 7.85877L23.0507 8.68277C22.644 9.2761 22.6213 9.7361 22.6773 10.0614C22.7415 10.3763 22.876 10.6725 23.0707 10.9281C23.2347 11.1641 23.5933 11.6788 23.724 12.4081C23.8653 13.2094 23.7187 14.1468 23.08 15.1948L22.56 16.0508L20.852 15.0108L21.372 14.1574C21.792 13.4641 21.7987 13.0174 21.7533 12.7574C21.7013 12.4681 21.5613 12.2614 21.404 12.0348C21.0569 11.5483 20.8195 10.9925 20.708 10.4054C20.5627 9.57343 20.6947 8.58277 21.4013 7.5521L21.9667 6.72677L23.616 7.85877Z" fill="#262626"/>
</svg>
