<svg width="33" height="32" viewBox="0 0 33 32" fill="none" xmlns="http://www.w3.org/2000/svg">
<path d="M27.6666 12V14H28.6666V18C28.6666 18.7956 28.3506 19.5587 27.788 20.1213C27.2253 20.6839 26.4623 21 25.6666 21C24.871 21 24.1079 20.6839 23.5453 20.1213C22.9827 19.5587 22.6666 18.7956 22.6666 18V14H23.6666V12H20.6666V18C20.6685 19.152 21.0673 20.2681 21.7959 21.1605C22.5245 22.0528 23.5383 22.6668 24.6666 22.899V24C24.6666 25.0609 24.2452 26.0783 23.4951 26.8284C22.7449 27.5786 21.7275 28 20.6666 28C19.6058 28 18.5884 27.5786 17.8382 26.8284C17.0881 26.0783 16.6666 25.0609 16.6666 24V21.816C17.3338 21.5801 17.8962 21.1159 18.2543 20.5055C18.6123 19.8951 18.7431 19.1778 18.6234 18.4803C18.5038 17.7828 18.1414 17.15 17.6003 16.6939C17.0592 16.2378 16.3743 15.9876 15.6666 15.9876C14.9589 15.9876 14.274 16.2378 13.733 16.6939C13.1919 17.15 12.8295 17.7828 12.7098 18.4803C12.5902 19.1778 12.7209 19.8951 13.079 20.5055C13.4371 21.1159 13.9994 21.5801 14.6666 21.816V24C14.6666 25.5913 15.2988 27.1174 16.424 28.2426C17.5492 29.3679 19.0753 30 20.6666 30C22.2579 30 23.7841 29.3679 24.9093 28.2426C26.0345 27.1174 26.6666 25.5913 26.6666 24V22.899C27.795 22.6668 28.8088 22.0528 29.5374 21.1605C30.266 20.2681 30.6648 19.152 30.6666 18V12H27.6666ZM15.6666 18C15.8644 18 16.0578 18.0586 16.2222 18.1685C16.3867 18.2784 16.5148 18.4346 16.5905 18.6173C16.6662 18.8 16.686 19.0011 16.6474 19.1951C16.6088 19.3891 16.5136 19.5673 16.3737 19.7071C16.2339 19.847 16.0557 19.9422 15.8617 19.9808C15.6677 20.0194 15.4667 19.9996 15.2839 19.9239C15.1012 19.8482 14.945 19.72 14.8352 19.5556C14.7253 19.3911 14.6666 19.1978 14.6666 19C14.6666 18.7348 14.772 18.4804 14.9595 18.2929C15.1471 18.1054 15.4014 18 15.6666 18Z" fill="#262626"/>
<path d="M26.6666 4H22.6666V2H20.6666V4H12.6666V2H10.6666V4H6.66663C6.13619 4 5.62749 4.21071 5.25241 4.58579C4.87734 4.96086 4.66663 5.46957 4.66663 6V26C4.66663 26.5304 4.87734 27.0391 5.25241 27.4142C5.62749 27.7893 6.13619 28 6.66663 28H10.6666V26H6.66663V6H10.6666V8H12.6666V6H20.6666V8H22.6666V6H26.6666V10H28.6666V6C28.6666 5.46957 28.4559 4.96086 28.0808 4.58579C27.7058 4.21071 27.1971 4 26.6666 4Z" fill="#262626"/>
</svg>
