<svg width="23" height="23" viewBox="0 0 23 23" fill="none" xmlns="http://www.w3.org/2000/svg">
<path d="M5.59436 10.7288C5.53221 10.3282 5.49996 9.91786 5.49996 9.5C5.49996 5.08172 9.10525 1.5 13.5526 1.5C17.9999 1.5 21.6052 5.08172 21.6052 9.5C21.6052 10.4981 21.4213 11.4535 21.0852 12.3345C21.0154 12.5175 20.9804 12.609 20.9646 12.6804C20.9489 12.7512 20.9428 12.801 20.9411 12.8735C20.9394 12.9466 20.9493 13.0272 20.9692 13.1883L21.3717 16.4585C21.4153 16.8125 21.4371 16.9895 21.3782 17.1182C21.3266 17.231 21.235 17.3205 21.1211 17.3695C20.9911 17.4254 20.8146 17.3995 20.4617 17.3478L17.2765 16.8809C17.1101 16.8565 17.027 16.8443 16.9512 16.8448C16.8763 16.8452 16.8245 16.8507 16.7511 16.8661C16.677 16.8817 16.5823 16.9172 16.393 16.9881C15.5097 17.319 14.5524 17.5 13.5526 17.5C13.1344 17.5 12.7237 17.4683 12.3227 17.4073M7.13158 21.5C10.0965 21.5 12.5 19.0376 12.5 16C12.5 12.9624 10.0965 10.5 7.13158 10.5C4.16668 10.5 1.76316 12.9624 1.76316 16C1.76316 16.6106 1.86028 17.1979 2.03955 17.7467C2.11533 17.9787 2.15322 18.0947 2.16566 18.1739C2.17864 18.2567 2.18091 18.3031 2.17608 18.3867C2.17145 18.4668 2.15141 18.5573 2.11134 18.7383L1.5 21.5L4.4948 21.091C4.65827 21.0687 4.74 21.0575 4.81137 21.058C4.88652 21.0585 4.92641 21.0626 5.00011 21.0773C5.0701 21.0912 5.17416 21.1279 5.38227 21.2014C5.93059 21.3949 6.51911 21.5 7.13158 21.5Z" stroke="#344054" stroke-width="2" stroke-linecap="round" stroke-linejoin="round"/>
</svg>
