<svg width="22" height="20" viewBox="0 0 22 20" fill="none" xmlns="http://www.w3.org/2000/svg">
<path d="M8.16625 12.5C8.16625 12.5 9.47875 14 11.6663 14C13.8538 14 15.1663 12.5 15.1663 12.5M14.4163 7.5H14.4263M8.91625 7.5H8.92625M11.6663 18.5C16.3607 18.5 20.1663 14.6944 20.1663 10C20.1663 5.30558 16.3607 1.5 11.6663 1.5C6.97183 1.5 3.16625 5.30558 3.16625 10C3.16625 10.95 3.3221 11.8636 3.60962 12.7166C3.71782 13.0376 3.77192 13.1981 3.78168 13.3214C3.79132 13.4432 3.78403 13.5286 3.7539 13.6469C3.7234 13.7668 3.65605 13.8915 3.52134 14.1408L1.88569 17.1684C1.65238 17.6002 1.53572 17.8161 1.56183 17.9828C1.58457 18.1279 1.67 18.2557 1.79542 18.3322C1.93943 18.4201 2.18355 18.3948 2.67179 18.3444L7.79281 17.815C7.9479 17.799 8.02543 17.791 8.09611 17.7937C8.16562 17.7963 8.2147 17.8029 8.28248 17.8185C8.3514 17.8344 8.43807 17.8678 8.61141 17.9345C9.55946 18.2998 10.5895 18.5 11.6663 18.5ZM14.9163 7.5C14.9163 7.77614 14.6924 8 14.4163 8C14.1401 8 13.9163 7.77614 13.9163 7.5C13.9163 7.22386 14.1401 7 14.4163 7C14.6924 7 14.9163 7.22386 14.9163 7.5ZM9.41625 7.5C9.41625 7.77614 9.19239 8 8.91625 8C8.64011 8 8.41625 7.77614 8.41625 7.5C8.41625 7.22386 8.64011 7 8.91625 7C9.19239 7 9.41625 7.22386 9.41625 7.5Z" stroke="#344054" stroke-width="2" stroke-linecap="round" stroke-linejoin="round"/>
</svg>
