<svg width="33" height="32" viewBox="0 0 33 32" fill="none" xmlns="http://www.w3.org/2000/svg">
<path d="M22.1673 16.0001V20.0001M22.1673 16.0001H24.5714C26.062 16.0001 26.8073 16.0001 27.3772 15.7097C27.8789 15.4541 28.288 15.045 28.5436 14.5433C28.834 13.9734 28.834 13.2281 28.834 11.7375V10.9293C28.834 9.43874 28.834 8.69235 28.5436 8.12248C28.288 7.62071 27.8789 7.21306 27.3772 6.9574C26.8067 6.66675 26.0611 6.66675 24.5676 6.66675H19.7676C18.2741 6.66675 17.5268 6.66675 16.9564 6.9574C16.4546 7.21306 16.047 7.62071 15.7913 8.12248C15.5007 8.69291 15.5007 9.4402 15.5007 10.9337V11.7337C15.5007 13.2271 15.5007 13.9728 15.7913 14.5433C16.047 15.045 16.4546 15.4541 16.9564 15.7097C17.5263 16.0001 18.2727 16.0001 19.7632 16.0001H22.1673ZM10.1673 13.3334L7.50065 16.0001L4.83398 13.3334M4.83398 9.33341L7.50065 6.66675L10.1673 9.33342M4.83398 28.0003V25.6003C4.83398 24.1069 4.83398 23.3596 5.12463 22.7891C5.3803 22.2874 5.78795 21.8797 6.28971 21.6241C6.86014 21.3334 7.60744 21.3334 9.10091 21.3334H24.5676C26.0611 21.3334 26.8067 21.3334 27.3772 21.6241C27.8789 21.8797 28.288 22.2874 28.5436 22.7891C28.834 23.359 28.834 24.1054 28.834 25.596V28.0003" stroke="black" stroke-width="2" stroke-linecap="round" stroke-linejoin="round"/>
</svg>
