<svg width="48" height="49" viewBox="0 0 48 49" fill="none" xmlns="http://www.w3.org/2000/svg">
<path d="M24.0008 39.9289V46.786M32.5723 36.5003V43.3574M15.4294 36.5003V43.3574M27.6488 12.1197C27.4535 11.5613 27.089 11.0776 26.606 10.7359C26.1231 10.3942 25.5456 10.2116 24.954 10.2134H22.7426C22.1154 10.2157 21.511 10.4489 21.0449 10.8685C20.5788 11.2881 20.2836 11.8648 20.2157 12.4882C20.1479 13.1117 20.3121 13.7384 20.677 14.2485C21.0419 14.7585 21.582 15.1163 22.194 15.2534L25.5643 15.994C26.2505 16.147 26.8564 16.5475 27.266 17.119C27.6756 17.6905 27.8603 18.3929 27.7848 19.0919C27.7093 19.791 27.3789 20.4377 26.8567 20.9086C26.3345 21.3794 25.6571 21.6413 24.954 21.6443H23.0477C22.4561 21.6461 21.8786 21.4635 21.3956 21.1218C20.9126 20.7801 20.5481 20.2964 20.3528 19.738M24.0008 10.2134V7.35742M24.0008 24.5003V21.6443M9.42941 16.786C9.20208 16.786 8.98406 16.6957 8.82332 16.5349C8.66257 16.3742 8.57227 16.1562 8.57227 15.9289C8.57227 15.7015 8.66257 15.4835 8.82332 15.3228C8.98406 15.162 9.20208 15.0717 9.42941 15.0717C9.65674 15.0717 9.87475 15.162 10.0355 15.3228C10.1962 15.4835 10.2866 15.7015 10.2866 15.9289C10.2866 16.1562 10.1962 16.3742 10.0355 16.5349C9.87475 16.6957 9.65674 16.786 9.42941 16.786ZM38.5723 16.786C38.3449 16.786 38.1269 16.6957 37.9662 16.5349C37.8054 16.3742 37.7151 16.1562 37.7151 15.9289C37.7151 15.7015 37.8054 15.4835 37.9662 15.3228C38.1269 15.162 38.3449 15.0717 38.5723 15.0717C38.7996 15.0717 39.0176 15.162 39.1784 15.3228C39.3391 15.4835 39.4294 15.7015 39.4294 15.9289C39.4294 16.1562 39.3391 16.3742 39.1784 16.5349C39.0176 16.6957 38.7996 16.786 38.5723 16.786Z" stroke="#454545" stroke-width="2.5" stroke-linecap="round" stroke-linejoin="round"/>
<path d="M42.8577 2.21436H5.14342C4.2341 2.21436 3.36203 2.57558 2.71905 3.21856C2.07607 3.86154 1.71484 4.73361 1.71484 5.64293V26.2144C1.71484 27.1237 2.07607 27.9957 2.71905 28.6387C3.36203 29.2817 4.2341 29.6429 5.14342 29.6429H42.8577C43.767 29.6429 44.6391 29.2817 45.2821 28.6387C45.925 27.9957 46.2863 27.1237 46.2863 26.2144V5.64293C46.2863 4.73361 45.925 3.86154 45.2821 3.21856C44.6391 2.57558 43.767 2.21436 42.8577 2.21436Z" stroke="#454545" stroke-width="2.5" stroke-linecap="round" stroke-linejoin="round"/>
</svg>
