<svg width="32" height="32" viewBox="0 0 32 32" fill="none" xmlns="http://www.w3.org/2000/svg">
<path fill-rule="evenodd" clip-rule="evenodd" d="M11.7717 19.3385C11.569 19.3505 11.4557 19.3798 11.413 19.3985C10.9903 19.5918 9.60301 20.0952 8.66634 20.4305V25.1638C9.14634 25.1418 9.68634 25.1232 9.98967 25.1352C11.3377 25.1892 12.3557 25.5032 13.307 25.8052L13.391 25.8318C14.3097 26.1238 15.167 26.3965 16.2943 26.4818C16.6403 26.5085 16.9423 26.5385 17.225 26.5672C17.5609 26.6044 17.8977 26.633 18.235 26.6532C18.8083 26.6825 19.2483 26.6512 19.6043 26.5205C20.0443 26.3592 21.631 25.6172 23.2243 24.8085C23.9599 24.4381 24.6872 24.0516 25.4057 23.6492C25.6689 23.5018 25.9279 23.3471 26.1823 23.1852C26.4003 23.0432 26.5057 22.9585 26.5343 22.9292C26.653 22.8072 26.7377 22.4705 26.5823 22.1672C26.4743 21.9558 26.173 21.6465 25.3263 21.7865C24.3463 21.9485 23.181 22.4265 22.0363 22.8958C21.481 23.1238 20.9283 23.3498 20.4397 23.5132C19.9703 23.6698 19.4663 23.8025 19.0343 23.7765C18.4077 23.7385 17.3037 23.5732 16.3877 23.4238C15.8621 23.3381 15.3372 23.2483 14.813 23.1545L14.711 23.1365L14.6757 23.1298L14.803 21.8072L18.3763 21.8505L18.391 21.8492C18.415 21.8472 18.463 21.8412 18.5323 21.8232C18.6683 21.7878 18.8923 21.7052 19.1697 21.5065C19.2657 21.4378 19.383 21.3185 19.489 21.1638C19.5757 21.0372 19.6403 20.9098 19.6783 20.8018C19.1918 20.7826 18.708 20.719 18.233 20.6118C18.0039 20.5616 17.7767 20.5034 17.5517 20.4372L17.521 20.4278L13.1437 19.4458H13.1423C13.0728 19.4335 13.003 19.4224 12.933 19.4125C12.7519 19.3861 12.5701 19.3654 12.3877 19.3505C12.1826 19.3329 11.9766 19.3289 11.771 19.3385M13.2757 18.7918L13.3977 18.1372L13.4097 18.1392L17.8683 19.1392L17.8957 19.1485L17.9037 19.1512L17.9343 19.1605L18.0597 19.1965C18.1697 19.2272 18.3283 19.2678 18.517 19.3092C18.8997 19.3932 19.3823 19.4705 19.833 19.4705C20.249 19.4705 20.679 19.6258 20.909 20.0472C21.1063 20.4085 21.0603 20.8058 20.9863 21.0805C20.8943 21.4232 20.7037 21.7832 20.4617 22.0892C20.8196 21.9517 21.1756 21.8095 21.5297 21.6625L21.6117 21.6292C22.6937 21.1845 23.9763 20.6578 25.1077 20.4712C26.401 20.2572 27.3417 20.7265 27.7683 21.5592C28.1483 22.3005 28.0603 23.2732 27.4883 23.8592C27.345 24.0065 27.1263 24.1612 26.907 24.3032C26.6305 24.48 26.3491 24.649 26.063 24.8098C25.3265 25.2222 24.581 25.6183 23.827 25.9978C22.2463 26.7998 20.589 27.5798 20.0623 27.7725C19.4517 27.9958 18.7957 28.0172 18.1657 27.9845C17.7854 27.9608 17.4058 27.9286 17.027 27.8878C16.7495 27.8592 16.4717 27.8336 16.1937 27.8112C14.9083 27.7138 13.9217 27.3998 13.0137 27.1112L12.903 27.0758C11.965 26.7778 11.0923 26.5138 9.93567 26.4672C9.54234 26.4518 8.56434 26.5025 8.03767 26.5332L7.33301 26.5745V19.4898L7.77634 19.3325C8.67967 19.0112 10.431 18.3812 10.8597 18.1858C11.1277 18.0638 11.4377 18.0225 11.6943 18.0072C11.9599 17.9942 12.2261 17.9989 12.491 18.0212C12.7875 18.0444 13.0827 18.0818 13.3757 18.1332L13.3917 18.1358L13.3957 18.1365H13.3983L13.2757 18.7918Z" fill="#262626"/>
<path fill-rule="evenodd" clip-rule="evenodd" d="M4 19.3333C4 18.9796 4.14048 18.6405 4.39052 18.3904C4.64057 18.1404 4.97971 17.9999 5.33333 17.9999H7.33333C7.68696 17.9999 8.02609 18.1404 8.27614 18.3904C8.52619 18.6405 8.66667 18.9796 8.66667 19.3333V26.6639C8.66667 27.0175 8.52619 27.3567 8.27614 27.6067C8.02609 27.8568 7.68696 27.9973 7.33333 27.9973H5.33333C4.97971 27.9973 4.64057 27.8568 4.39052 27.6067C4.14048 27.3567 4 27.0175 4 26.6639V19.3333ZM5.33333 19.3333V26.6639H7.33333V19.3339L5.33333 19.3333ZM12.866 12.7193L12.8793 12.7059C12.9596 12.6252 13.0045 12.5159 13.0042 12.4021C13.0039 12.2882 12.9584 12.1792 12.8777 12.0989C12.797 12.0187 12.6877 11.9737 12.5738 11.974C12.46 11.9744 12.3509 12.0199 12.2707 12.1006L10.964 13.4159C10.84 13.5407 10.6925 13.6397 10.53 13.7072C10.3675 13.7747 10.1933 13.8094 10.0173 13.8093H8.294C8.18031 13.8093 8.07128 13.8544 7.99089 13.9348C7.9105 14.0152 7.86533 14.1242 7.86533 14.2379C7.86533 14.3516 7.9105 14.4606 7.99089 14.541C8.07128 14.6214 8.18031 14.6666 8.294 14.6666H10.134C10.4024 14.6666 10.668 14.6126 10.915 14.5078C11.1621 14.403 11.3855 14.2495 11.572 14.0566L12.866 12.7193ZM10.018 12.4753H8.29333C7.82593 12.4753 7.37768 12.6609 7.04718 12.9914C6.71667 13.3219 6.531 13.7702 6.531 14.2376C6.531 14.705 6.71667 15.1532 7.04718 15.4837C7.37768 15.8142 7.82593 15.9999 8.29333 15.9999H10.1333C10.5805 16 11.0232 15.9101 11.4349 15.7356C11.8467 15.561 12.2191 15.3054 12.53 14.9839L13.8233 13.6459C14.1529 13.3146 14.3374 12.8659 14.3361 12.3985C14.3349 11.9312 14.148 11.4835 13.8167 11.1539C13.4853 10.8243 13.0366 10.6399 12.5693 10.6411C12.1019 10.6424 11.6542 10.8292 11.3247 11.1606L10.018 12.4753ZM21.8267 8.66526C22.0494 8.67156 22.2712 8.63313 22.4788 8.55224C22.6864 8.47135 22.8757 8.34964 23.0355 8.19432C23.1953 8.03899 23.3223 7.8532 23.4091 7.64794C23.4958 7.44267 23.5405 7.22209 23.5405 6.99926C23.5405 6.77642 23.4958 6.55585 23.4091 6.35058C23.3223 6.14531 23.1953 5.95952 23.0355 5.8042C22.8757 5.64887 22.6864 5.52717 22.4788 5.44628C22.2712 5.36539 22.0494 5.32696 21.8267 5.33326C21.393 5.34553 20.9812 5.52643 20.6787 5.83753C20.3763 6.14863 20.2071 6.56539 20.2071 6.99926C20.2071 7.43312 20.3763 7.84989 20.6787 8.16098C20.9812 8.47208 21.393 8.65299 21.8267 8.66526ZM24.8267 6.99926C24.8351 7.39846 24.7637 7.79532 24.6168 8.16658C24.4698 8.53785 24.2502 8.87604 23.9709 9.16134C23.6915 9.44664 23.3581 9.67331 22.99 9.82805C22.6219 9.98279 22.2266 10.0625 21.8273 10.0625C21.428 10.0625 21.0328 9.98279 20.6647 9.82805C20.2966 9.67331 19.9631 9.44664 19.6838 9.16134C19.4044 8.87604 19.1848 8.53785 19.0379 8.16658C18.8909 7.79532 18.8196 7.39846 18.828 6.99926C18.8445 6.21474 19.1678 5.46792 19.7285 4.91894C20.2892 4.36995 21.0426 4.0625 21.8273 4.0625C22.612 4.0625 23.3655 4.36995 23.9262 4.91894C24.4869 5.46792 24.8101 6.21474 24.8267 6.99926ZM19.812 15.5293L19.8607 15.5773C20.1544 15.8528 20.5447 16.0018 20.9473 15.9919L20.9733 15.9939C20.9813 15.9957 20.99 15.9966 20.9993 15.9966L23.0907 15.9939C23.5622 15.9935 24.0143 15.8057 24.3474 15.472C24.6805 15.1382 24.8674 14.6858 24.867 14.2143C24.8666 13.7427 24.6788 13.2906 24.3451 12.9575C24.0113 12.6244 23.5589 12.4375 23.0873 12.4379H21.7833C21.65 12.4379 20.6833 11.4199 19.9633 10.6399C19.7101 10.3643 19.4025 10.1441 19.0601 9.99316C18.7176 9.84217 18.3476 9.76367 17.9733 9.76259H14.736L15.048 15.9959H17.1033C17.5193 15.9947 17.9309 15.9106 18.314 15.7486C18.6967 15.5853 19.2833 15.0959 19.3313 15.0479C19.3767 15.0026 19.7673 15.4753 19.8087 15.5253L19.812 15.5293ZM17.7907 14.5226L17.822 14.5059C17.8456 14.4926 17.8758 14.4744 17.9127 14.4513C17.9873 14.4046 18.0707 14.3459 18.1533 14.2846C18.2451 14.2163 18.3349 14.1454 18.4227 14.0719C18.876 13.6473 19.4127 13.6966 19.6227 13.7413C19.8413 13.7879 19.9967 13.8786 20.0533 13.9126C20.1493 13.9713 20.2392 14.0391 20.322 14.1153C20.4207 14.2039 20.5153 14.3066 20.5787 14.3766C20.6493 14.4546 20.7153 14.5313 20.762 14.5866L20.7887 14.6186C20.8025 14.6294 20.8178 14.6384 20.834 14.6453M17.7907 14.5226C17.5727 14.6153 17.3387 14.6619 17.102 14.6633H16.316L16.138 11.0959H17.9733C18.3493 11.0959 18.7167 11.2559 18.9833 11.5446C19.3467 11.9379 19.7807 12.4006 20.146 12.7693C20.326 12.9513 20.5047 13.1259 20.6567 13.2619C20.73 13.3266 20.82 13.4046 20.9153 13.4733C20.9613 13.5066 21.036 13.5579 21.13 13.6073L21.134 13.6093C21.1887 13.6386 21.4407 13.7713 21.7833 13.7713H23.0873C23.2053 13.7711 23.3184 13.8178 23.402 13.901C23.4855 13.9843 23.5325 14.0973 23.5327 14.2153C23.5328 14.3332 23.4862 14.4464 23.4029 14.5299C23.3196 14.6134 23.2066 14.6604 23.0887 14.6606L21.062 14.6626C21.0239 14.6596 20.9856 14.6583 20.9473 14.6586H20.9127C20.8858 14.6595 20.8591 14.6549 20.834 14.6453" fill="#262626"/>
</svg>
