<svg width="46" height="46" viewBox="0 0 46 46" fill="none" xmlns="http://www.w3.org/2000/svg">
<path d="M45.5 24.5C45.5 22.019 43.481 20 41 20C38.519 20 36.5 22.019 36.5 24.5C36.5 26.453 37.757 28.1015 39.5 28.7225V32.6375L23 42.263L7.9775 33.5L41.756 13.796C41.9826 13.6639 42.1706 13.4747 42.3013 13.2473C42.432 13.0199 42.5008 12.7622 42.5008 12.5C42.5008 12.2377 42.432 11.98 42.3013 11.7526C42.1706 11.5252 41.9826 11.336 41.756 11.204L23.756 0.703956C23.5266 0.570065 23.2657 0.499512 23 0.499512C22.7343 0.499512 22.4734 0.570065 22.244 0.703956L4.244 11.204C4.01753 11.3361 3.82966 11.5253 3.69912 11.7527C3.56858 11.9801 3.49992 12.2378 3.5 12.5V17.2775C2.62527 17.5856 1.86733 18.1568 1.3302 18.9128C0.793063 19.6688 0.503064 20.5726 0.5 21.5C0.5 23.981 2.519 26 5 26C7.481 26 9.5 23.981 9.5 21.5C9.49616 20.5726 9.20587 19.669 8.66887 18.9129C8.13186 18.1568 7.37436 17.5851 6.5 17.276V13.361L23 3.73696L38.0225 12.5L4.244 32.204C4.01739 32.336 3.82937 32.5252 3.69869 32.7526C3.56801 32.98 3.49924 33.2377 3.49924 33.5C3.49924 33.7622 3.56801 34.0199 3.69869 34.2473C3.82937 34.4747 4.01739 34.6639 4.244 34.796L22.244 45.296C22.4734 45.4298 22.7343 45.5004 23 45.5004C23.2657 45.5004 23.5266 45.4298 23.756 45.296L41.756 34.796C41.9825 34.6638 42.1703 34.4746 42.3009 34.2472C42.4314 34.0198 42.5001 33.7622 42.5 33.5V28.724C43.3744 28.4148 44.1319 27.8431 44.6689 27.087C45.2059 26.3309 45.4962 25.4273 45.5 24.5ZM5 23C4.61378 22.9827 4.24911 22.8171 3.98191 22.5377C3.71472 22.2583 3.5656 21.8866 3.5656 21.5C3.5656 21.1133 3.71472 20.7416 3.98191 20.4622C4.24911 20.1828 4.61378 20.0172 5 20C5.38622 20.0172 5.75089 20.1828 6.01809 20.4622C6.28528 20.7416 6.4344 21.1133 6.4344 21.5C6.4344 21.8866 6.28528 22.2583 6.01809 22.5377C5.75089 22.8171 5.38622 22.9827 5 23ZM41 26C40.6138 25.9827 40.2491 25.8171 39.9819 25.5377C39.7147 25.2583 39.5656 24.8866 39.5656 24.5C39.5656 24.1133 39.7147 23.7416 39.9819 23.4622C40.2491 23.1828 40.6138 23.0172 41 23C41.3862 23.0172 41.7509 23.1828 42.0181 23.4622C42.2853 23.7416 42.4344 24.1133 42.4344 24.5C42.4344 24.8866 42.2853 25.2583 42.0181 25.5377C41.7509 25.8171 41.3862 25.9827 41 26Z" fill="#454545"/>
</svg>
