<svg width="48" height="48" viewBox="0 0 48 48" fill="none" xmlns="http://www.w3.org/2000/svg">
<path d="M0.584215 48.0001H21.6568C21.8127 48.0001 21.9619 47.9386 22.0717 47.8289C22.1814 47.7191 22.2429 47.5699 22.2429 47.4162V43.9041C22.2407 41.8737 21.5361 39.9091 20.2498 38.3396C18.9635 36.7702 17.1723 35.6946 15.1836 35.2951C16.4326 34.6497 17.5214 33.7366 18.3752 32.6193C18.6781 32.7269 18.9964 32.7817 19.3169 32.7817C20.7086 32.7817 21.9093 31.8005 22.1859 30.4352C22.4603 29.0699 21.7337 27.6979 20.4496 27.1602C20.4759 26.8704 20.4869 26.6026 20.4869 26.3436C20.5594 23.782 19.6133 21.2993 17.8594 19.4335C16.1034 17.5677 13.68 16.4746 11.1207 16.3911C8.56123 16.4745 6.13788 17.5677 4.38418 19.4335C2.62813 21.2993 1.68425 23.7819 1.75668 26.3436C1.75668 26.6026 1.76766 26.8704 1.794 27.1602C0.50767 27.698 -0.216666 29.0699 0.0577271 30.4352C0.332109 31.8005 1.53281 32.7817 2.92669 32.7817C3.24717 32.7817 3.56545 32.7269 3.86619 32.6193C4.72006 33.7366 5.811 34.6497 7.06002 35.2951C5.06908 35.6946 3.2801 36.7702 1.99382 38.3396C0.707494 39.9091 0.00288213 41.8737 0.000690582 43.9041V47.4162C0.000690582 47.5699 0.0621551 47.7191 0.171907 47.8289C0.281659 47.9386 0.430559 48.0001 0.584215 48.0001ZM8.19452 36.3225C8.38769 36.3071 8.58305 36.2918 8.78062 36.2918H13.4627C13.6602 36.2918 13.8534 36.3071 14.0488 36.3225V36.88C14.0488 38.4956 12.7383 39.806 11.1206 39.806C9.50501 39.806 8.19458 38.4956 8.19458 36.88L8.19452 36.3225ZM4.53974 31.5592C4.36853 31.3111 4.03707 31.2343 3.77365 31.3814C3.33025 31.6294 2.79903 31.6711 2.32054 31.4977C1.84202 31.3221 1.4623 30.9468 1.28225 30.4704C1.10226 29.9941 1.13957 29.4629 1.38323 29.0173C1.62688 28.5695 2.05272 28.2491 2.55099 28.1415C2.61684 28.1261 2.68269 28.0998 2.73976 28.0603C2.79903 28.0844 2.86269 28.0976 2.92634 28.0998H7.6084C7.88717 28.0998 8.12863 27.9022 8.18348 27.6279L9.05713 23.2597L11.79 27.8145C11.8954 27.9923 12.0863 28.0998 12.2927 28.0998H16.9747C17.2974 28.0998 17.5608 27.8364 17.5608 27.5137C17.5608 27.191 17.2974 26.9276 16.9747 26.9276H12.6241L9.28321 21.3587H9.28102C9.15809 21.1524 8.91883 21.0426 8.67957 21.0844C8.44251 21.1239 8.25373 21.3083 8.20544 21.5453L7.12984 26.9276H2.96578C2.95261 26.7344 2.92627 26.5413 2.92627 26.3437C2.85383 24.0938 3.67477 21.9075 5.21132 20.2613C6.74788 18.6151 8.87268 17.6448 11.1206 17.5635C13.3706 17.6448 15.4954 18.615 17.0322 20.2613C18.5666 21.9076 19.3897 24.0939 19.3173 26.3437C19.3129 26.73 19.2865 27.1142 19.2361 27.4983C19.2009 27.799 19.3985 28.0778 19.6926 28.1414C20.1909 28.249 20.6167 28.5695 20.8604 29.0173C21.104 29.4629 21.1392 29.9963 20.9592 30.4726C20.7792 30.9489 20.4016 31.3221 19.9231 31.4977C19.4446 31.6711 18.9133 31.6294 18.4678 31.3813C18.2044 31.2321 17.8729 31.3089 17.7017 31.5591C16.2508 33.7827 13.7769 35.1239 11.1208 35.1239C8.46699 35.1239 5.99072 33.7828 4.53974 31.5592ZM1.17032 43.9044C1.1769 40.3813 3.59805 37.3213 7.02457 36.507V36.8802C7.02457 39.1433 8.85744 40.9762 11.1206 40.9762C13.3837 40.9762 15.2188 39.1433 15.2188 36.8802V36.507C18.6453 37.3214 21.0663 40.3813 21.073 43.9044V46.8304H1.17037L1.17032 43.9044Z" fill="white"/>
<path d="M24.5859 47.416C24.5859 47.5697 24.6474 47.7189 24.7572 47.8287C24.8669 47.9384 25.0162 47.9999 25.1698 47.9999H36.8783C37.032 47.9999 37.1813 47.9384 37.291 47.8287C37.4008 47.7189 37.4622 47.5697 37.4622 47.416V45.0738C37.4622 41.5179 34.5801 38.6357 31.0241 38.6357C27.4681 38.6357 24.586 41.5179 24.586 45.0738L24.5859 47.416ZM25.7559 45.0738C25.7559 42.1654 28.1156 39.8057 31.024 39.8057C33.9325 39.8057 36.2922 42.1654 36.2922 45.0738V46.8299H25.7559V45.0738Z" fill="white"/>
<path d="M31.0219 36.8799C32.9162 36.8799 34.624 35.7385 35.3484 33.989C36.0728 32.2396 35.6732 30.2245 34.332 28.8855C32.9931 27.5466 30.9802 27.1448 29.2307 27.8692C27.4791 28.5958 26.3398 30.3013 26.3398 32.1957C26.342 34.7815 28.4361 36.8755 31.0219 36.8799ZM31.0219 28.6836C32.4421 28.6836 33.724 29.5396 34.2662 30.8523C34.8106 32.1649 34.5098 33.6751 33.5045 34.6805C32.5013 35.6837 30.9911 35.9844 29.6785 35.4422C28.3658 34.8978 27.5097 33.6159 27.5097 32.1957C27.5119 30.2575 29.0837 28.6858 31.0219 28.6836Z" fill="white"/>
<path d="M47.9968 9.36661C47.9968 9.21295 47.9354 9.06369 47.8256 8.95393C47.7158 8.84418 47.5666 8.78271 47.4129 8.78271H45.1542C44.8315 8.78271 44.5703 9.04392 44.5703 9.36662C44.5703 9.69149 44.8315 9.95272 45.1542 9.95272H47.4129C47.5666 9.95272 47.7158 9.89126 47.8256 9.78151C47.9354 9.67175 47.9968 9.52245 47.9968 9.36661Z" fill="white"/>
<path d="M43.9027 6.31765C44.0563 6.31765 44.2056 6.25619 44.3153 6.14643L45.5687 4.89303C45.6807 4.78328 45.7443 4.63401 45.7443 4.47597C45.7443 4.32012 45.6829 4.17086 45.5731 4.0611C45.4634 3.94915 45.3119 3.8877 45.1561 3.8877C45.0002 3.88989 44.8509 3.95355 44.7412 4.0633L43.4878 5.31889C43.321 5.48572 43.2705 5.73595 43.3605 5.95545C43.4527 6.17496 43.6656 6.31765 43.9027 6.31765Z" fill="white"/>
<path d="M43.4869 13.4169L44.7403 14.6703C44.9686 14.8964 45.3373 14.8942 45.5634 14.6659C45.7917 14.4398 45.7917 14.0733 45.5678 13.8428L44.3144 12.5894C44.0861 12.3655 43.7173 12.3677 43.4913 12.5938C43.2652 12.8199 43.263 13.1887 43.4869 13.4169Z" fill="white"/>
<path d="M17.4734 9.36661C17.4734 9.21295 17.4119 9.06369 17.3022 8.95393C17.1924 8.84418 17.0431 8.78271 16.8895 8.78271H14.6308C14.3081 8.78271 14.0469 9.04392 14.0469 9.36662C14.0469 9.69149 14.3081 9.95272 14.6308 9.95272H16.8895C17.0431 9.95272 17.1924 9.89126 17.3022 9.78151C17.4119 9.67175 17.4734 9.52245 17.4734 9.36661Z" fill="white"/>
<path d="M18.5612 5.31938L17.3078 4.06379C17.1981 3.95404 17.0488 3.89038 16.893 3.88818C16.7371 3.88818 16.5857 3.94965 16.4759 4.06159C16.3662 4.17134 16.3047 4.32061 16.3047 4.47646C16.3047 4.6345 16.3683 4.78377 16.4803 4.89352L17.7337 6.14692C17.962 6.37082 18.3308 6.36862 18.5568 6.14253C18.7829 5.91424 18.7851 5.54764 18.5612 5.31938Z" fill="white"/>
<path d="M16.8948 14.8411C17.0485 14.8411 17.1977 14.7796 17.3075 14.6698L18.5609 13.4164C18.7848 13.1882 18.7826 12.8194 18.5565 12.5933C18.3304 12.3672 17.9616 12.365 17.7334 12.5889L16.48 13.8423C16.3131 14.0091 16.2627 14.2616 16.3527 14.4811C16.4427 14.6984 16.6578 14.8411 16.8948 14.8411Z" fill="white"/>
<path d="M36.9783 2.13639C34.7943 0.345217 31.9187 -0.372544 29.1483 0.184953C26.7294 0.678845 24.6024 2.10784 23.2306 4.1602C21.8609 6.21476 21.356 8.72813 21.8301 11.1513C22.302 13.5746 23.7135 15.7126 25.7571 17.1022V20.4891C25.7593 22.75 27.5922 24.5829 29.8553 24.5873H32.1974H32.1953C34.4583 24.5829 36.2913 22.7501 36.2935 20.4891V17.1022C38.7321 15.4449 40.2468 12.7362 40.3806 9.79025C40.5167 6.84446 39.2546 4.00876 36.9783 2.13639ZM35.3957 16.2904C35.2245 16.398 35.1235 16.5846 35.1235 16.7865V20.4896C35.1213 22.1051 33.8109 23.4134 32.1953 23.4156H29.8554C28.2398 23.4134 26.9294 22.1051 26.9272 20.4896V19.9035H33.3675C33.6902 19.9035 33.9514 19.6423 33.9514 19.3196C33.9514 18.9947 33.6902 18.7335 33.3675 18.7335H31.6115V10.1948L32.9526 11.536V11.5382C33.1831 11.7599 33.5475 11.7555 33.7736 11.5316C33.9997 11.3055 34.0019 10.939 33.7802 10.7107L31.438 8.36855H31.4402C31.3305 8.25879 31.1812 8.19733 31.0253 8.19733C30.8695 8.19733 30.7202 8.25879 30.6105 8.36855L28.2683 10.7107H28.2705C28.0488 10.939 28.051 11.3056 28.2771 11.5316C28.5032 11.7555 28.8676 11.7599 29.098 11.5382L30.4392 10.1948V18.7335H26.9271V16.7865C26.9271 16.5845 26.8239 16.3979 26.6549 16.2904C25.2764 15.4167 24.1877 14.1546 23.5291 12.6598C22.8706 11.165 22.6731 9.50984 22.9584 7.9031C23.2416 6.28753 24.0055 4.79711 25.1491 3.6271C26.2949 2.45496 27.7656 1.65594 29.3724 1.33327C29.9102 1.23011 30.4568 1.17743 31.0055 1.17743C33.3915 1.16865 35.6634 2.20251 37.2239 4.00689C38.7867 5.81121 39.4826 8.20826 39.1314 10.5703C38.778 12.93 37.4148 15.0197 35.3954 16.2931L35.3957 16.2904Z" fill="white"/>
</svg>
