<svg width="48" height="49" viewBox="0 0 48 49" fill="none" xmlns="http://www.w3.org/2000/svg">
<g clip-path="url(#clip0_989_37852)">
<path d="M22.5 6.5C24.4891 6.5 26.3968 7.29018 27.8033 8.6967C29.2098 10.1032 30 12.0109 30 14C30 15.569 29.499 16.769 28.731 17.72C28.1889 18.3659 27.5588 18.9325 26.859 19.403L26.358 19.754C25.572 20.3 25.005 20.705 24.6 21.203C24.1853 21.7064 23.9715 22.3454 24 22.997V25.997C24 26.3948 23.842 26.7764 23.5607 27.0577C23.2794 27.339 22.8978 27.497 22.5 27.497C22.1022 27.497 21.7206 27.339 21.4393 27.0577C21.158 26.7764 21 26.3948 21 25.997V22.997C21 21.44 21.504 20.249 22.275 19.307C22.83 18.629 23.514 18.095 24.123 17.657L24.642 17.294C25.422 16.751 25.989 16.343 26.394 15.839C26.8164 15.322 27.0323 14.6668 27 14C27 12.8065 26.5259 11.6619 25.682 10.818C24.8381 9.97411 23.6935 9.5 22.5 9.5C21.3065 9.5 20.1619 9.97411 19.318 10.818C18.4741 11.6619 18 12.8065 18 14C18 14.3978 17.842 14.7794 17.5607 15.0607C17.2794 15.342 16.8978 15.5 16.5 15.5C16.1022 15.5 15.7206 15.342 15.4393 15.0607C15.158 14.7794 15 14.3978 15 14C15 12.0109 15.7902 10.1032 17.1967 8.6967C18.6032 7.29018 20.5109 6.5 22.5 6.5ZM22.5 30.8C23.1962 30.8 23.8639 31.0766 24.3562 31.5688C24.8484 32.0611 25.125 32.7288 25.125 33.425C25.125 34.1212 24.8484 34.7889 24.3562 35.2812C23.8639 35.7734 23.1962 36.05 22.5 36.05C21.8038 36.05 21.1361 35.7734 20.6438 35.2812C20.1516 34.7889 19.875 34.1212 19.875 33.425C19.875 32.7288 20.1516 32.0611 20.6438 31.5688C21.1361 31.0766 21.8038 30.8 22.5 30.8Z" fill="#454545"/>
<path fill-rule="evenodd" clip-rule="evenodd" d="M22.5007 42.4999C26.0407 42.4999 29.0707 42.0889 31.6507 41.3329C34.6507 43.4299 38.6407 45.5929 43.8007 48.1429C46.5487 49.5109 49.1707 46.4089 47.4307 43.8829C45.2497 40.6729 43.3507 37.5529 41.8507 34.0129C44.0587 30.5029 44.9707 26.1829 44.9707 21.5029C44.9707 9.89293 39.3307 0.50293 22.4707 0.50293C5.6107 0.50293 -0.0292969 9.92293 -0.0292969 21.5029C-0.0292969 33.1129 5.6107 42.5029 22.4707 42.5029L22.5007 42.4999ZM39.3307 32.4199C39.0733 32.8276 38.9178 33.2912 38.8776 33.7717C38.8374 34.2521 38.9136 34.7352 39.0997 35.1799C40.6477 38.8699 42.6097 42.1099 44.7697 45.2899C39.8197 42.8209 36.1297 40.7899 33.3697 38.8699C33.0021 38.6134 32.5817 38.4425 32.1394 38.3699C31.697 38.2972 31.2441 38.3245 30.8137 38.4499C28.5397 39.1129 25.8037 39.4969 22.5037 39.4969C14.6137 39.4969 9.9037 37.3129 7.1137 34.3069C4.2907 31.2469 3.0007 26.8669 3.0007 21.4969C3.0007 16.1269 4.3027 11.7169 7.1107 8.68693C9.8917 5.68693 14.6107 3.49693 22.5007 3.49693C30.3907 3.49693 35.1007 5.68093 37.8907 8.68693C40.7107 11.7469 42.0007 16.1269 42.0007 21.4969C42.0007 25.8169 41.1487 29.5369 39.3367 32.4169L39.3307 32.4199Z" fill="#454545"/>
</g>
<defs>
<clipPath id="clip0_989_37852">
<rect width="48" height="48" fill="white" transform="translate(0 0.5)"/>
</clipPath>
</defs>
</svg>
