<svg width="33" height="32" viewBox="0 0 33 32" fill="none" xmlns="http://www.w3.org/2000/svg">
<path d="M31.5239 30.8114H30.381C29.1686 30.8114 28.0058 30.3297 27.1485 29.4724C26.2912 28.6151 25.8096 27.4523 25.8096 26.2399C25.8096 27.4523 25.3279 28.6151 24.4706 29.4724C23.6133 30.3297 22.4506 30.8114 21.2381 30.8114C20.0257 30.8114 18.863 30.3297 18.0057 29.4724C17.1483 28.6151 16.6667 27.4523 16.6667 26.2399C16.6667 27.4523 16.1851 28.6151 15.3278 29.4724C14.4705 30.3297 13.3077 30.8114 12.0953 30.8114C10.8829 30.8114 9.72011 30.3297 8.8628 29.4724C8.00549 28.6151 7.52386 27.4523 7.52386 26.2399C7.52386 27.4523 7.04223 28.6151 6.18492 29.4724C5.32761 30.3297 4.16485 30.8114 2.95243 30.8114H1.80957M23.5239 21.6685C22.3467 20.2373 20.8671 19.0846 19.1914 18.2932C17.5157 17.5018 15.6856 17.0913 13.8324 17.0913C11.9793 17.0913 10.1491 17.5018 8.47345 18.2932C6.79778 19.0846 5.3182 20.2373 4.141 21.6685" stroke="#262626" stroke-width="1.71429" stroke-linecap="round" stroke-linejoin="round"/>
<path d="M15.5235 17.2113C15.6606 12.0456 17.2377 7.33706 20.6663 5.64563M13.832 1.30277C15.3137 1.01102 16.8508 1.2988 18.1266 2.10679C19.4024 2.91479 20.3196 4.18142 20.6892 5.64563" stroke="#262626" stroke-width="1.71429" stroke-linecap="round" stroke-linejoin="round"/>
<path d="M29.0327 6.49126C27.9807 5.35532 26.5501 4.64255 25.0097 4.48683C23.4693 4.3311 21.9251 4.74314 20.667 5.64555" stroke="#262626" stroke-width="1.71429" stroke-linecap="round" stroke-linejoin="round"/>
<path d="M12.2783 8.09129C13.174 6.77176 14.5016 5.80568 16.0326 5.35929C17.5637 4.91291 19.2024 5.01415 20.6669 5.64558C22.1358 6.00483 23.4077 6.92095 24.2137 8.20044C25.0198 9.47993 25.2971 11.0226 24.9869 12.5027" stroke="#262626" stroke-width="1.71429" stroke-linecap="round" stroke-linejoin="round"/>
</svg>
