<svg width="32" height="32" viewBox="0 0 32 32" fill="none" xmlns="http://www.w3.org/2000/svg">
<path d="M29.3333 22.6666V18.6666M29.3333 18.6666H2.66666M29.3333 18.6666H16V11.9999H25.3333C26.3942 11.9999 27.4116 12.4213 28.1617 13.1715C28.9119 13.9216 29.3333 14.9391 29.3333 15.9999V18.6666ZM2.66666 10.6666V22.6666M6.66666 11.9999C6.66666 12.7072 6.94761 13.3854 7.4477 13.8855C7.9478 14.3856 8.62608 14.6666 9.33332 14.6666C10.0406 14.6666 10.7188 14.3856 11.2189 13.8855C11.719 13.3854 12 12.7072 12 11.9999C12 11.2927 11.719 10.6144 11.2189 10.1143C10.7188 9.6142 10.0406 9.33325 9.33332 9.33325C8.62608 9.33325 7.9478 9.6142 7.4477 10.1143C6.94761 10.6144 6.66666 11.2927 6.66666 11.9999Z" stroke="#262626" stroke-width="2" stroke-linecap="round" stroke-linejoin="round"/>
</svg>
