<svg width="48" height="48" viewBox="0 0 48 48" fill="none" xmlns="http://www.w3.org/2000/svg">
<path d="M24 0.5L24.3566 6.44299C24.5824 10.2043 29.5662 11.3622 31.427 8.08558L34.4132 2.82723L32.158 8.19781C30.6931 11.6862 34.6873 14.9285 37.8 12.7778L42.764 9.34799L38.4418 13.1498C35.5869 15.661 37.8015 20.3423 41.5537 19.7278L47.3983 18.7708L41.8212 20.3594C38.1566 21.4032 38.1566 26.5968 41.8212 27.6406L47.3983 29.2292L41.5537 28.2722C37.8015 27.6577 35.5869 32.339 38.4418 34.8502L42.764 38.652L37.8 35.2222C34.6873 33.0715 30.6931 36.3138 32.158 39.8022L34.4132 45.1728L31.427 39.9144C29.5662 36.6378 24.5824 37.7957 24.3566 41.557L24 47.5L23.6434 41.557C23.4176 37.7957 18.4338 36.6378 16.573 39.9144L13.5868 45.1728L15.842 39.8022C17.3069 36.3138 13.3127 33.0715 10.2 35.2222L5.23604 38.652L9.55819 34.8502C12.4131 32.339 10.1985 27.6577 6.44627 28.2722L0.60173 29.2292L6.17881 27.6406C9.8434 26.5968 9.8434 21.4032 6.17881 20.3594L0.60173 18.7708L6.44628 19.7278C10.1985 20.3423 12.4131 15.661 9.55819 13.1498L5.23604 9.34799L10.2 12.7778C13.3127 14.9285 17.3069 11.6862 15.842 8.1978L13.5868 2.82723L16.573 8.08558C18.4338 11.3622 23.4176 10.2043 23.6434 6.44299L24 0.5Z" fill="#7A8D83"/>
</svg>
