<svg width="48" height="48" viewBox="0 0 48 48" fill="none" xmlns="http://www.w3.org/2000/svg">
<path d="M24 0.5L28.4219 5.02985L34.4132 2.82723L36.39 8.78712L42.764 9.34799L41.9041 15.5575L47.3983 18.7708L43.872 24L47.3983 29.2292L41.9041 32.4425L42.764 38.652L36.39 39.2129L34.4132 45.1728L28.4219 42.9701L24 47.5L19.5781 42.9701L13.5868 45.1728L11.61 39.2129L5.23604 38.652L6.09595 32.4425L0.60173 29.2292L4.128 24L0.60173 18.7708L6.09595 15.5575L5.23604 9.34799L11.61 8.78712L13.5868 2.82723L19.5781 5.02985L24 0.5Z" fill="white"/>
</svg>
