<svg width="48" height="48" viewBox="0 0 48 48" fill="none" xmlns="http://www.w3.org/2000/svg">
<path d="M28.6333 18.1954C28.3562 17.4163 27.8452 16.7418 27.1701 16.2644C26.4949 15.7869 25.6888 15.5297 24.8618 15.528H21.7658C20.8826 15.5234 20.029 15.8464 19.3701 16.4347C18.7112 17.023 18.2939 17.8346 18.1988 18.7128C18.1037 19.5909 18.3375 20.4731 18.8552 21.1888C19.3729 21.9045 20.1375 22.4028 21.0013 22.5874L25.7156 23.616C26.6795 23.827 27.5315 24.3868 28.1078 25.1879C28.6841 25.9889 28.944 26.9746 28.8377 27.9556C28.7314 28.9367 28.2663 29.8438 27.5318 30.5028C26.7973 31.1618 25.8452 31.5261 24.8584 31.5257H22.1944C20.4527 31.5257 18.9716 30.4149 18.423 28.8617M23.5281 15.528V11.5269M23.5281 35.5269V31.5291M6.85156 46.2789V37.7074H15.423" stroke="#454545" stroke-width="2.5" stroke-linecap="round" stroke-linejoin="round"/>
<path d="M45.9023 19.8995C46.8125 24.7516 46.0858 29.7687 43.8363 34.1632C41.5868 38.5577 37.9417 42.0808 33.4733 44.1797C29.0049 46.2785 23.9661 46.8343 19.1477 45.7597C14.3292 44.6851 10.004 42.041 6.85088 38.2423M2.09888 28.1006C1.18867 23.2485 1.91537 18.2314 4.16489 13.8369C6.41442 9.44246 10.0594 5.9193 14.5278 3.82044C18.9963 1.72158 24.0351 1.16584 28.8535 2.24044C33.6719 3.31504 37.9971 5.95915 41.1503 9.75777" stroke="#454545" stroke-width="2.5" stroke-linecap="round" stroke-linejoin="round"/>
<path d="M41.1496 1.72119V10.2926H32.5781" stroke="#454545" stroke-width="1.71429" stroke-linecap="round" stroke-linejoin="round"/>
</svg>
