<svg width="49" height="48" viewBox="0 0 49 48" fill="none" xmlns="http://www.w3.org/2000/svg">
<path d="M47.5548 4.62848H42.5532V0.654665C42.5532 0.481037 42.4842 0.31452 42.3614 0.191747C42.2387 0.0689735 42.0722 0 41.8985 0H0.654664C0.481037 0 0.31452 0.0689735 0.191747 0.191747C0.0689735 0.31452 0 0.481037 0 0.654665V41.8985C0 42.0722 0.0689735 42.2387 0.191747 42.3614C0.31452 42.4842 0.481037 42.5532 0.654664 42.5532H4.82488V47.3453C4.82488 47.519 4.89385 47.6855 5.01662 47.8083C5.1394 47.931 5.30591 48 5.47954 48H47.5548C47.7285 48 47.895 47.931 48.0177 47.8083C48.1405 47.6855 48.2095 47.519 48.2095 47.3453V5.28314C48.2095 5.10951 48.1405 4.943 48.0177 4.82023C47.895 4.69745 47.7285 4.62848 47.5548 4.62848ZM1.31588 1.30933H41.2504V41.2439H1.31588V1.30933ZM46.9002 46.6907H6.14075V42.5466H41.8985C42.0722 42.5466 42.2387 42.4777 42.3614 42.3549C42.4842 42.2321 42.5532 42.0656 42.5532 41.892V5.93781H46.9002V46.6907Z" fill="white"/>
<path d="M23.4467 36.7726C23.2888 36.7744 23.1356 36.7191 23.0153 36.6168C22.895 36.5146 22.8157 36.3723 22.792 36.2162C22.6897 35.572 22.3778 34.9796 21.9047 34.5306C21.4316 34.0816 20.8237 33.8011 20.175 33.7325C19.5264 33.6639 18.8733 33.8111 18.3167 34.1512C17.7602 34.4913 17.3313 35.0054 17.0965 35.6139C17.0653 35.6945 17.0186 35.7681 16.9589 35.8305C16.8992 35.8929 16.8277 35.9429 16.7486 35.9776C16.6695 36.0123 16.5843 36.031 16.4979 36.0326C16.4116 36.0342 16.3257 36.0187 16.2454 35.987C15.2038 35.5771 14.2166 35.0406 13.306 34.3896C13.2357 34.3395 13.176 34.276 13.1303 34.2027C13.0847 34.1295 13.054 34.0479 13.04 33.9627C13.026 33.8775 13.029 33.7904 13.0488 33.7064C13.0686 33.6224 13.1048 33.5431 13.1554 33.4731C13.5176 32.9469 13.7003 32.3178 13.6761 31.6794C13.652 31.041 13.4223 30.4275 13.0214 29.9301C12.6204 29.4328 12.0696 29.0782 11.4508 28.9192C10.8321 28.7602 10.1785 28.8052 9.58746 29.0476C9.50846 29.0835 9.42311 29.1033 9.33638 29.1059C9.24965 29.1085 9.16327 29.0939 9.08225 29.0628C9.00123 29.0318 8.92719 28.9849 8.86445 28.925C8.8017 28.865 8.7515 28.7932 8.71675 28.7137C8.27006 27.6874 7.95125 26.61 7.76749 25.5058C7.73842 25.3386 7.77542 25.1667 7.87068 25.0262C7.96595 24.8858 8.11203 24.7878 8.27813 24.753C8.92228 24.6506 9.51471 24.3387 9.9637 23.8656C10.4127 23.3925 10.6932 22.7846 10.7618 22.136C10.8304 21.4874 10.6832 20.8342 10.3431 20.2777C10.003 19.7211 9.48891 19.2922 8.88042 19.0574C8.79984 19.0263 8.7262 18.9795 8.66377 18.9198C8.60134 18.8601 8.55134 18.7887 8.51665 18.7096C8.48196 18.6304 8.46327 18.5453 8.46166 18.4589C8.46005 18.3725 8.47555 18.2867 8.50726 18.2063C8.9176 17.1649 9.45406 16.1778 10.1046 15.2669C10.1548 15.1966 10.2183 15.1369 10.2915 15.0913C10.3648 15.0456 10.4464 15.0149 10.5316 15.0009C10.6168 14.9869 10.7039 14.9899 10.7879 15.0097C10.8719 15.0295 10.9512 15.0658 11.0212 15.1163C11.5493 15.5033 12.1906 15.7047 12.8451 15.6891C13.4996 15.6734 14.1306 15.4416 14.6396 15.0298C15.1486 14.6179 15.507 14.0493 15.6589 13.4124C15.8108 12.7756 15.7477 12.1064 15.4794 11.5091C15.4446 11.4305 15.4255 11.3457 15.4234 11.2597C15.4214 11.1737 15.4362 11.0881 15.4672 11.0078C15.4983 10.9276 15.5448 10.8542 15.6042 10.7919C15.6635 10.7297 15.7346 10.6797 15.8133 10.645C16.8397 10.1983 17.917 9.87952 19.0212 9.6957C19.1063 9.68169 19.1934 9.68465 19.2774 9.70441C19.3614 9.72417 19.4406 9.76033 19.5106 9.81083C19.5806 9.86133 19.6399 9.92516 19.6851 9.99865C19.7303 10.0721 19.7605 10.1539 19.774 10.2391C19.8764 10.8832 20.1883 11.4757 20.6614 11.9246C21.1345 12.3736 21.7424 12.6541 22.391 12.7227C23.0397 12.7913 23.6928 12.6442 24.2493 12.3041C24.8059 11.9639 25.2348 11.4498 25.4696 10.8414C25.5007 10.7608 25.5475 10.6871 25.6072 10.6247C25.6669 10.5623 25.7383 10.5123 25.8175 10.4776C25.8966 10.4429 25.9818 10.4242 26.0681 10.4226C26.1545 10.421 26.2403 10.4365 26.3207 10.4682C27.3623 10.8781 28.3495 11.4146 29.2601 12.0656C29.3304 12.1157 29.3901 12.1792 29.4358 12.2525C29.4814 12.3258 29.5121 12.4073 29.5261 12.4925C29.5401 12.5777 29.5371 12.6648 29.5173 12.7488C29.4975 12.8329 29.4613 12.9121 29.4107 12.9821C29.0268 13.5104 28.8281 14.1506 28.8452 14.8034C28.8624 15.4562 29.0946 16.0851 29.5057 16.5925C29.9168 17.0998 30.4839 17.4573 31.1189 17.6094C31.754 17.7616 32.4215 17.6998 33.0179 17.4338C33.0969 17.3979 33.1822 17.3781 33.269 17.3755C33.3557 17.3729 33.4421 17.3875 33.5231 17.4186C33.6041 17.4497 33.6782 17.4965 33.7409 17.5565C33.8037 17.6164 33.8539 17.6882 33.8886 17.7677C34.3352 18.7941 34.654 19.8714 34.8379 20.9756C34.8623 21.1465 34.8182 21.3201 34.7152 21.4586C34.6122 21.5972 34.4586 21.6894 34.288 21.7153C33.6428 21.817 33.0493 22.1288 32.5994 22.6023C32.1496 23.0758 31.8687 23.6845 31.8002 24.334C31.7339 24.9835 31.8832 25.6367 32.2252 26.1928C32.5671 26.749 33.0827 27.177 33.6922 27.4109C33.7728 27.442 33.8464 27.4888 33.9089 27.5485C33.9713 27.6082 34.0213 27.6796 34.056 27.7588C34.0907 27.8379 34.1094 27.9231 34.111 28.0094C34.1126 28.0958 34.0971 28.1816 34.0654 28.262C33.6551 29.3034 33.1186 30.2906 32.468 31.2014C32.4179 31.2717 32.3543 31.3314 32.2811 31.3771C32.2078 31.4227 32.1262 31.4534 32.041 31.4674C31.9559 31.4814 31.8687 31.4784 31.7847 31.4586C31.7007 31.4388 31.6214 31.4026 31.5515 31.352C31.0232 30.9681 30.383 30.7694 29.7302 30.7865C29.0774 30.8037 28.4485 31.0359 27.9411 31.447C27.4337 31.8581 27.0763 32.4252 26.9241 33.0602C26.772 33.6953 26.8337 34.3628 27.0997 34.9592C27.1346 35.0379 27.1536 35.1226 27.1557 35.2086C27.1578 35.2946 27.1429 35.3802 27.1119 35.4605C27.0809 35.5408 27.0344 35.6141 26.975 35.6764C26.9156 35.7386 26.8446 35.7886 26.7659 35.8234C25.7374 36.2704 24.6578 36.5893 23.5515 36.7726H23.4467ZM19.8722 32.406C20.775 32.405 21.6549 32.6902 22.3854 33.2207C23.1159 33.7512 23.6594 34.4997 23.9377 35.3585C24.5301 35.229 25.1121 35.0562 25.6791 34.8414C25.4668 34.0436 25.4901 33.2015 25.746 32.4166C26.002 31.6318 26.4797 30.9378 27.1214 30.4186C27.7632 29.8994 28.5416 29.5771 29.3626 29.4906C30.1835 29.4041 31.012 29.5572 31.7479 29.9314C32.0744 29.4207 32.3633 28.8868 32.612 28.334C31.8965 27.9201 31.3161 27.308 30.9409 26.5714C30.5656 25.8349 30.4116 25.0055 30.4974 24.1834C30.5858 23.3624 30.9096 22.5844 31.43 21.9432C31.9504 21.3021 32.645 20.825 33.4303 20.5697C33.3006 19.9774 33.1278 19.3954 32.9132 18.8283C32.1154 19.0406 31.2732 19.0173 30.4884 18.7614C29.7036 18.5054 29.0096 18.0277 28.4904 17.3859C27.9712 16.7442 27.6489 15.9658 27.5624 15.1448C27.4759 14.3238 27.629 13.4954 28.0032 12.7595C27.4927 12.4325 26.9588 12.1437 26.4058 11.8954C25.992 12.61 25.3801 13.1894 24.6441 13.5637C23.9081 13.938 23.0794 14.0912 22.2582 14.0046C21.437 13.9181 20.6585 13.5955 20.0166 13.076C19.3748 12.5565 18.8972 11.8622 18.6415 11.077C18.0491 11.2066 17.4671 11.3794 16.9001 11.5942C17.114 12.3924 17.0921 13.2355 16.8368 14.0215C16.5816 14.8075 16.104 15.5026 15.4619 16.0228C14.8198 16.543 14.0407 16.8659 13.2189 16.9525C12.3971 17.0391 11.5677 16.8857 10.8313 16.5108C10.5044 17.0212 10.2155 17.5551 9.96716 18.1081C10.6817 18.5219 11.2612 19.1338 11.6355 19.8698C12.0098 20.6059 12.1629 21.4345 12.0764 22.2557C11.9898 23.0769 11.6673 23.8555 11.1478 24.4973C10.6283 25.1391 9.93398 25.6167 9.14883 25.8725C9.27659 26.4624 9.44726 27.0422 9.65947 27.6073C10.4572 27.395 11.2994 27.4183 12.0842 27.6742C12.869 27.9302 13.563 28.4079 14.0822 29.0496C14.6015 29.6914 14.9238 30.4698 15.0102 31.2908C15.0967 32.1118 14.9436 32.9402 14.5695 33.6761C15.0799 34.0031 15.6138 34.2919 16.1668 34.5402C16.5457 33.8946 17.0872 33.3596 17.7374 32.9885C18.3876 32.6175 19.1237 32.4234 19.8722 32.4256V32.406ZM21.2863 28.8577C20.1793 28.8577 19.0971 28.5294 18.1766 27.9144C17.2561 27.2994 16.5387 26.4252 16.115 25.4024C15.6914 24.3796 15.5805 23.2541 15.7965 22.1684C16.0125 21.0826 16.5456 20.0852 17.3284 19.3024C18.1112 18.5196 19.1085 17.9865 20.1943 17.7705C21.2801 17.5545 22.4056 17.6654 23.4283 18.089C24.4511 18.5127 25.3253 19.2301 25.9404 20.1506C26.5554 21.0711 26.8837 22.1533 26.8837 23.2603C26.8768 24.7409 26.2842 26.1586 25.2354 27.2037C24.1867 28.2488 22.7669 28.8364 21.2863 28.8381V28.8577ZM21.2863 18.9657C20.4385 18.9657 19.6097 19.2171 18.9047 19.688C18.1997 20.1589 17.65 20.8282 17.3253 21.6113C17.0006 22.3945 16.9153 23.2563 17.0802 24.088C17.2451 24.9196 17.6529 25.6836 18.2519 26.2836C18.8509 26.8836 19.6144 27.2925 20.4457 27.4587C21.2771 27.6249 22.1391 27.5409 22.9227 27.2173C23.7064 26.8938 24.3766 26.3452 24.8485 25.6409C25.3205 24.9366 25.5731 24.1082 25.5744 23.2603C25.5769 22.6953 25.468 22.1352 25.2537 21.6124C25.0395 21.0895 24.7241 20.614 24.3258 20.2132C23.9274 19.8124 23.4539 19.4942 22.9323 19.2768C22.4107 19.0593 21.8514 18.947 21.2863 18.9461V18.9657Z" fill="white"/>
<path d="M14.9584 4.71338H10.9453V6.02271H14.9584V4.71338Z" fill="white"/>
<path d="M8.00651 4.41253L7.08343 3.48291L6.12762 4.43872L5.17181 3.48291L4.24219 4.41253L5.198 5.36834L4.24219 6.32415L5.17181 7.24723L6.12762 6.29142L7.08343 7.24723L8.00651 6.32415L7.0507 5.36834L8.00651 4.41253Z" fill="white"/>
</svg>
