<svg width="33" height="32" viewBox="0 0 33 32" fill="none" xmlns="http://www.w3.org/2000/svg">
<path d="M5.66602 24.5133V20.5133C5.66602 19.0279 6.18379 17.7675 7.21935 16.7319C8.25402 15.6973 9.51402 15.1799 10.9993 15.1799H25.2994C25.7731 15.1799 26.1749 15.3399 26.5047 15.6599C26.8345 15.9817 26.9993 16.3773 26.9993 16.8466C26.9993 17.2448 26.8825 17.5919 26.6487 17.8879C26.414 18.1848 26.1113 18.3879 25.7407 18.4973L21.922 19.5253V24.5639C21.922 24.9435 21.8376 25.287 21.6687 25.5946C21.4998 25.9021 21.2727 26.1555 20.9873 26.3546C20.6976 26.5519 20.3807 26.6728 20.0367 26.7173C19.6927 26.7617 19.3371 26.7101 18.97 26.5626L13.7833 24.5133H5.66602ZM20.5887 20.5133H12.5753C12.2838 20.5133 12.0438 20.6088 11.8553 20.7999C11.666 20.9919 11.5687 21.2204 11.5633 21.4853C11.558 21.6808 11.6091 21.8719 11.7167 22.0586C11.8242 22.2453 11.9953 22.3853 12.23 22.4786L19.4607 25.3333C19.7345 25.4364 19.9909 25.4066 20.23 25.2439C20.4691 25.0813 20.5891 24.8546 20.59 24.5639L20.5887 20.5133ZM6.99935 23.1799H11.2607C10.9602 22.995 10.7131 22.7577 10.5193 22.4679C10.3265 22.1781 10.23 21.8639 10.23 21.5252C10.23 20.8835 10.4607 20.3324 10.922 19.8719C11.3825 19.4097 11.9336 19.1786 12.5753 19.1786H17.8553L25.3993 17.2133C25.5105 17.1688 25.5882 17.1133 25.6327 17.0466C25.6771 16.9799 25.6882 16.9021 25.666 16.8133C25.6438 16.7244 25.6047 16.6524 25.5487 16.5973C25.4927 16.5421 25.4096 16.5146 25.2994 16.5146H10.9993C9.88824 16.5146 8.94379 16.9035 8.16602 17.6813C7.38824 18.459 6.99935 19.403 6.99935 20.5133V23.1799ZM13.666 13.3333C12.5665 13.3333 11.6247 12.9417 10.8407 12.1586C10.0567 11.3755 9.66513 10.4337 9.66602 9.33325C9.6669 8.23281 10.0585 7.29103 10.8407 6.50792C11.6229 5.72481 12.5647 5.33325 13.666 5.33325C14.7673 5.33325 15.7091 5.72481 16.4914 6.50792C17.2736 7.29103 17.6651 8.23281 17.666 9.33325C17.6669 10.4337 17.2753 11.3755 16.4914 12.1586C15.7073 12.9417 14.7656 13.3333 13.666 13.3333ZM13.666 11.9999C14.3993 11.9999 15.0273 11.739 15.55 11.2173C16.0727 10.6955 16.3336 10.0675 16.3327 9.33325C16.3318 8.59903 16.0709 7.97147 15.55 7.45058C15.0291 6.9297 14.4011 6.66836 13.666 6.66659C12.9309 6.66481 12.3033 6.92614 11.7833 7.45058C11.2633 7.97503 11.002 8.60259 10.9993 9.33325C10.9967 10.0639 11.258 10.6919 11.7833 11.2173C12.3087 11.7426 12.9362 12.0035 13.666 11.9999Z" fill="#262626"/>
</svg>
