<svg width="33" height="32" viewBox="0 0 33 32" fill="none" xmlns="http://www.w3.org/2000/svg">
<path d="M26.0007 13.3333V8.26667C26.0007 6.77319 26.0007 6.02646 25.71 5.45603C25.4543 4.95426 25.0464 4.54631 24.5446 4.29065C23.9742 4 23.2275 4 21.734 4H11.6007C10.1072 4 9.36044 4 8.79001 4.29065C8.28824 4.54631 7.8803 4.95426 7.62463 5.45603C7.33398 6.02646 7.33398 6.77319 7.33398 8.26667V13.3333M7.33398 12H3.33398V10.6667M26.0007 12H30.0007V10.6667M8.66732 18H8.68065M24.6673 18H24.6807M9.73398 13.3333H23.6007C25.8409 13.3333 26.961 13.3333 27.8166 13.7693C28.5693 14.1528 29.1812 14.7647 29.5647 15.5174C30.0007 16.373 30.0007 17.4931 30.0007 19.7333V24C30.0007 25.2425 30.0007 25.8638 29.7977 26.3538C29.527 27.0072 29.0079 27.5264 28.3545 27.797C27.8644 28 27.2432 28 26.0007 28H25.2007C24.7052 28 24.4574 28 24.2502 27.9672C23.1091 27.7864 22.2142 26.8915 22.0335 25.7505C22.0007 25.5432 22.0007 25.2955 22.0007 24.8C22.0007 24.6761 22.0007 24.6142 21.9924 24.5624C21.9473 24.2771 21.7235 24.0534 21.4383 24.0082C21.3865 24 21.3245 24 21.2007 24H12.134C12.0101 24 11.9482 24 11.8964 24.0082C11.6111 24.0534 11.3874 24.2771 11.3422 24.5624C11.334 24.6142 11.334 24.6761 11.334 24.8C11.334 25.2955 11.334 25.5432 11.3012 25.7505C11.1204 26.8915 10.2255 27.7864 9.08448 27.9672C8.87719 28 8.62945 28 8.13398 28H7.33398C6.09147 28 5.47022 28 4.98016 27.797C4.32675 27.5264 3.80762 27.0072 3.53697 26.3538C3.33398 25.8638 3.33398 25.2425 3.33398 24V19.7333C3.33398 17.4931 3.33398 16.373 3.76996 15.5174C4.15345 14.7647 4.76537 14.1528 5.51802 13.7693C6.37367 13.3333 7.49377 13.3333 9.73398 13.3333ZM9.33398 18C9.33398 18.3682 9.03551 18.6667 8.66732 18.6667C8.29913 18.6667 8.00065 18.3682 8.00065 18C8.00065 17.6318 8.29913 17.3333 8.66732 17.3333C9.03551 17.3333 9.33398 17.6318 9.33398 18ZM25.334 18C25.334 18.3682 25.0355 18.6667 24.6673 18.6667C24.2991 18.6667 24.0007 18.3682 24.0007 18C24.0007 17.6318 24.2991 17.3333 24.6673 17.3333C25.0355 17.3333 25.334 17.6318 25.334 18Z" stroke="#262626" stroke-width="2" stroke-linecap="round" stroke-linejoin="round"/>
</svg>
