<svg width="33" height="32" viewBox="0 0 33 32" fill="none" xmlns="http://www.w3.org/2000/svg">
<path d="M23.5007 26.6667C23.5007 24.4576 20.5159 22.6667 16.834 22.6667C13.1521 22.6667 10.1673 24.4576 10.1673 26.6667M28.834 22.6672C28.834 21.027 27.1885 19.6173 24.834 19.0001M4.83398 22.6672C4.83398 21.027 6.47944 19.6173 8.83398 19.0001M24.834 13.6482C25.6523 12.9158 26.1673 11.8514 26.1673 10.6667C26.1673 8.45761 24.3765 6.66675 22.1673 6.66675C21.1428 6.66675 20.2083 7.05189 19.5007 7.68527M8.83398 13.6482C8.01565 12.9158 7.50065 11.8514 7.50065 10.6667C7.50065 8.45761 9.29151 6.66675 11.5007 6.66675C12.5251 6.66675 13.4596 7.05189 14.1673 7.68527M16.834 18.6667C14.6248 18.6667 12.834 16.8759 12.834 14.6667C12.834 12.4576 14.6248 10.6667 16.834 10.6667C19.0431 10.6667 20.834 12.4576 20.834 14.6667C20.834 16.8759 19.0431 18.6667 16.834 18.6667Z" stroke="black" stroke-width="2" stroke-linecap="round" stroke-linejoin="round"/>
</svg>
