<svg width="25" height="25" viewBox="0 0 25 25" fill="none" xmlns="http://www.w3.org/2000/svg">
<path d="M19.333 21.5V15.5M16.333 18.5H22.333M12.333 15.5H8.33301C6.46924 15.5 5.53736 15.5 4.80227 15.8045C3.82216 16.2105 3.04347 16.9892 2.63749 17.9693C2.33301 18.7044 2.33301 19.6362 2.33301 21.5M15.833 3.79076C17.2989 4.38415 18.333 5.82131 18.333 7.5C18.333 9.17869 17.2989 10.6159 15.833 11.2092M13.833 7.5C13.833 9.70914 12.0421 11.5 9.83301 11.5C7.62387 11.5 5.83301 9.70914 5.83301 7.5C5.83301 5.29086 7.62387 3.5 9.83301 3.5C12.0421 3.5 13.833 5.29086 13.833 7.5Z" stroke="#344054" stroke-width="2" stroke-linecap="round" stroke-linejoin="round"/>
</svg>
