<svg width="25" height="25" viewBox="0 0 25 25" fill="none" xmlns="http://www.w3.org/2000/svg">
<g clip-path="url(#clip0_2379_4223)">
<path d="M23.1059 9.58711C24.4218 8.27125 23.8218 6.73433 23.1059 5.98692L19.9477 2.82886C18.6212 1.513 17.0948 2.11303 16.3473 2.82886L14.5577 4.62895H11.831C9.83084 4.62895 8.67282 5.68164 8.08329 6.89223L3.40911 11.5662V15.7769L2.66166 16.5138C1.34574 17.8402 1.9458 19.3666 2.66166 20.114L5.81989 23.272C6.38837 23.8405 6.99896 24.051 7.57797 24.051C8.32542 24.051 9.0097 23.6826 9.42027 23.272L12.2627 20.4193H16.042C17.8317 20.4193 18.737 19.3034 19.0634 18.2086C20.253 17.8928 20.9057 16.9875 21.1689 16.1032C22.8006 15.6822 23.4112 14.1347 23.4112 13.0504V9.89239H22.7901L23.1059 9.58711ZM21.3057 13.0504C21.3057 13.5242 21.1057 14.1031 20.253 14.1031H19.2002V15.1558C19.2002 15.6295 19.0002 16.2085 18.1475 16.2085H17.0948V17.2612C17.0948 17.7349 16.8947 18.3139 16.042 18.3139H11.3994L7.94643 21.7667C7.62008 22.072 7.43059 21.893 7.31478 21.7772L4.16709 18.6402C3.86179 18.3139 4.04076 18.1244 4.15656 18.0086L5.5146 16.6401V12.4294L7.62008 10.324V11.9978C7.62008 13.2715 8.46227 15.1558 10.7783 15.1558C13.0943 15.1558 13.9365 13.2715 13.9365 11.9978H21.3057V13.0504ZM21.611 8.09229L19.8214 9.89239H11.831V11.9978C11.831 12.4715 11.631 13.0504 10.7783 13.0504C9.92558 13.0504 9.72556 12.4715 9.72556 11.9978V8.8397C9.72556 8.35546 9.90453 6.73433 11.831 6.73433H15.4209L17.8212 4.3342C18.1475 4.02892 18.337 4.20788 18.4528 4.32367L21.6005 7.46068C21.9058 7.78701 21.7268 7.9765 21.611 8.09229Z" fill="#344054"/>
</g>
<defs>
<clipPath id="clip0_2379_4223">
<rect width="24" height="24" fill="white" transform="translate(0.333008 0.5)"/>
</clipPath>
</defs>
</svg>
