<svg width="25" height="25" viewBox="0 0 25 25" fill="none" xmlns="http://www.w3.org/2000/svg">
<g clip-path="url(#clip0_2379_12979)">
<path d="M6.83885 7.25C6.21499 7.25 5.60514 7.07405 5.08642 6.74441C4.5677 6.41477 4.16341 5.94623 3.92467 5.39805C3.68593 4.84987 3.62346 4.24667 3.74517 3.66473C3.86688 3.08279 4.1673 2.54824 4.60843 2.12868C5.04957 1.70912 5.61161 1.4234 6.22348 1.30765C6.83535 1.19189 7.46957 1.2513 8.04594 1.47836C8.62231 1.70543 9.11495 2.08994 9.46154 2.58329C9.80814 3.07664 9.99314 3.65666 9.99314 4.25C9.99314 5.04565 9.66081 5.80871 9.06927 6.37132C8.47772 6.93393 7.67542 7.25 6.83885 7.25ZM6.83885 2.75C6.52692 2.75 6.222 2.83797 5.96264 3.0028C5.70328 3.16762 5.50113 3.40189 5.38176 3.67598C5.26239 3.95007 5.23116 4.25167 5.29201 4.54264C5.35287 4.83361 5.50307 5.10088 5.72364 5.31066C5.94421 5.52044 6.22523 5.6633 6.53117 5.72118C6.8371 5.77906 7.15421 5.74935 7.4424 5.63582C7.73058 5.52229 7.9769 5.33003 8.1502 5.08336C8.3235 4.83668 8.41599 4.54667 8.41599 4.25C8.41599 3.85218 8.24983 3.47065 7.95406 3.18934C7.65829 2.90804 7.25713 2.75 6.83885 2.75ZM19.456 7.25C18.8321 7.25 18.2223 7.07405 17.7036 6.74441C17.1848 6.41477 16.7806 5.94623 16.5418 5.39805C16.3031 4.84987 16.2406 4.24667 16.3623 3.66473C16.484 3.08279 16.7844 2.54824 17.2256 2.12868C17.6667 1.70912 18.2288 1.4234 18.8406 1.30765C19.4525 1.19189 20.0867 1.2513 20.6631 1.47836C21.2395 1.70543 21.7321 2.08994 22.0787 2.58329C22.4253 3.07664 22.6103 3.65666 22.6103 4.25C22.6103 5.04565 22.278 5.80871 21.6864 6.37132C21.0949 6.93393 20.2926 7.25 19.456 7.25ZM19.456 2.75C19.1441 2.75 18.8391 2.83797 18.5798 3.0028C18.3204 3.16762 18.1183 3.40189 17.9989 3.67598C17.8795 3.95007 17.8483 4.25167 17.9092 4.54264C17.97 4.83361 18.1202 5.10088 18.3408 5.31066C18.5614 5.52044 18.8424 5.6633 19.1483 5.72118C19.4542 5.77906 19.7714 5.74935 20.0595 5.63582C20.3477 5.52229 20.594 5.33003 20.7673 5.08336C20.9406 4.83668 21.0331 4.54667 21.0331 4.25C21.0331 3.85218 20.867 3.47065 20.5712 3.18934C20.2754 2.90804 19.8743 2.75 19.456 2.75ZM21.0331 23H17.8788C17.4606 23 17.0594 22.842 16.7636 22.5607C16.4679 22.2794 16.3017 21.8978 16.3017 21.5V16.25H17.8788V21.5H21.0331V14.75H22.6103V10.25C22.6103 10.0511 22.5272 9.86032 22.3793 9.71967C22.2314 9.57902 22.0308 9.5 21.8217 9.5H16.7591L13.1474 15.5L9.53576 9.5H4.47314C4.26399 9.5 4.06342 9.57902 3.91553 9.71967C3.76765 9.86032 3.68456 10.0511 3.68456 10.25V14.75H5.26171V21.5H8.41599V16.25H9.99314V21.5C9.99314 21.8978 9.82697 22.2794 9.5312 22.5607C9.23543 22.842 8.83428 23 8.41599 23H5.26171C4.84342 23 4.44227 22.842 4.1465 22.5607C3.85073 22.2794 3.68456 21.8978 3.68456 21.5V16.25C3.26628 16.25 2.86513 16.092 2.56936 15.8107C2.27358 15.5294 2.10742 15.1478 2.10742 14.75V10.25C2.10742 9.65326 2.35667 9.08097 2.80032 8.65901C3.24398 8.23705 3.84571 8 4.47314 8H10.4505L13.1474 12.5L15.8443 8H21.8217C22.4491 8 23.0509 8.23705 23.4945 8.65901C23.9382 9.08097 24.1874 9.65326 24.1874 10.25V14.75C24.1874 15.1478 24.0213 15.5294 23.7255 15.8107C23.4297 16.092 23.0286 16.25 22.6103 16.25V21.5C22.6103 21.8978 22.4441 22.2794 22.1483 22.5607C21.8526 22.842 21.4514 23 21.0331 23Z" fill="#344054"/>
</g>
<defs>
<clipPath id="clip0_2379_12979">
<rect width="24" height="24" fill="white" transform="translate(0.666992 0.5)"/>
</clipPath>
</defs>
</svg>
