<svg width="24" height="25" viewBox="0 0 24 25" fill="none" xmlns="http://www.w3.org/2000/svg">
<path d="M17.9997 13.5001L13.9997 14.5001M21.9997 21.5001H15.4997L14.0217 14.6036C14.007 14.5347 13.9996 14.4645 13.9997 14.3941V8.00005L10.2847 5.01805C10.0927 4.86387 9.96573 4.64314 9.92897 4.39968C9.89221 4.15622 9.94834 3.90785 10.0862 3.70386C10.2241 3.49987 10.4336 3.35519 10.6733 3.29854C10.9129 3.24189 11.165 3.27741 11.3797 3.39805L15.9997 6.00005L17.9732 13.4016C17.9908 13.4672 18.0148 13.5306 18.0452 13.5916L21.9997 21.5001Z" stroke="#344054" stroke-width="2" stroke-linecap="round" stroke-linejoin="round"/>
<path d="M5 13L8 14.5M9.6895 13.26L9.7215 13.287C9.83243 13.3798 9.96216 13.4474 10.1018 13.4852C10.2414 13.523 10.3875 13.5301 10.5301 13.5059C10.6727 13.4818 10.8083 13.427 10.9277 13.3454C11.0471 13.2637 11.1473 13.1571 11.2215 13.033L12 11.7315V9.385L10.16 8L6.98 8.423L4.9075 12.471C4.8825 12.5193 4.86167 12.5693 4.845 12.621L2 21.5H7.98V15L8.5 12.5435L8.75 11.5H9.5L9.348 12.3085C9.31516 12.4832 9.3295 12.6635 9.38952 12.8309C9.44955 12.9982 9.5531 13.146 9.6895 13.26Z" stroke="#344054" stroke-width="2" stroke-linecap="round" stroke-linejoin="round"/>
</svg>
