<svg width="25" height="25" viewBox="0 0 25 25" fill="none" xmlns="http://www.w3.org/2000/svg">
<path d="M15.667 14.75H13.917V10.25H15.667V14.75ZM15.667 18.5V22.25C15.667 22.4489 15.5748 22.6397 15.4107 22.7803C15.2466 22.921 15.0241 23 14.792 23H9.54199C9.30993 23 9.08737 22.921 8.92327 22.7803C8.75918 22.6397 8.66699 22.4489 8.66699 22.25V18.5H10.417V21.5H13.917V18.5H15.667ZM8.66699 14.75V10.25H10.417V14.75H8.66699ZM15.667 6.5H13.917V3.5H10.417V6.5H8.66699V2.75C8.66699 2.55109 8.75918 2.36032 8.92327 2.21967C9.08737 2.07902 9.30993 2 9.54199 2H14.792C15.0241 2 15.2466 2.07902 15.4107 2.21967C15.5748 2.36032 15.667 2.55109 15.667 2.75V6.5Z" fill="#344054"/>
<path d="M5.84162 6.5L4.17212 8.375L5.84012 10.25H12.2534H18.6666V6.5H5.84162ZM5.50412 5H19.4166C19.6155 5 19.8063 5.07902 19.947 5.21967C20.0876 5.36032 20.1666 5.55109 20.1666 5.75V11C20.1666 11.1989 20.0876 11.3897 19.947 11.5303C19.8063 11.671 19.6155 11.75 19.4166 11.75H5.50412C5.39811 11.75 5.2933 11.7276 5.1966 11.6841C5.09991 11.6407 5.01351 11.5773 4.94312 11.498L2.60912 8.873C2.48724 8.73575 2.41992 8.55856 2.41992 8.375C2.41992 8.19144 2.48724 8.01425 2.60912 7.877L4.94312 5.252C5.01351 5.17273 5.09991 5.10929 5.1966 5.06585C5.2933 5.02242 5.39811 4.99997 5.50412 5ZM21.4131 16.625L19.7466 18.5H6.92012V14.75H19.7451L21.4131 16.625ZM20.0826 13.25H6.17162C5.97271 13.25 5.78194 13.329 5.64129 13.4697C5.50064 13.6103 5.42162 13.8011 5.42162 14V19.25C5.42162 19.4489 5.50064 19.6397 5.64129 19.7803C5.78194 19.921 5.97271 20 6.17162 20H20.0841C20.1901 20 20.2949 19.9776 20.3916 19.9341C20.4883 19.8907 20.5747 19.8273 20.6451 19.748L22.9791 17.123C23.101 16.9857 23.1683 16.8086 23.1683 16.625C23.1683 16.4414 23.101 16.2643 22.9791 16.127L20.6451 13.502C20.5747 13.4227 20.4883 13.3593 20.3916 13.3159C20.2949 13.2724 20.1901 13.25 20.0841 13.25H20.0826Z" fill="#344054"/>
</svg>
