<svg width="113" height="123" viewBox="0 0 113 123" fill="none" xmlns="http://www.w3.org/2000/svg">
<g clip-path="url(#clip0_63_2894)">
<path d="M51.9105 14.4222C46.2034 14.5814 41.7026 18.9376 41.8618 24.151C42.0363 30.22 48.2798 34.388 54.5386 33.0227L54.2042 29.0874C54.1313 28.4351 54.1877 27.7749 54.3702 27.1445C54.5526 26.5141 54.8576 25.9258 55.2676 25.4133C55.6775 24.9009 56.1845 24.4742 56.7595 24.1578C57.3345 23.8414 57.9662 23.6415 58.6186 23.5694L62.4957 23.2357C62.1765 18.183 57.5004 14.2623 51.9105 14.4222Z" fill="#B6965A"/>
<path fill-rule="evenodd" clip-rule="evenodd" d="M46.5088 116.342L93.0321 112.421C94.303 112.313 95.4789 111.705 96.3013 110.73C97.1236 109.755 97.5251 108.493 97.4174 107.222L94.7166 75.4951C94.6083 74.2245 94 73.0488 93.0253 72.2265C92.0506 71.4042 90.7893 71.0026 89.5185 71.1098L64.6608 73.2015C64.2215 73.8711 63.9352 74.2201 63.2755 74.739C62.2076 75.5555 60.8823 75.962 59.5402 75.8846C58.1981 75.8072 56.9283 75.2511 55.9613 74.3173L55.6215 73.9806L47.8672 74.6326C50.4387 83.7622 50.7097 90.096 50.8979 99.1414C51.0545 101.8 50.6905 104.464 49.8265 106.983L46.5088 116.342ZM73.6036 95.6936L78.2943 97.8863L77.4516 87.9248L73.1972 90.8866C73.0482 89.9481 72.5487 89.1011 71.7996 88.5164C71.0505 87.9318 70.1075 87.6531 69.1609 87.7365L60.0849 88.521C59.591 88.5612 59.11 88.6991 58.6699 88.9268C58.2297 89.1545 57.8392 89.4674 57.5211 89.8473C57.2021 90.2264 56.9616 90.6652 56.8136 91.138C56.6655 91.6108 56.6128 92.1083 56.6585 92.6017L57.0213 96.811C57.0622 97.3047 57.2004 97.7854 57.4281 98.2254C57.6558 98.6654 57.9683 99.0559 58.3477 99.3745C58.7271 99.693 59.1658 99.9333 59.6385 100.081C60.1113 100.229 60.6087 100.282 61.102 100.237L70.1627 99.4827C71.1086 99.4015 71.9889 98.9657 72.6271 98.2627C73.2652 97.5597 73.614 96.6415 73.6036 95.6921V95.6936Z" fill="#B6965A"/>
<path d="M107.698 75.626C107.737 75.9727 107.707 76.3237 107.61 76.6588C107.513 76.994 107.351 77.3067 107.133 77.5791C106.915 77.8513 106.645 78.0774 106.338 78.2445C106.032 78.4116 105.696 78.5163 105.349 78.5526C104.826 78.6073 104.299 78.5051 103.835 78.2589C103.37 78.0127 102.99 77.6338 102.742 77.1704C102.577 76.8626 102.475 76.5252 102.442 76.1778L102.021 72.1981C101.955 71.5044 102.165 70.8126 102.606 70.273C103.047 69.7334 103.683 69.3897 104.376 69.3167C105.069 69.244 105.763 69.448 106.306 69.8843C106.849 70.3206 107.198 70.9539 107.277 71.6463L107.698 75.626Z" fill="#B6965A"/>
<path d="M78.5698 27.6649C78.7948 28.193 78.9655 28.7432 79.078 29.3057C79.5135 28.3912 79.7706 27.4016 79.8349 26.3906C79.4315 26.8332 79.0095 27.2583 78.5698 27.6649Z" fill="black"/>
<path d="M39.0882 47.6309C39.2129 48.3174 39.4479 48.9794 39.7846 49.5909C40.9035 49.5909 42.138 49.4462 42.4426 48.9962C42.4862 48.9197 42.5299 48.8362 42.5727 48.749C42.1518 49.5786 40.6288 48.7368 39.0882 47.6309Z" fill="black"/>
<path d="M0.652811 79.9245C-2.04879 76.0474 -19.2257 90.2051 -16.7583 93.7769L-16.3374 94.1542C-12.7641 96.144 2.75746 82.9743 0.652811 79.9245Z" fill="black"/>
<path d="M4.54376 84.658C5.0948 85.3407 5.66114 86.0226 6.17008 86.6478C6.25503 86.4045 6.3086 86.1504 6.33003 85.8932C6.34497 85.6747 6.30288 85.4561 6.20787 85.2588C6.11287 85.0615 5.96821 84.8923 5.7881 84.7677C5.60798 84.6432 5.39858 84.5676 5.18044 84.5483C4.9623 84.5291 4.7429 84.5669 4.54376 84.658Z" fill="black"/>
<path d="M30.9712 55.2418C30.81 55.2589 30.6576 55.3235 30.5332 55.4272C30.4088 55.531 30.318 55.6694 30.2722 55.8248C30.2265 55.9802 30.2278 56.1458 30.2762 56.3004C30.3245 56.455 30.4177 56.5919 30.5438 56.6936C30.6699 56.7953 30.8234 56.8573 30.9848 56.8717C31.1461 56.8862 31.3082 56.8524 31.4504 56.7747C31.5926 56.6971 31.7085 56.579 31.7835 56.4354C31.8586 56.2918 31.8894 56.1291 31.8719 55.9681C31.862 55.8606 31.8306 55.7563 31.7796 55.6612C31.7286 55.5661 31.659 55.4823 31.5751 55.4145C31.4911 55.3468 31.3943 55.2966 31.2906 55.267C31.1869 55.2373 31.0783 55.2287 30.9712 55.2418Z" fill="black"/>
<path d="M25.1625 61.9912C25.0525 61.9988 24.9453 62.0286 24.8471 62.0786C24.7489 62.1287 24.6618 62.198 24.5911 62.2825C24.5204 62.367 24.4674 62.4649 24.4354 62.5704C24.4034 62.6758 24.393 62.7867 24.4049 62.8962C24.4167 63.0058 24.4506 63.1118 24.5044 63.208C24.5582 63.3042 24.6309 63.3885 24.718 63.4559C24.8052 63.5233 24.9051 63.5725 25.0117 63.6004C25.1183 63.6283 25.2295 63.6344 25.3385 63.6183C25.5479 63.5874 25.7373 63.4766 25.8668 63.3092C25.9963 63.1417 26.056 62.9306 26.0332 62.7201C26.0104 62.5096 25.907 62.3161 25.7447 62.1802C25.5823 62.0443 25.3737 61.9766 25.1625 61.9912Z" fill="black"/>
<path d="M28.6048 70.9076C28.4954 70.9158 28.3888 70.9459 28.2913 70.9961C28.1938 71.0462 28.1074 71.1155 28.0371 71.1997C27.9669 71.284 27.9143 71.3815 27.8824 71.4864C27.8506 71.5914 27.8402 71.7016 27.8518 71.8107C27.8633 71.9198 27.8967 72.0254 27.9499 72.1213C28.0031 72.2172 28.075 72.3015 28.1614 72.3691C28.2477 72.4366 28.3468 72.4862 28.4527 72.5148C28.5586 72.5434 28.6691 72.5504 28.7778 72.5354C28.9886 72.5064 29.1798 72.3964 29.311 72.2289C29.4421 72.0613 29.5029 71.8492 29.4804 71.6376C29.4579 71.426 29.3539 71.2315 29.1905 71.0952C29.0271 70.959 28.817 70.8917 28.6048 70.9076Z" fill="black"/>
<path d="M21.0542 60.4524C20.947 60.4634 20.843 60.4953 20.7482 60.5465C20.6534 60.5977 20.5697 60.6672 20.5018 60.7508C20.4339 60.8345 20.3832 60.9308 20.3526 61.0341C20.322 61.1374 20.3121 61.2457 20.3235 61.3529C20.3349 61.46 20.3673 61.5638 20.419 61.6584C20.4706 61.753 20.5404 61.8364 20.6244 61.9039C20.7083 61.9715 20.8048 62.0217 20.9083 62.0519C21.0117 62.082 21.1201 62.0914 21.2272 62.0795C21.4422 62.0557 21.639 61.9477 21.7746 61.7791C21.9102 61.6105 21.9735 61.395 21.9506 61.1799C21.9277 60.9648 21.8206 60.7674 21.6526 60.6311C21.4846 60.4948 21.2694 60.4305 21.0542 60.4524Z" fill="black"/>
<path d="M37.8836 58.4342C37.7733 58.4411 37.6655 58.4703 37.5668 58.5199C37.4681 58.5696 37.3804 58.6387 37.3091 58.7232C37.2378 58.8077 37.1843 58.9057 37.1519 59.0113C37.1194 59.117 37.1087 59.2282 37.1204 59.3381C37.1321 59.448 37.1659 59.5544 37.2198 59.6509C37.2738 59.7474 37.3466 59.832 37.4341 59.8996C37.5216 59.9671 37.6218 60.0163 37.7288 60.0441C37.8358 60.0719 37.9473 60.0777 38.0566 60.0613C38.2653 60.0299 38.4538 59.9191 38.5828 59.7521C38.7118 59.5852 38.7714 59.3748 38.7491 59.165C38.7267 58.9551 38.6243 58.762 38.4631 58.6258C38.3018 58.4897 38.0943 58.421 37.8836 58.4342Z" fill="black"/>
<path d="M33.1494 65.0558C33.0404 65.0645 32.9342 65.0949 32.8372 65.1453C32.7402 65.1957 32.6543 65.265 32.5845 65.3492C32.5147 65.4333 32.4625 65.5306 32.431 65.6353C32.3994 65.74 32.3892 65.8499 32.4008 65.9586C32.4125 66.0673 32.4458 66.1726 32.4989 66.2682C32.5519 66.3638 32.6236 66.4478 32.7096 66.5153C32.7956 66.5827 32.8943 66.6322 32.9998 66.6609C33.1053 66.6895 33.2155 66.6968 33.3239 66.6821C33.535 66.6536 33.7268 66.5438 33.8582 66.3761C33.9897 66.2084 34.0505 65.996 34.0278 65.7841C34.005 65.5722 33.9005 65.3775 33.7365 65.2415C33.5724 65.1055 33.3618 65.0389 33.1494 65.0558Z" fill="black"/>
<path d="M41.6445 68.1338C41.5353 68.1422 41.4289 68.1725 41.3315 68.2228C41.2342 68.2731 41.148 68.3424 41.0779 68.4266C41.0078 68.5109 40.9554 68.6083 40.9237 68.7132C40.892 68.818 40.8816 68.9282 40.8932 69.0371C40.9049 69.1461 40.9382 69.2516 40.9914 69.3474C41.0445 69.4432 41.1163 69.5274 41.2026 69.5949C41.2888 69.6625 41.3878 69.7121 41.4935 69.7407C41.5993 69.7693 41.7097 69.7764 41.8183 69.7616C42.0293 69.7328 42.2209 69.6229 42.3522 69.4552C42.4836 69.2875 42.5444 69.0752 42.5218 68.8633C42.4992 68.6515 42.3949 68.4568 42.2311 68.3206C42.0673 68.1844 41.8569 68.1174 41.6445 68.1338Z" fill="black"/>
<path d="M45.1727 54.0489C45.0115 54.0659 44.859 54.1303 44.7345 54.234C44.6099 54.3377 44.519 54.4761 44.4731 54.6315C44.4273 54.7869 44.4285 54.9525 44.4768 55.1072C44.5251 55.2619 44.6182 55.3988 44.7443 55.5006C44.8704 55.6023 45.0239 55.6644 45.1853 55.6789C45.3467 55.6934 45.5088 55.6597 45.651 55.582C45.7932 55.5043 45.9092 55.3862 45.9843 55.2426C46.0593 55.099 46.0901 54.9363 46.0727 54.7752C46.0628 54.6678 46.0315 54.5635 45.9806 54.4684C45.9297 54.3733 45.8602 54.2894 45.7763 54.2217C45.6923 54.154 45.5957 54.1038 45.492 54.0741C45.3883 54.0444 45.2797 54.0358 45.1727 54.0489Z" fill="black"/>
<path d="M52.7814 67.785C52.6721 67.7932 52.5655 67.8233 52.468 67.8735C52.3704 67.9237 52.284 67.9929 52.2138 68.0772C52.1435 68.1614 52.0909 68.2589 52.0591 68.3638C52.0272 68.4688 52.0168 68.5791 52.0284 68.6881C52.04 68.7972 52.0734 68.9028 52.1265 68.9987C52.1797 69.0947 52.2516 69.1789 52.338 69.2465C52.4244 69.3141 52.5234 69.3636 52.6293 69.3922C52.7352 69.4208 52.8458 69.4278 52.9544 69.4129C53.1652 69.3838 53.3564 69.2739 53.4876 69.1063C53.6187 68.9387 53.6795 68.7267 53.657 68.5151C53.6345 68.3035 53.5306 68.1089 53.3671 67.9727C53.2037 67.8364 52.9936 67.7691 52.7814 67.785Z" fill="black"/>
<path d="M52.8105 60.1613C52.9173 60.15 53.0209 60.1178 53.1153 60.0665C53.2096 60.0151 53.2929 59.9456 53.3604 59.862C53.4279 59.7784 53.4782 59.6823 53.5084 59.5792C53.5387 59.4761 53.5483 59.3681 53.5368 59.2613C53.5037 59.054 53.3923 58.8673 53.2256 58.7397C53.0588 58.6122 52.8495 58.5536 52.6407 58.576C52.432 58.5984 52.2398 58.7001 52.1039 58.8601C51.968 59.0201 51.8988 59.2262 51.9105 59.4358C51.9217 59.5426 51.9539 59.6461 52.0053 59.7405C52.0567 59.8348 52.1262 59.9181 52.2098 59.9855C52.2934 60.0529 52.3895 60.1031 52.4926 60.1333C52.5957 60.1635 52.7037 60.173 52.8105 60.1613Z" fill="black"/>
<path d="M61.683 69.5131C61.5223 69.5306 61.3704 69.5951 61.2462 69.6986C61.1221 69.8021 61.0312 69.9399 60.985 70.0947C60.9504 70.2108 60.942 70.3332 60.9605 70.4529C60.979 70.5727 61.0239 70.6868 61.092 70.787C61.16 70.8872 61.2496 70.9711 61.354 71.0324C61.4585 71.0938 61.5753 71.1311 61.696 71.1417C61.8103 71.1529 61.9256 71.1399 62.0346 71.1037C62.1435 71.0674 62.2436 71.0086 62.3284 70.9311C62.4131 70.8537 62.4806 70.7592 62.5265 70.654C62.5724 70.5487 62.5956 70.435 62.5947 70.3202C62.5938 70.2053 62.5688 70.092 62.5212 69.9875C62.4736 69.883 62.4046 69.7896 62.3186 69.7135C62.2327 69.6374 62.1316 69.5803 62.0221 69.5457C61.9126 69.5112 61.7971 69.5001 61.683 69.5131Z" fill="black"/>
<path d="M62.6993 60.8596C62.5385 60.8772 62.3865 60.9418 62.2623 61.0454C62.1382 61.149 62.0473 61.287 62.0013 61.442C61.9677 61.5579 61.9601 61.6797 61.9792 61.7988C61.9983 61.9179 62.0434 62.0313 62.1115 62.1309C62.1796 62.2305 62.2688 62.3138 62.3729 62.3748C62.477 62.4358 62.5932 62.473 62.7134 62.4838C62.8335 62.4946 62.9546 62.4786 63.0678 62.437C63.1811 62.3955 63.2837 62.3294 63.3684 62.2435C63.4531 62.1576 63.5177 62.054 63.5576 61.9402C63.5975 61.8264 63.6118 61.7051 63.5993 61.5851C63.576 61.3696 63.4684 61.1721 63.3 61.0356C63.1309 60.8999 62.9149 60.8366 62.6993 60.8596Z" fill="black"/>
<path d="M69.9592 57.9549C69.951 57.8455 69.9209 57.7389 69.8707 57.6414C69.8205 57.5439 69.7512 57.4575 69.667 57.3872C69.5828 57.317 69.4853 57.2644 69.3803 57.2325C69.2754 57.2007 69.1651 57.1903 69.056 57.2018C68.947 57.2134 68.8414 57.2468 68.7454 57.3C68.6495 57.3532 68.5653 57.4251 68.4977 57.5115C68.4301 57.5978 68.3805 57.6969 68.352 57.8028C68.3234 57.9087 68.3164 58.0192 68.3313 58.1279C68.3604 58.3387 68.4703 58.5299 68.6379 58.661C68.8054 58.7922 69.0175 58.853 69.2291 58.8305C69.4407 58.808 69.6352 58.704 69.7715 58.5406C69.9078 58.3772 69.9751 58.1671 69.9592 57.9549Z" fill="black"/>
<path d="M94.194 12.5198C94.1052 11.394 93.6179 10.3366 92.8196 9.53778C92.0213 8.73892 90.9644 8.25088 89.8386 8.16132C88.7127 8.0721 87.5919 8.38738 86.6777 9.0505C85.7634 9.71362 85.1157 10.6811 84.8509 11.779C83.5391 11.1687 82.0923 10.9065 80.6497 11.0176C79.2072 11.1287 77.8176 11.6093 76.6147 12.4132C75.4118 13.2171 74.4361 14.3172 73.7817 15.6076C73.1273 16.8979 72.8161 18.335 72.8782 19.7805C74.6272 19.3064 76.4246 19.0335 78.2355 18.9669C78.3334 19.5616 78.4689 20.1494 78.6418 20.7272C78.8018 21.09 79.0482 21.119 79.4837 20.4509C80.4572 19.0427 82.4317 21.2208 80.1228 22.9053C81.1191 24.6301 82.3852 26.1842 83.8728 27.5087C85.8695 26.8659 87.5565 25.5048 88.6068 23.6891C89.6571 21.8734 89.9959 19.7325 89.5577 17.6812C89.6625 17.6812 89.7666 17.6758 89.8707 17.6636C90.4924 17.6099 91.0974 17.4343 91.6512 17.1467C92.205 16.8591 92.6967 16.4652 93.0982 15.9876C93.4997 15.5099 93.8031 14.9577 93.9911 14.3627C94.1792 13.7677 94.2481 13.1415 94.194 12.5198Z" fill="black"/>
<path d="M32.6557 89.0288L32.8157 94.9218L34.8897 93.0491C33.9852 91.8042 33.2351 90.4543 32.6557 89.0288Z" fill="black"/>
<path d="M45.9861 62.1221L48.0479 65.0556L48.1642 68.8164L45.9861 62.1221Z" fill="black"/>
<path d="M42.4282 42.2437C42.6808 42.1974 42.9087 42.0627 43.0711 41.8638C43.2335 41.6649 43.3198 41.4146 43.3145 41.1579C43.3093 40.9011 43.2128 40.6546 43.0424 40.4625C42.872 40.2703 42.6388 40.1451 42.3845 40.1092C42.5813 39.9654 42.7238 39.7597 42.7893 39.525C42.8548 39.2903 42.8393 39.0404 42.7455 38.8156C42.6516 38.5908 42.4847 38.4042 42.2718 38.2857C42.0589 38.1673 41.8123 38.1241 41.5718 38.163C41.695 37.9584 41.7473 37.7188 41.7205 37.4815C41.6938 37.2442 41.5895 37.0223 41.4238 36.8503C41.2581 36.6782 41.0404 36.5657 40.8042 36.53C40.568 36.4943 40.3267 36.5375 40.1176 36.653C40.1685 36.4091 40.1341 36.1552 40.0201 35.9337C39.9061 35.7122 39.7195 35.5366 39.4915 35.4363C39.2635 35.3359 39.0079 35.317 38.7676 35.3826C38.5273 35.4482 38.3168 35.5943 38.1714 35.7966C38.1479 35.5348 38.0339 35.2895 37.8489 35.1028C37.6639 34.9161 37.4196 34.7999 37.1581 34.774C36.8966 34.7482 36.6342 34.8144 36.4163 34.9612C36.1983 35.1081 36.0385 35.3264 35.9642 35.5785C35.8615 35.3523 35.6845 35.1681 35.4626 35.0566C35.2406 34.9451 34.9872 34.913 34.7445 34.9656C34.5017 35.0182 34.2843 35.1524 34.1285 35.3458C33.9726 35.5391 33.8877 35.7801 33.8879 36.0285C33.7067 35.8727 33.4793 35.7807 33.2408 35.7668C33.0022 35.7529 32.7657 35.8178 32.5676 35.9515C32.3696 36.0852 32.2209 36.2803 32.1446 36.5067C32.0683 36.7332 32.0685 36.9785 32.1452 37.2048C31.9195 37.1214 31.6724 37.1157 31.4431 37.1883C31.2137 37.261 31.015 37.4081 30.8785 37.6062C30.742 37.8043 30.6753 38.0423 30.689 38.2825C30.7028 38.5228 30.7962 38.7516 30.9544 38.9329C30.6982 38.9188 30.4452 38.9957 30.2402 39.1501C30.0352 39.3045 29.8913 39.5263 29.834 39.7765C29.7766 40.0266 29.8096 40.289 29.9269 40.5172C30.0443 40.7454 30.2385 40.9248 30.4753 41.0237C30.2236 41.0725 29.9974 41.209 29.837 41.409C29.6765 41.6089 29.5923 41.8594 29.5993 42.1156C29.6063 42.3719 29.704 42.6174 29.8751 42.8083C30.0462 42.9993 30.2795 43.1233 30.5335 43.1582C30.3409 43.3043 30.2028 43.5106 30.141 43.7443C30.0793 43.9779 30.0975 44.2255 30.1927 44.4477C30.2879 44.6698 30.4547 44.8537 30.6665 44.9701C30.8783 45.0865 31.123 45.1286 31.3616 45.0899C31.2412 45.2955 31.1918 45.5349 31.221 45.7713C31.2502 46.0078 31.3564 46.228 31.5232 46.3981C31.69 46.5682 31.9081 46.6786 32.1439 46.7125C32.3797 46.7463 32.62 46.7017 32.8279 46.5854C32.7799 46.8284 32.8165 47.0806 32.9317 47.2999C33.0469 47.5192 33.2337 47.6925 33.4611 47.7909C33.6885 47.8893 33.9427 47.9069 34.1814 47.8407C34.4202 47.7745 34.6291 47.6286 34.7734 47.4272C34.7862 47.6084 34.8437 47.7837 34.9408 47.9372C35.0379 48.0908 35.1715 48.2178 35.3298 48.3071C35.488 48.3963 35.6659 48.4449 35.8476 48.4486C36.0292 48.4522 36.2089 48.4108 36.3706 48.328C36.5007 48.168 38.2839 45.9754 38.9115 45.1764C37.3732 43.4345 38.6505 42.3018 39.4778 43.4491C39.9141 44.0736 40.5493 43.8991 40.1743 42.0401C40.6554 41.8309 41.1165 41.5783 41.5519 41.2855C41.858 42.461 42.0876 43.4636 42.2782 44.3055C42.499 44.2481 42.6962 44.123 42.8423 43.9477C42.9883 43.7725 43.0757 43.5559 43.0923 43.3283C43.1088 43.1008 43.0537 42.8738 42.9346 42.6793C42.8154 42.4847 42.6383 42.3324 42.4282 42.2437Z" fill="black"/>
<path d="M42.2826 44.3055C42.0943 43.4637 41.8617 42.4619 41.5571 41.2856C41.1217 41.5784 40.6606 41.8309 40.1795 42.0402C40.5576 43.8991 39.9231 44.0698 39.483 43.4491C38.6641 42.295 37.3776 43.4346 38.9167 45.1765C38.0762 46.2324 37.229 47.283 36.3751 48.3281C36.2134 48.4111 36.0336 48.4527 35.8519 48.4491C35.6702 48.4456 35.4922 48.397 35.3339 48.3077C35.1756 48.2184 35.042 48.0913 34.9449 47.9376C34.8478 47.7839 34.7904 47.6086 34.7778 47.4273C34.6331 47.6279 34.4243 47.773 34.1858 47.8387C33.9474 47.9044 33.6937 47.8866 33.4667 47.7884C33.2397 47.6902 33.0531 47.5174 32.9377 47.2986C32.8224 47.0798 32.7852 46.8282 32.8324 46.5854C32.6245 46.7017 32.3841 46.7464 32.1483 46.7126C31.9125 46.6787 31.6944 46.5682 31.5276 46.3982C31.3609 46.2281 31.2547 46.0078 31.2255 45.7714C31.1962 45.535 31.2456 45.2956 31.366 45.09C31.1274 45.1287 30.8828 45.0865 30.671 44.9702C30.4592 44.8538 30.2924 44.6699 30.1971 44.4477C30.1019 44.2256 30.0837 43.978 30.1455 43.7443C30.2072 43.5107 30.3454 43.3044 30.5379 43.1583C30.2839 43.1233 30.0506 42.9994 29.8795 42.8084C29.7085 42.6175 29.6107 42.372 29.6037 42.1157C29.5968 41.8595 29.681 41.609 29.8414 41.409C30.0018 41.2091 30.2281 41.0726 30.4798 41.0238C30.243 40.9249 30.0487 40.7455 29.9314 40.5173C29.814 40.289 29.7811 40.0267 29.8384 39.7765C29.8957 39.5264 30.0396 39.3045 30.2446 39.1502C30.4496 38.9958 30.7026 38.9189 30.9589 38.933C30.7999 38.7519 30.7059 38.5229 30.6918 38.2823C30.6777 38.0418 30.7443 37.8034 30.881 37.605C31.0177 37.4065 31.2168 37.2594 31.4466 37.1869C31.6764 37.1145 31.9239 37.1208 32.1497 37.2048C32.0751 36.9792 32.0764 36.7353 32.1533 36.5104C32.2302 36.2855 32.3785 36.0919 32.5756 35.9592C32.7727 35.8264 33.0078 35.7616 33.2451 35.7749C33.4824 35.7881 33.7089 35.8785 33.89 36.0324C33.8899 35.784 33.9748 35.5431 34.1306 35.3497C34.2865 35.1563 34.5039 35.0221 34.7466 34.9695C34.9894 34.9169 35.2428 34.949 35.4647 35.0605C35.6867 35.172 35.8637 35.3562 35.9664 35.5824C36.0406 35.3303 36.2005 35.112 36.4184 34.9651C36.6364 34.8183 36.8987 34.7521 37.1602 34.7779C37.4218 34.8038 37.6661 34.9201 37.8511 35.1067C38.036 35.2934 38.1501 35.5387 38.1736 35.8005C38.3194 35.5991 38.5298 35.4537 38.7698 35.3886C39.0098 35.3235 39.2649 35.3427 39.4925 35.4428C39.7201 35.543 39.9065 35.7181 40.0206 35.939C40.1348 36.1599 40.1698 36.4133 40.1198 36.6569C40.3289 36.5415 40.5702 36.4982 40.8064 36.5339C41.0425 36.5696 41.2603 36.6821 41.426 36.8542C41.5916 37.0262 41.6959 37.2481 41.7227 37.4854C41.7494 37.7227 41.6971 37.9623 41.5739 38.1669C41.8144 38.128 42.061 38.1713 42.2739 38.2897C42.4869 38.4081 42.6537 38.5947 42.7476 38.8195C42.8415 39.0443 42.857 39.2942 42.7915 39.5289C42.726 39.7636 42.5834 39.9694 42.3867 40.1131C42.6418 40.148 42.876 40.2727 43.0473 40.465C43.2185 40.6572 43.3155 40.9043 43.3207 41.1617C43.326 41.4191 43.2392 41.6699 43.076 41.869C42.9127 42.0681 42.6838 42.2023 42.4303 42.2476C42.6383 42.3375 42.8133 42.4899 42.9309 42.6836C43.0485 42.8774 43.1029 43.1029 43.0867 43.329C43.0705 43.555 42.9844 43.7705 42.8403 43.9454C42.6962 44.1204 42.5013 44.2462 42.2826 44.3055Z" stroke="white" stroke-width="0.769171" stroke-linecap="round" stroke-linejoin="round"/>
<path d="M42.4572 38.3521L46.3489 38.033C46.8135 37.9923 47.2816 38.044 47.7262 38.1849C48.1708 38.3259 48.5831 38.5534 48.9394 38.8544C49.2957 39.1553 49.589 39.5238 49.8023 39.9386C50.0156 40.3533 50.1448 40.8062 50.1824 41.2711L51.2424 54.0053" stroke="white" stroke-width="0.769171" stroke-linecap="round" stroke-linejoin="round"/>
<path d="M48.3088 68.6129L48.9043 68.5693C49.4241 68.5634 49.9319 68.4126 50.3706 68.1338" stroke="white" stroke-width="0.769171" stroke-linecap="round" stroke-linejoin="round"/>
<path d="M21.3587 70.8753L13.547 71.5434C12.6096 71.6218 11.6794 71.3249 10.9607 70.7179C10.2421 70.1109 9.79378 69.2434 9.7143 68.3061L7.72446 44.8405C7.64563 43.9027 7.94248 42.9721 8.54971 42.2532C9.15694 41.5343 10.0248 41.086 10.9625 41.0069L30.0628 39.3975" stroke="white" stroke-width="0.769171" stroke-linecap="round" stroke-linejoin="round"/>
<path d="M46.5087 116.343L93.0321 112.422C94.3029 112.314 95.4788 111.705 96.3012 110.73C97.1236 109.755 97.5251 108.494 97.4174 107.223L94.7165 75.4956C94.6083 74.225 93.9999 73.0493 93.0252 72.227C92.0505 71.4047 90.7892 71.0031 89.5185 71.1103L64.6607 73.202" stroke="white" stroke-width="0.769171" stroke-linecap="round" stroke-linejoin="round"/>
<path d="M47.8879 74.6248L55.6131 73.9712" stroke="white" stroke-width="0.769171" stroke-linecap="round" stroke-linejoin="round"/>
<path d="M72.9508 22.333L58.6041 23.5675C57.29 23.7141 56.0876 24.3756 55.2602 25.407C54.4328 26.4383 54.0479 27.7556 54.1897 29.0702L57.065 62.1628" stroke="white" stroke-width="0.769171" stroke-linecap="round" stroke-linejoin="round"/>
<path d="M67.4329 67.0154L110.951 63.2546C111.917 63.1673 112.834 62.7908 113.582 62.1742C114.331 61.5577 114.876 60.7296 115.147 59.7983" stroke="white" stroke-width="0.769171" stroke-linecap="round" stroke-linejoin="round"/>
<path d="M113.753 39.0639L112.461 24.0352C112.374 22.7149 111.768 21.4827 110.774 20.6088C109.781 19.7349 108.481 19.2907 107.161 19.3736L89.6348 20.8843" stroke="white" stroke-width="0.769171" stroke-linecap="round" stroke-linejoin="round"/>
<path d="M97.8238 43.4346C96.3284 45.7864 93.1775 52.6552 91.3477 57.1125C94.8605 58.4855 97.8205 60.9821 99.7662 64.2131" stroke="white" stroke-width="0.769171" stroke-linecap="round" stroke-linejoin="round"/>
<path d="M74.4316 50.9561C74.9628 53.6908 75.6561 56.3916 76.508 59.044C75.709 62.0494 75.3898 64.7212 75.0125 66.362" stroke="white" stroke-width="0.769171" stroke-linecap="round" stroke-linejoin="round"/>
<path d="M75.8254 39.7754C74.7288 41.4661 74.0887 43.412 73.9672 45.4235" stroke="white" stroke-width="0.769171" stroke-linecap="round" stroke-linejoin="round"/>
<path d="M91.3332 57.127C87.2387 60.075 79.4989 61.6424 76.5081 59.0441" stroke="white" stroke-width="0.769171" stroke-linecap="round" stroke-linejoin="round"/>
<path d="M89.4749 58.2451C91.6589 59.9532 93.4096 62.152 94.5849 64.6631" stroke="white" stroke-width="0.769171" stroke-linecap="round" stroke-linejoin="round"/>
<path d="M79.0879 29.2889C79.5165 28.3782 79.7698 27.3947 79.8349 26.3906C79.4317 26.8334 79.0096 27.2585 78.5698 27.6649" stroke="white" stroke-width="0.769171" stroke-linecap="round" stroke-linejoin="round"/>
<path d="M95.7475 47.326L100.946 56.1104C104.968 63.4002 113.345 65.6931 118.603 54.804C121.085 49.6633 122.262 46.2079 124.44 42.6354C120.878 41.62 117.635 39.7108 115.019 37.089C112.602 40.7277 110.452 44.537 108.586 48.487C98.0588 26.1112 96.7662 30.0565 89.7527 29.6685C87.6131 29.6095 85.5521 28.8493 83.8865 27.5049" stroke="white" stroke-width="0.769171" stroke-linecap="round" stroke-linejoin="round"/>
<path d="M68.551 47.5C70.6273 40.4429 75.2789 37.1811 77.3208 34.9548C78.2819 34.0334 78.9219 32.828 79.1467 31.5158C79.3716 30.2035 79.1693 28.8538 78.5698 27.6651C74.9108 30.8886 72.8927 28.3187 72.8927 19.7822" stroke="white" stroke-width="0.769171" stroke-linecap="round" stroke-linejoin="round"/>
<path d="M90.6367 29.6978C87.7263 32.0367 85.0995 34.708 82.8097 37.6571C82.4509 38.1041 81.9822 38.4503 81.4496 38.6619C80.9169 38.8735 80.3384 38.9433 79.7707 38.8644C79.203 38.7855 78.6655 38.5606 78.2107 38.2118C77.7559 37.863 77.3995 37.4021 77.1761 36.8742C77.001 36.467 76.8364 36.0554 76.6825 35.6397" stroke="white" stroke-width="0.769171" stroke-linecap="round" stroke-linejoin="round"/>
<path d="M108.584 48.4873L106.856 52.379" stroke="white" stroke-width="0.769171" stroke-linecap="round" stroke-linejoin="round"/>
<path d="M36.3728 48.3281C34.3432 50.9302 32.9067 50.7596 29.0839 52.4662C21.3005 55.937 23.9723 69.8475 23.9723 69.8475" stroke="white" stroke-width="0.769171" stroke-linecap="round" stroke-linejoin="round"/>
<path d="M42.2827 44.3052C42.9171 47.2463 42.8597 48.3721 42.4426 48.9805C42.1365 49.4313 40.9035 49.576 39.7854 49.576" stroke="white" stroke-width="0.769171" stroke-linecap="round" stroke-linejoin="round"/>
<path d="M42.5757 48.7368C42.1693 49.5786 40.628 48.7368 39.0881 47.6187C39.379 48.9549 39.5818 50.556 40.6708 50.6241C50.3246 51.2295 51.344 52.3231 59.7221 66.6959" stroke="white" stroke-width="0.769171" stroke-linecap="round" stroke-linejoin="round"/>
<path d="M58.6912 64.9102C59.054 63.8939 61.3048 59.2614 62.612 55.0796C65.4743 54.7712 68.3512 55.5204 70.6999 57.185C69.7992 61.454 67.1863 67.931 64.9348 72.6913C64.5522 73.496 63.9835 74.1981 63.2758 74.7395C62.568 75.2809 61.7416 75.646 60.8648 75.8046C59.9881 75.9636 59.0862 75.9116 58.2335 75.653C57.3809 75.3944 56.602 74.9367 55.9613 74.3176C52.2019 70.6212 48.8615 66.5216 46.0006 62.0931" stroke="white" stroke-width="0.769171" stroke-linecap="round" stroke-linejoin="round"/>
<path d="M46.0151 62.0933L48.1641 68.8166" stroke="white" stroke-width="0.769171" stroke-linecap="round" stroke-linejoin="round"/>
<path d="M30.1447 74.3053C34.4573 75.6829 41.8335 75.1617 47.5987 73.5936C48.4696 71.88 48.1068 65.1138 48.1068 65.1138" stroke="white" stroke-width="0.769171" stroke-linecap="round" stroke-linejoin="round"/>
<path d="M30.1002 73.971C28.242 76.6428 24.5898 76.7415 22.9122 73.9565C20.7984 70.436 19.8923 65.4185 19.4423 59.8423C19.4423 59.8423 22.7332 58.7893 24.1107 59.2018" stroke="white" stroke-width="0.769171" stroke-linecap="round" stroke-linejoin="round"/>
<path d="M34.8896 93.0488L19.5563 106.626C18.5421 107.518 17.2389 108.012 15.8881 108.017C14.5373 108.023 13.2304 107.538 12.2092 106.654L-2.8761 93.6029" stroke="white" stroke-width="0.769171" stroke-linecap="round" stroke-linejoin="round"/>
<path d="M17.395 95.6791L5.98169 84.9194" stroke="white" stroke-width="0.769171" stroke-linecap="round" stroke-linejoin="round"/>
<path d="M27.762 59.7412C27.762 59.7412 30.2876 69.92 30.1292 74.5663C27.0569 76.3127 24.683 79.0677 23.4096 82.3642C21.5552 87.3748 15.1326 93.4721 15.1326 93.4721" stroke="white" stroke-width="0.769171" stroke-linecap="round" stroke-linejoin="round"/>
<path d="M47.5978 73.5938C50.4433 83.2789 50.7264 89.7421 50.9224 99.1204C51.0788 101.779 50.7148 104.443 49.8509 106.962L43.201 125.664C39.1338 125.237 35.2241 123.859 31.7877 121.642L38.4384 102.591C38.5665 99.3371 37.4747 96.1524 35.3771 93.6613C33.3004 91.1317 31.9994 88.0555 31.6308 84.8035" stroke="white" stroke-width="0.769171" stroke-linecap="round" stroke-linejoin="round"/>
<path d="M33.0337 50.9125C33.0337 50.9125 35.3565 53.4679 40.8744 50.6362" stroke="white" stroke-width="0.769171" stroke-linecap="round" stroke-linejoin="round"/>
<path d="M20.5894 59.5085C20.5441 57.293 20.2961 55.0863 19.8486 52.916C19.4204 51.2456 18.8066 49.6284 18.0187 48.0945C16.8631 45.8414 17.2381 45.2314 19.094 47.2817C20.9267 49.5823 22.4361 52.1227 23.5803 54.8324" stroke="white" stroke-width="0.769171" stroke-linecap="round" stroke-linejoin="round"/>
<path d="M22.936 53.3972C23.8582 54.4426 24.41 51.2543 24.7567 50.5486C25.2358 49.5759 25.8281 48.5167 25.7876 51.5076C25.7761 52.3349 25.8748 53.6566 26.0057 54.963" stroke="white" stroke-width="0.769171" stroke-linecap="round" stroke-linejoin="round"/>
<path d="M18.9778 50.2299C18.5569 49.7653 17.6002 48.837 17.3224 48.5745C16.0535 47.3607 15.801 47.7885 15.9448 48.0388C16.4959 49.0046 17.5291 50.4924 18.0112 51.4062C18.7827 52.8863 20.3485 55.7042 20.4358 57.1561" stroke="white" stroke-width="0.769171" stroke-linecap="round" stroke-linejoin="round"/>
<path d="M17.9614 51.3186C17.7142 51.1449 17.5099 51.0018 17.3951 50.9268C15.9241 49.9678 15.7687 50.404 15.9409 50.6206C16.6381 51.4916 17.904 52.7819 18.5262 53.6115C19.2567 54.6336 19.8887 55.7227 20.4135 56.8641" stroke="white" stroke-width="0.769171" stroke-linecap="round" stroke-linejoin="round"/>
<path d="M70.0181 56.7058C70.797 54.3833 71.7786 52.1337 72.9516 49.9832C73.9444 48.3599 75.1183 46.8546 76.4507 45.4961C78.4068 43.5062 78.2109 42.7225 75.5797 44.2761C72.8959 46.109 70.4729 48.2973 68.3773 50.7814" stroke="white" stroke-width="0.769171" stroke-linecap="round" stroke-linejoin="round"/>
<path d="M69.5979 49.4039C68.133 50.496 68.6734 46.7658 68.5364 45.888C68.3519 44.7109 68.0864 43.3907 67.1419 46.5707C66.881 47.4408 65.8202 50.1378 63.8204 55.0061" stroke="white" stroke-width="0.769171" stroke-linecap="round" stroke-linejoin="round"/>
<path d="M74.7364 47.4271C75.3318 47.0644 76.639 46.4108 77.0163 46.2225C78.7589 45.3508 78.8729 45.9011 78.6571 46.1062C77.764 46.9549 76.1897 48.184 75.3899 48.9953C74.0996 50.3047 71.5274 52.7706 70.9465 54.2814" stroke="white" stroke-width="0.769171" stroke-linecap="round" stroke-linejoin="round"/>
<path d="M75.4625 48.9232C75.7817 48.8214 76.0434 48.7349 76.1888 48.6936C78.0501 48.1235 78.0754 48.6775 77.8151 48.8536C76.7942 49.5424 75.0431 50.4967 74.1117 51.1763C73.01 52.0185 71.9892 52.9617 71.0627 53.9935" stroke="white" stroke-width="0.769171" stroke-linecap="round" stroke-linejoin="round"/>
<path d="M0.652805 79.9242C-1.9317 76.2116 -17.7747 89.0193 -16.9696 93.2592C-16.8448 93.9159 -16.2769 94.5036 -14.9522 94.3238C-9.86046 93.6342 2.56229 82.6717 0.652805 79.9242Z" stroke="white" stroke-width="0.769171" stroke-linecap="round" stroke-linejoin="round"/>
<path d="M0.652771 79.9243C1.45101 80.9407 4.19546 84.2224 6.15546 86.6592" stroke="white" stroke-width="0.769171" stroke-linecap="round" stroke-linejoin="round"/>
<path d="M29.5775 130.34C30.7393 127.721 31.8818 125.094 33.0046 122.458" stroke="white" stroke-width="0.769171" stroke-linecap="round" stroke-linejoin="round"/>
<path d="M4.53 84.6581C4.72921 84.5681 4.94827 84.531 5.166 84.5504C5.38373 84.5699 5.59277 84.6452 5.77289 84.769C5.95299 84.8932 6.09771 85.062 6.19285 85.259C6.28798 85.456 6.33024 85.6743 6.3155 85.8925C6.07519 88.9538 0.388058 94.1978 -2.16889 93.8887C-2.93422 93.7953 -3.41943 93.2542 -3.16382 92.2241" stroke="white" stroke-width="0.769171" stroke-linecap="round" stroke-linejoin="round"/>
<path d="M42.2957 120.258L46.7521 106.163C47.5255 103.96 47.8513 101.625 47.7103 99.2946C47.0927 89.2038 46.3458 81.4051 44.5304 74.3052" stroke="white" stroke-width="0.769171" stroke-linecap="round" stroke-linejoin="round"/>
<path d="M33.5992 116.443C36.8955 118.951 40.8877 120.377 45.0271 120.524" stroke="white" stroke-width="0.769171" stroke-linecap="round" stroke-linejoin="round"/>
<path d="M1.422 97.3202C5.82185 95.9112 8.29079 92.7282 9.77169 88.5786" stroke="white" stroke-width="0.769171" stroke-linecap="round" stroke-linejoin="round"/>
<path d="M32.6557 89.0288L20.2987 99.9776C19.2823 100.883 17.97 101.386 16.6089 101.391C15.2477 101.396 13.9315 100.904 12.908 100.007L6.38818 94.2851" stroke="white" stroke-width="0.769171" stroke-linecap="round" stroke-linejoin="round"/>
<path d="M34.7466 78.1673C34.5583 78.1963 34.282 81.8561 34.7757 83.337C35.72 84.6422 36.927 85.7354 38.3191 86.546C39.1154 85.2195 40.0713 83.9955 41.1654 82.9016C41.02 81.0571 40.8455 80.0844 40.6426 78.1382C38.6879 78.4176 36.704 78.4274 34.7466 78.1673Z" stroke="white" stroke-width="0.769171" stroke-linecap="round" stroke-linejoin="round"/>
<path d="M26.514 77.4272C27.2593 77.4378 27.9913 77.6271 28.6485 77.979C27.3122 78.6319 25.9622 81.9587 25.9622 81.9587L22.985 83.3822" stroke="white" stroke-width="0.769171" stroke-linecap="round" stroke-linejoin="round"/>
<path d="M107.698 75.6265C107.737 75.9732 107.707 76.3242 107.61 76.6593C107.513 76.9945 107.351 77.3072 107.133 77.5796C106.915 77.8518 106.645 78.0779 106.338 78.245C106.032 78.4121 105.695 78.5168 105.348 78.5531C104.826 78.6078 104.299 78.5056 103.834 78.2594C103.37 78.0132 102.99 77.6343 102.742 77.1709C102.577 76.8631 102.475 76.5257 102.442 76.1783L102.021 72.1986C101.954 71.5049 102.165 70.8131 102.606 70.2735C103.047 69.7339 103.683 69.3902 104.376 69.3172C105.069 69.2445 105.763 69.4485 106.306 69.8848C106.849 70.3211 107.198 70.9544 107.277 71.6468L107.698 75.6265Z" stroke="white" stroke-width="0.769171" stroke-linecap="round" stroke-linejoin="round"/>
<path d="M100.293 74.5807L100.496 76.5407C100.623 77.7575 101.228 78.874 102.178 79.6446C103.129 80.4153 104.346 80.7771 105.563 80.6505C106.78 80.5222 107.896 79.9171 108.668 78.9676C109.438 78.017 109.799 76.7995 109.673 75.5826L109.47 73.6226" stroke="white" stroke-width="0.769171" stroke-linecap="round" stroke-linejoin="round"/>
<path d="M105.564 80.6509L105.955 84.3099" stroke="white" stroke-width="0.769171" stroke-linecap="round" stroke-linejoin="round"/>
<path d="M103.995 84.5131L107.902 84.106" stroke="white" stroke-width="0.769171" stroke-linecap="round" stroke-linejoin="round"/>
<path d="M73.6036 95.6941L78.2943 97.8868L77.4516 87.9253L73.1972 90.8871" stroke="white" stroke-width="0.769171" stroke-linecap="round" stroke-linejoin="round"/>
<path d="M69.161 87.737C70.1075 87.6541 71.0502 87.933 71.7992 88.5176C72.5482 89.1021 73.0478 89.9488 73.1973 90.8871L73.5891 95.4025C73.6545 96.145 73.498 96.8902 73.1396 97.5437C72.7811 98.1973 72.2368 98.7297 71.5756 99.0737C71.1362 99.3018 70.6561 99.441 70.1628 99.4832L61.1021 100.238C60.6086 100.283 60.1111 100.23 59.638 100.082C59.1655 99.9339 58.7269 99.6933 58.3476 99.3747C57.9683 99.0561 57.6557 98.6656 57.4278 98.2258C57.2003 97.7858 57.0622 97.3051 57.0214 96.8114L56.6586 92.6022C56.6137 92.1088 56.6667 91.6115 56.8148 91.1388C56.9628 90.6661 57.2029 90.2273 57.5211 89.8478C57.8393 89.4679 58.2298 89.155 58.67 88.9273C59.1101 88.6996 59.5911 88.5617 60.085 88.5214L69.161 87.737Z" stroke="white" stroke-width="0.769171" stroke-linecap="round" stroke-linejoin="round"/>
<path d="M94.1939 12.5198C94.1269 11.6812 93.838 10.8755 93.3569 10.1853C92.8758 9.49513 92.2198 8.94531 91.4562 8.59224C90.6926 8.23917 89.8488 8.09554 89.0114 8.17609C88.1739 8.25663 87.373 8.55845 86.6907 9.05059C85.7764 9.70894 85.1263 10.6713 84.8569 11.7652C86.0491 12.3153 87.0965 13.1359 87.9158 14.1619C88.7352 15.1878 89.3039 16.3907 89.5767 17.675C90.2251 17.66 90.8635 17.5122 91.4525 17.2408C92.0415 16.9694 92.5687 16.5801 93.0014 16.097C93.434 15.6139 93.7631 15.0472 93.9682 14.432C94.1733 13.8167 94.2501 13.1659 94.1939 12.5198Z" stroke="white" stroke-width="0.769171" stroke-linecap="round" stroke-linejoin="round"/>
<path d="M89.7076 18.7206C89.5716 17.0797 88.9582 15.5146 87.943 14.2182C86.9278 12.9219 85.5553 11.9511 83.9949 11.4257C82.4344 10.9003 80.7543 10.8432 79.1618 11.2615C77.5693 11.6799 76.1341 12.5552 75.0333 13.7797C73.5573 15.4209 72.7836 17.5754 72.8781 19.7806C74.6271 19.3065 76.4245 19.0336 78.2354 18.9671C78.3333 19.5617 78.4688 20.1495 78.6418 20.7273C78.8017 21.0901 79.0482 21.1192 79.4836 20.451C80.4571 19.0428 82.4317 21.221 80.1227 22.9054C81.119 24.6302 82.3851 26.1843 83.8728 27.5089C85.6964 26.9206 87.2665 25.7311 88.3264 24.1347C89.3863 22.5384 89.8732 20.6296 89.7076 18.7206Z" stroke="white" stroke-width="0.769171" stroke-linecap="round" stroke-linejoin="round"/>
<path d="M0.884705 66.87L3.91998 66.5654" stroke="white" stroke-width="0.769171" stroke-linecap="round" stroke-linejoin="round"/>
<path d="M0.289246 68.8457L2.6564 70.7766" stroke="white" stroke-width="0.769171" stroke-linecap="round" stroke-linejoin="round"/>
<path d="M1.82919 62.6885L-0.0879517 65.0556" stroke="white" stroke-width="0.769171" stroke-linecap="round" stroke-linejoin="round"/>
<path d="M62.7865 32.9646L61.0262 28.6666C62.1023 27.0667 62.6227 25.1574 62.5071 23.2328C62.188 18.1816 57.4973 14.2593 51.9074 14.4193C46.2003 14.5785 41.6995 18.9347 41.8586 24.1481C42.0171 29.6515 47.1654 33.5914 52.7898 33.26C54.8045 33.133 56.7473 32.4629 58.4119 31.3207L62.7865 32.9646Z" stroke="white" stroke-width="0.769171" stroke-linecap="round" stroke-linejoin="round"/>
<path d="M29.331 30.7721C29.0626 31.0293 28.7239 31.2011 28.3578 31.2658C27.9916 31.3304 27.6146 31.2851 27.2742 31.1355C26.9339 30.9858 26.6456 30.7386 26.4457 30.4251C26.2459 30.1116 26.1435 29.7459 26.1516 29.3742C26.1596 29.0025 26.2777 28.6415 26.4909 28.337C26.704 28.0324 27.0028 27.7979 27.3493 27.6631C27.6957 27.5283 28.0744 27.4992 28.4374 27.5797C28.8004 27.6601 29.1313 27.8464 29.3884 28.1149C29.732 28.4755 29.9188 28.9574 29.9081 29.4553C29.8973 29.9533 29.6899 30.4267 29.331 30.7721Z" stroke="white" stroke-width="0.769171" stroke-linecap="round" stroke-linejoin="round"/>
<path d="M106.986 6L107.64 13.9288" stroke="white" stroke-width="0.769171" stroke-linecap="round" stroke-linejoin="round"/>
<path d="M111.284 9.62988L103.356 10.298" stroke="white" stroke-width="0.769171" stroke-linecap="round" stroke-linejoin="round"/>
<path d="M32.8156 94.9241L32.6556 89.0288" stroke="white" stroke-width="0.769171" stroke-linecap="round" stroke-linejoin="round"/>
</g>
<defs>
<clipPath id="clip0_63_2894">
<rect width="153.834" height="153.834" fill="white"/>
</clipPath>
</defs>
</svg>
