<svg width="339" height="360" viewBox="0 0 339 360" fill="none" xmlns="http://www.w3.org/2000/svg">
<g clip-path="url(#clip0_1318_19398)">
<path d="M239.999 357.919L113.62 284.952C108.749 282.143 108.749 275.107 113.62 272.297L126.086 264.436C130.468 261.91 135.855 261.919 140.236 264.436L266.615 337.403C271.487 340.212 271.487 347.248 266.615 350.058L254.149 357.919C249.768 360.445 244.381 360.436 239.999 357.919Z" fill="#E0E0E0"/>
<path d="M47.8455 291.404C62.9912 291.404 75.2692 284.354 75.2692 275.656C75.2692 266.959 62.9912 259.908 47.8455 259.908C32.6999 259.908 20.4219 266.959 20.4219 275.656C20.4219 284.354 32.6999 291.404 47.8455 291.404Z" fill="#E6E6E6"/>
<path d="M236.143 349.198L124.996 285.03C117.153 280.502 110.795 268.354 110.795 257.898V19.9084C110.795 9.45273 117.153 4.65015 124.996 9.1778L236.143 73.3467C243.987 77.8744 250.345 90.0226 250.345 100.478V338.476C250.345 348.932 243.987 353.735 236.143 349.207V349.198Z" fill="#475467"/>
<path d="M248.944 65.8808L137.797 1.71188C134.447 -0.221183 131.362 -0.444559 128.94 0.74105C128.639 0.887103 128.355 1.05893 128.072 1.24794L115.623 8.49047C118.123 6.99557 121.405 7.09866 125.005 9.17778L236.151 73.3467C243.995 77.8744 250.353 90.0226 250.353 100.478V338.476C250.353 344.001 248.575 347.953 245.739 349.774L258.025 342.617C261.152 340.951 263.145 336.87 263.145 331.019V93.0124C263.145 82.5567 256.788 70.4085 248.944 65.8808Z" fill="#7A8D83"/>
<path d="M250.346 100.47V338.468C250.346 343.992 248.568 347.944 245.732 349.765L258.018 342.609C261.145 340.942 263.139 336.861 263.139 331.01V93.0124C263.139 93.0124 263.139 93.0038 263.139 92.9952L250.337 100.427C250.337 100.427 250.337 100.461 250.337 100.478L250.346 100.47Z" fill="#7A8D83"/>
<path d="M263.145 111.484L250.344 118.872V124.646L263.145 117.257V111.484Z" fill="#7A8D83"/>
<path d="M257.535 149.887C256.393 150.549 255.465 149.844 255.465 148.324V135.909C255.465 134.38 256.393 132.61 257.535 131.948C258.678 131.287 259.606 131.991 259.606 133.512V145.927C259.606 147.456 258.678 149.226 257.535 149.887Z" fill="#7A8D83"/>
<path d="M255.464 148.315V135.901C255.464 134.371 256.392 132.601 257.535 131.94C258.033 131.648 258.489 131.639 258.841 131.82V131.802L257.294 131.003V131.021C256.925 130.814 256.461 130.823 255.946 131.124C254.803 131.785 253.875 133.555 253.875 135.084V147.499C253.875 148.324 254.15 148.891 254.579 149.157L256.203 150.016V149.999C255.757 149.75 255.456 149.174 255.456 148.324L255.464 148.315Z" fill="#475467"/>
<path d="M257.535 179.931C256.393 180.593 255.465 179.888 255.465 178.368V165.953C255.465 164.424 256.393 162.654 257.535 161.992C258.678 161.331 259.606 162.035 259.606 163.556V175.971C259.606 177.5 258.678 179.27 257.535 179.931Z" fill="#7A8D83"/>
<path d="M255.464 178.368V165.953C255.464 164.424 256.392 162.654 257.535 161.993C258.033 161.7 258.489 161.692 258.841 161.872V161.855L257.294 161.056V161.073C256.925 160.867 256.461 160.876 255.946 161.176C254.803 161.838 253.875 163.608 253.875 165.137V177.551C253.875 178.376 254.15 178.943 254.579 179.21L256.203 180.069V180.052C255.757 179.802 255.456 179.227 255.456 178.376L255.464 178.368Z" fill="#475467"/>
<path d="M232.286 80.0308L123.046 16.953C121.036 15.7931 118.527 17.2451 118.527 19.5647V257.898C118.527 265.854 124.163 275.622 131.062 279.6L237.638 341.131C239.846 342.411 242.613 340.813 242.613 338.262V97.9352C242.613 91.3714 237.965 83.3127 232.277 80.0308H232.286Z" fill="#B6965A"/>
<path opacity="0.9" d="M232.286 80.0308L123.046 16.953C121.036 15.7931 118.527 17.2451 118.527 19.5647V257.898C118.527 265.854 124.163 275.622 131.062 279.6L237.638 341.131C239.846 342.411 242.613 340.813 242.613 338.262V97.9352C242.613 91.3714 237.965 83.3127 232.277 80.0308H232.286Z" fill="white"/>
<path d="M155.711 33.4226L157.403 40.5535L193.607 61.4219L199.862 58.0971L155.711 33.4226Z" fill="#475467"/>
<path d="M166.354 40.3129C166.354 41.4985 165.521 41.9711 164.498 41.3869C163.476 40.8026 162.643 39.3593 162.643 38.1737C162.643 36.9881 163.476 36.5156 164.498 37.0998C165.521 37.6926 166.354 39.1273 166.354 40.3129Z" fill="#7A8D83"/>
<path d="M190.744 55.3822C190.555 55.3822 190.357 55.3306 190.177 55.2361L171.688 44.9007C171.13 44.5914 170.932 43.8784 171.242 43.3199C171.551 42.7615 172.264 42.5639 172.822 42.8732L191.311 53.2086C191.87 53.5179 192.067 54.231 191.758 54.7894C191.543 55.1674 191.148 55.3822 190.744 55.3822Z" fill="#7A8D83"/>
<path d="M141.431 66.5595C140.306 65.9066 139.489 66.4736 139.489 67.9083C139.489 69.3431 140.306 70.881 141.431 71.5339C142.101 71.9205 142.943 71.9291 143.562 71.5339L145.357 74.7814C144.309 75.4945 142.72 75.4258 141.276 74.5838C138.398 72.9257 136.311 69.3517 136.311 66.1213C136.311 62.891 138.45 61.86 141.397 63.5525C142.831 64.3773 144.395 66.0526 145.357 67.8224L143.562 69.24C143.003 68.0372 142.153 66.9719 141.431 66.5595Z" fill="#B6965A"/>
<path d="M155.685 77.3245C155.685 80.5377 153.52 81.6546 150.53 79.9277C147.549 78.2008 145.375 74.601 145.375 71.3707C145.375 68.1403 147.54 67.1094 150.53 68.8276C153.511 70.5545 155.685 74.1199 155.685 77.3245ZM148.562 73.235C148.562 74.7213 149.499 76.3537 150.573 76.9723C151.647 77.5908 152.497 76.9894 152.497 75.5031C152.497 74.0168 151.638 72.4618 150.573 71.8432C149.49 71.216 148.562 71.7487 148.562 73.235Z" fill="#B6965A"/>
<path d="M159.147 73.9223L162.859 81.6287V76.0615L165.668 77.6853V88.519L163.074 87.0241L159.379 79.3606V84.8934L156.553 83.2611V72.4274L159.147 73.9309V73.9223Z" fill="#B6965A"/>
<path d="M174.852 82.9862V85.8127L172.171 84.2663V92.2734L169.07 90.4778V82.4707L166.406 80.9328V78.1063L174.852 82.9862Z" fill="#B6965A"/>
<path d="M180.9 95.7874L177.378 93.7512L176.896 95.0056L173.709 93.167L177.67 84.6186L180.857 86.4571L184.672 99.4903L181.364 97.583L180.891 95.7788L180.9 95.7874ZM180.135 92.7804L179.173 89.0517L178.185 91.6463L180.135 92.7718V92.7804Z" fill="#B6965A"/>
<path d="M189.603 94.3783C188.477 93.7254 187.661 94.2924 187.661 95.7272C187.661 97.162 188.477 98.6998 189.603 99.3528C190.273 99.7394 191.115 99.748 191.734 99.3528L193.529 102.6C192.481 103.313 190.892 103.245 189.448 102.403C186.57 100.745 184.482 97.1705 184.482 93.9402C184.482 90.7098 186.622 89.6789 189.569 91.3714C191.003 92.1961 192.567 93.8715 193.529 95.6413L191.734 97.0589C191.175 95.8561 190.333 94.7907 189.603 94.3783Z" fill="#B6965A"/>
<path d="M202 98.6568V101.483L199.32 99.9369V107.944L196.218 106.148V98.1413L193.555 96.6035V93.7769L202 98.6568Z" fill="#B6965A"/>
<path d="M211.168 111.956C211.933 112.394 212.517 112.059 212.517 110.977V104.731L215.627 106.527V112.773C215.627 115.651 213.874 116.501 211.159 114.938C208.427 113.357 206.623 110.444 206.623 107.575V101.329L209.725 103.124V109.37C209.725 110.436 210.395 111.518 211.168 111.965V111.956Z" fill="#B6965A"/>
<path d="M220.636 111.999C220.284 111.802 220.06 111.793 220.06 112.12C220.06 113.477 224.923 115.436 224.923 119.362C224.923 121.776 223.093 121.785 220.971 120.556C219.339 119.611 217.517 117.927 216.271 116.115L217.423 114.087C218.385 115.573 220.043 117.283 220.997 117.833C221.452 118.099 221.744 118.099 221.744 117.713C221.744 116.304 216.881 114.431 216.881 110.625C216.881 108.46 218.462 108.013 220.894 109.422C222.38 110.281 223.918 111.681 224.975 113.065L223.849 115.135C222.895 113.984 221.443 112.48 220.627 112.008L220.636 111.999Z" fill="#B6965A"/>
<path d="M125.805 119.955C128.907 116.149 130.771 111.295 130.771 106.011C130.771 93.82 120.882 83.9313 108.691 83.9313C96.5 83.9313 86.6113 93.82 86.6113 106.011C86.6113 118.202 96.5 128.091 108.691 128.091C112.832 128.091 116.707 126.948 120.023 124.964L130.771 129.629L125.805 119.955Z" fill="#B6965A"/>
<path opacity="0.4" d="M125.805 119.955C128.907 116.149 130.771 111.295 130.771 106.011C130.771 93.82 120.882 83.9313 108.691 83.9313C96.5 83.9313 86.6113 93.82 86.6113 106.011C86.6113 118.202 96.5 128.091 108.691 128.091C112.832 128.091 116.707 126.948 120.023 124.964L130.771 129.629L125.805 119.955Z" fill="black"/>
<path d="M100.512 104.834C100.512 104.49 100.271 104.31 99.8333 104.31C99.0772 104.31 98.0892 104.808 97.1184 105.59L95.8984 103.219C97.316 102.24 98.7765 101.655 100.34 101.655C102.402 101.655 103.957 102.738 103.957 104.353C103.957 105.504 103.115 106.613 101.998 107.721L100.469 109.242H104.103V111.767H96.2936L96.2765 109.697L99.756 106.106C100.168 105.676 100.512 105.186 100.512 104.843V104.834Z" fill="white"/>
<path d="M110.46 101.793L108.089 107.489H109.051V105.573H112.049V107.489H113.183V109.834H112.049V111.767H109.051V109.834H104.807V107.704L107.358 101.801H110.451L110.46 101.793Z" fill="white"/>
<path d="M122.412 106.81V111.767H119.216V107.738C119.216 107.085 118.846 106.673 118.296 106.673C117.669 106.673 117.274 107.171 117.274 107.918V111.767H114.078V101.234H117.274V105.109C117.798 104.31 118.606 103.863 119.628 103.863C121.261 103.863 122.412 105.032 122.412 106.819V106.81Z" fill="white"/>
<path d="M226.625 186.641V293.389C226.625 298.69 220.886 302.006 216.289 299.351L158.796 266.154L148.615 260.278C146.467 259.041 144.56 257.477 142.953 255.673C139.225 251.506 137.068 246.051 137.068 240.286V133.529C137.068 128.228 142.799 124.921 147.404 127.567L215.078 166.649C222.226 170.773 226.625 178.393 226.625 186.641Z" fill="#B6965A"/>
<path opacity="0.5" d="M226.625 186.641V293.389C226.625 298.69 220.886 302.006 216.289 299.351L158.796 266.154L148.615 260.278C146.467 259.041 144.56 257.477 142.953 255.673C139.225 251.506 137.068 246.051 137.068 240.286V133.529C137.068 128.228 142.799 124.921 147.404 127.567L215.078 166.649C222.226 170.773 226.625 178.393 226.625 186.641Z" fill="white"/>
<path d="M193.503 249.796C193.503 249.796 204.268 267.649 196.484 287.779L158.785 266.146L193.494 249.796H193.503Z" fill="#263238"/>
<path d="M210.666 169.587C211.481 162.971 206.778 156.947 200.161 156.132C193.545 155.317 187.52 160.02 186.706 166.637C185.891 173.254 190.594 179.278 197.211 180.093C203.827 180.907 209.852 176.204 210.666 169.587Z" fill="#263238"/>
<path d="M198.744 134.251C198.744 134.251 202.447 128.211 203.59 128.675C204.724 129.139 202.851 134.844 202.851 134.844C202.851 134.844 208.452 136.012 207.404 137.404C206.356 138.804 199.517 138.478 199.517 138.478L198.744 134.242V134.251Z" fill="#263238"/>
<path d="M201.348 149.75C198.744 169.115 182.447 169.115 182.447 169.115L148.236 154.063C148.236 154.063 145.658 151.803 144.868 146.605C144.593 144.827 144.533 142.696 144.868 140.196C144.868 140.179 144.868 140.153 144.868 140.136C145.959 131.991 152.05 123.237 165.315 120.548C167.962 119.998 170.9 119.706 174.139 119.706C175.616 119.706 177.043 119.775 178.409 119.921C188.761 120.926 195.944 125.746 199.389 133.22C200.145 134.861 200.712 136.622 201.09 138.504C201.794 141.897 201.88 145.66 201.339 149.741L201.348 149.75Z" fill="#263238"/>
<path d="M119.24 187.208C119.24 187.208 107.1 186.796 102.418 198.626C102.418 198.626 107.581 202.106 114.343 198.643C121.096 195.181 119.24 187.217 119.24 187.217V187.208Z" fill="#B6965A"/>
<path opacity="0.5" d="M119.24 187.208C119.24 187.208 107.1 186.796 102.418 198.626C102.418 198.626 107.581 202.106 114.343 198.643C121.096 195.181 119.24 187.217 119.24 187.217V187.208Z" fill="black"/>
<path d="M118.896 192.904C118.896 192.904 115.468 177.981 113.655 177.792C111.748 177.594 111.49 182.345 111.636 185.017L107.306 175.782C106.739 174.562 105.262 174.089 104.076 174.742C99.7718 177.105 92.2458 184.287 108.131 202.045L118.888 192.904H118.896Z" fill="#945959"/>
<path d="M162.884 182.586L160.324 182.251C155.032 181.547 149.774 183.754 146.569 188.024L131.233 208.438L119.24 187.208C119.24 187.208 117.788 201.642 102.418 198.626L118.931 226.402C123.441 233.988 134.129 234.779 139.705 227.923L153.829 210.56L162.884 182.586Z" fill="#B6965A"/>
<path d="M195.616 230.225C192.179 238.937 191.801 240.638 193.94 244.994C196.062 249.341 197.394 254.994 197.394 254.994C197.394 254.994 181.466 272.847 158.793 266.154L148.612 260.278C146.464 259.041 144.557 257.477 142.951 255.673L145.992 232.588C146.147 231.368 146.026 230.122 145.631 228.962L142.384 219.426C139.145 209.907 141.645 199.374 148.844 192.346L159.79 181.65L188.536 185.275L192.806 186.504C198.614 188.17 202.317 193.867 201.492 199.855C200.075 210.035 197.781 224.735 195.616 230.217V230.225Z" fill="#B6965A"/>
<path opacity="0.5" d="M195.616 230.225C192.179 238.937 191.801 240.638 193.94 244.994C196.062 249.341 197.394 254.994 197.394 254.994C197.394 254.994 181.466 272.847 158.793 266.154L148.612 260.278C146.464 259.041 144.557 257.477 142.951 255.673L145.992 232.588C146.147 231.368 146.026 230.122 145.631 228.962L142.384 219.426C139.145 209.907 141.645 199.374 148.844 192.346L159.79 181.65L188.536 185.275L192.806 186.504C198.614 188.17 202.317 193.867 201.492 199.855C200.075 210.035 197.781 224.735 195.616 230.217V230.225Z" fill="black"/>
<path d="M178.28 204.228L172.524 199.322C171.278 198.265 169.569 197.939 168.022 198.471L161.063 200.86L160.127 196.959C159.508 194.399 156.888 192.87 154.353 193.6L151.338 194.468L156.45 184.691C158.116 181.504 160.677 178.883 163.821 177.148L165.823 176.048L182.361 176.899C182.361 176.899 188.53 179.45 188.53 185.275L178.28 204.219" fill="#B6965A"/>
<path d="M182.437 184.193L165.855 197.114V155.979H182.437V184.193Z" fill="#945959"/>
<path d="M166.113 180.808L161.07 200.86L182.368 184.193L166.113 180.808Z" fill="#945959"/>
<path d="M165.857 177.826C172.241 175.361 178.908 170.421 182.447 162.053V155.979H165.857V177.826Z" fill="#703838"/>
<path d="M169.431 125.488C163.142 125.488 149.765 128.993 148.219 145.454C146.672 161.915 148.167 174.682 156.655 175.911C165.144 177.139 184.869 170.988 187.507 149.681C190.145 128.374 175.556 125.496 169.422 125.496L169.431 125.488Z" fill="#945959"/>
<path d="M159.533 152.413V162.121L153.846 160.377L159.533 152.413Z" fill="#703838"/>
<path d="M165.857 156.073C166.948 156.073 167.833 155.188 167.833 154.097C167.833 153.006 166.948 152.121 165.857 152.121C164.766 152.121 163.881 153.006 163.881 154.097C163.881 155.188 164.766 156.073 165.857 156.073Z" fill="#263238"/>
<path d="M154.825 152.714C154.825 153.805 153.94 154.69 152.849 154.69C151.758 154.69 150.873 153.805 150.873 152.714C150.873 151.623 151.758 150.738 152.849 150.738C153.94 150.738 154.825 151.623 154.825 152.714Z" fill="#263238"/>
<path d="M150.435 148.599L154.301 146.305C154.301 146.305 152.814 144.767 151.337 145.686C149.859 146.605 150.435 148.599 150.435 148.599Z" fill="#263238"/>
<path d="M156.861 166.056C156.861 166.056 159.997 166.34 162.188 164.63C162.188 164.63 162.549 167.431 160.203 167.972C157.858 168.505 156.861 166.056 156.861 166.056Z" fill="#703838"/>
<path d="M153.484 131.081C153.484 131.081 155.847 153.805 186.75 154.518C186.75 154.518 196.089 131.931 177.635 124.594C159.18 117.257 153.484 131.081 153.484 131.081Z" fill="#263238"/>
<path d="M195.85 151.116L195.833 151.107C195.833 151.107 195.824 151.107 195.816 151.107L192.019 148.916C190.584 148.066 188.582 148.178 186.374 149.458C181.992 151.992 178.436 158.144 178.436 163.204C178.436 165.738 179.329 167.517 180.764 168.342L184.492 170.481C184.561 170.524 184.639 170.567 184.707 170.61L184.836 170.678C186.245 171.349 188.127 171.194 190.197 169.991C194.579 167.457 198.136 161.305 198.136 156.245C198.136 153.728 197.259 151.958 195.833 151.124L195.85 151.116Z" fill="#B6965A"/>
<path d="M195.822 164.057C198.921 158.691 198.921 152.89 195.823 151.101C192.724 149.312 187.701 152.213 184.602 157.579C181.504 162.946 181.504 168.747 184.602 170.535C187.701 172.324 192.724 169.424 195.822 164.057Z" fill="#B6965A"/>
<path opacity="0.5" d="M195.822 164.057C198.921 158.691 198.921 152.89 195.823 151.101C192.724 149.312 187.701 152.213 184.602 157.579C181.504 162.946 181.504 168.747 184.602 170.535C187.701 172.324 192.724 169.424 195.822 164.057Z" fill="black"/>
<path d="M197.371 155.884H197.362C197.362 155.884 197.362 155.884 197.353 155.884L194.75 154.381C193.762 153.805 192.405 153.874 190.893 154.75C187.894 156.485 185.463 160.695 185.463 164.158C185.463 165.893 186.073 167.113 187.061 167.671L189.613 169.141C189.664 169.175 189.707 169.201 189.759 169.226L189.844 169.278C190.815 169.742 192.095 169.63 193.513 168.814C196.511 167.079 198.943 162.869 198.943 159.407C198.943 157.688 198.341 156.477 197.371 155.901V155.884Z" fill="#B6965A"/>
<path d="M198.951 159.389C198.951 162.852 196.52 167.061 193.522 168.797C190.523 170.532 188.092 169.123 188.092 165.661C188.092 162.199 190.523 157.989 193.522 156.253C196.52 154.518 198.951 155.927 198.951 159.389Z" fill="#B6965A"/>
<path opacity="0.3" d="M198.951 159.389C198.951 162.852 196.52 167.061 193.522 168.797C190.523 170.532 188.092 169.123 188.092 165.661C188.092 162.199 190.523 157.989 193.522 156.253C196.52 154.518 198.951 155.927 198.951 159.389Z" fill="black"/>
<path d="M184.055 121.046C181.607 119.13 178.574 118.116 175.464 118.073C175.215 118.073 174.966 118.073 174.717 118.073C171.271 118.073 168.144 118.391 165.326 118.967C165.893 118.941 166.46 118.95 167.019 118.967H165.326V120.556H166.924C170.344 120.677 173.737 121.613 176.796 123.374C183.359 127.163 187.432 134.225 187.432 141.803V148.564C187.432 149.69 188.394 150.583 189.537 150.463C189.605 150.463 189.666 150.437 189.734 150.42L191.427 149.896C191.315 149.93 191.195 149.956 191.075 149.965C192.131 149.853 192.896 148.891 192.896 147.825V141.554C192.896 130.204 187.99 124.105 184.064 121.037L184.055 121.046Z" fill="#B6965A"/>
<path d="M173.238 175.429C172.542 175.429 171.837 175.283 171.184 174.974L165.815 172.491C165.497 172.345 165.351 171.958 165.505 171.641C165.651 171.323 166.038 171.185 166.356 171.331L171.726 173.814C173.126 174.467 174.793 174.149 175.867 173.032L180.987 167.706C181.236 167.448 181.64 167.439 181.889 167.689C182.147 167.938 182.155 168.342 181.906 168.591L176.786 173.917C175.841 174.905 174.552 175.421 173.246 175.421L173.238 175.429Z" fill="#B6965A"/>
<path opacity="0.5" d="M173.238 175.429C172.542 175.429 171.837 175.283 171.184 174.974L165.815 172.491C165.497 172.345 165.351 171.958 165.505 171.641C165.651 171.323 166.038 171.185 166.356 171.331L171.726 173.814C173.126 174.467 174.793 174.149 175.867 173.032L180.987 167.706C181.236 167.448 181.64 167.439 181.889 167.689C182.147 167.938 182.155 168.342 181.906 168.591L176.786 173.917C175.841 174.905 174.552 175.421 173.246 175.421L173.238 175.429Z" fill="black"/>
<path d="M167.224 170.67C167.224 172.053 166.099 173.178 164.716 173.178C163.332 173.178 162.207 172.053 162.207 170.67C162.207 169.287 163.332 168.161 164.716 168.161C166.099 168.161 167.224 169.287 167.224 170.67Z" fill="#B6965A"/>
<path opacity="0.5" d="M167.224 170.67C167.224 172.053 166.099 173.178 164.716 173.178C163.332 173.178 162.207 172.053 162.207 170.67C162.207 169.287 163.332 168.161 164.716 168.161C166.099 168.161 167.224 169.287 167.224 170.67Z" fill="black"/>
<path d="M192.887 141.562V147.834C192.887 148.899 192.123 149.862 191.066 149.973C189.855 150.102 188.832 149.148 188.832 147.954V141.562C188.832 133.504 184.494 125.995 177.517 121.965C173.763 119.8 169.519 118.795 165.326 118.967C168.144 118.383 171.263 118.073 174.717 118.073C174.966 118.073 175.215 118.073 175.464 118.073C178.574 118.116 181.607 119.13 184.055 121.046C187.982 124.113 192.887 130.222 192.887 141.562Z" fill="#B6965A"/>
<path opacity="0.5" d="M192.887 141.562V147.834C192.887 148.899 192.123 149.862 191.066 149.973C189.855 150.102 188.832 149.148 188.832 147.954V141.562C188.832 133.504 184.494 125.995 177.517 121.965C173.763 119.8 169.519 118.795 165.326 118.967C168.144 118.383 171.263 118.073 174.717 118.073C174.966 118.073 175.215 118.073 175.464 118.073C178.574 118.116 181.607 119.13 184.055 121.046C187.982 124.113 192.887 130.222 192.887 141.562Z" fill="black"/>
<path d="M183.229 259.762C183.229 259.762 179.07 271.232 193.933 276.352C193.933 276.352 198.788 269.23 193.933 263.396C189.079 257.563 183.229 259.762 183.229 259.762Z" fill="#B6965A"/>
<path opacity="0.7" d="M183.229 259.762C183.229 259.762 179.07 271.232 193.933 276.352C193.933 276.352 198.788 269.23 193.933 263.396C189.079 257.563 183.229 259.762 183.229 259.762Z" fill="black"/>
<path d="M188.418 260.278C188.418 260.278 173.908 265.604 173.976 267.658C174.045 269.711 180.145 268.319 180.145 268.319L177.92 269.78C175.574 271.309 173.762 273.526 172.722 276.12C172.249 277.306 172.739 278.655 173.873 279.256L179.389 282.177C180.703 282.873 182.327 282.349 182.989 281.017C183.599 279.78 184.698 278.861 186.004 278.423C189.003 277.426 194.57 274.548 196.838 266.704L188.418 260.286V260.278Z" fill="#945959"/>
<path d="M192.799 186.512C192.799 186.512 185.076 190.825 189.174 203.85C193.272 216.883 200.995 237.124 200.995 237.124L183.229 259.762C183.229 259.762 189.174 260.158 192.774 265.458C196.373 270.759 193.933 276.352 193.933 276.352L215.979 248.035C220.12 242.708 221.297 235.655 219.106 229.28L209.621 201.685C207.276 194.855 201.863 189.511 195.007 187.243L192.799 186.512Z" fill="#B6965A"/>
<path d="M62.2767 109.473L28.1088 89.7476C27.0778 89.1548 26.1328 89.0861 25.3853 89.4469C25.2908 89.4899 25.2049 89.5414 25.119 89.6016L17.6875 93.9574C17.6875 93.9574 17.7218 93.9402 17.7304 93.9316C16.794 94.4643 16.2012 95.7014 16.2012 97.4627V135.454C16.2012 138.667 18.1514 142.404 20.5656 143.796L54.7335 163.522C55.9019 164.192 56.9586 164.192 57.7404 163.651C57.7233 163.668 57.7061 163.685 57.6803 163.694L65.0603 159.363C66.0225 158.848 66.6325 157.594 66.6325 155.798V117.807C66.6325 114.594 64.6823 110.857 62.2681 109.465L62.2767 109.473Z" fill="#B6965A"/>
<path d="M65.4212 113.073C64.6308 111.518 63.5139 110.186 62.2767 109.473L28.1088 89.7476C27.0779 89.1548 26.1328 89.0861 25.3854 89.4469C25.2909 89.4899 25.205 89.5414 25.119 89.6016L17.6875 93.9574C18.4607 93.4934 19.4659 93.5278 20.5742 94.1722L54.7421 113.898C56.0222 114.637 57.1649 116.037 57.9638 117.661L65.4212 113.073Z" fill="#B6965A"/>
<path d="M59.1051 160.223C59.1051 161.924 58.5552 163.135 57.6875 163.694L65.0675 159.363C66.0297 158.848 66.6397 157.594 66.6397 155.798V117.807C66.6397 116.243 66.1758 114.551 65.4197 113.065L57.9624 117.652C58.6669 119.096 59.1051 120.719 59.1051 122.223V160.214V160.223Z" fill="#B6965A"/>
<path opacity="0.3" d="M65.4212 113.073C64.6308 111.518 63.5139 110.186 62.2767 109.473L28.1088 89.7476C27.0779 89.1548 26.1328 89.0861 25.3854 89.4469C25.2909 89.4899 25.205 89.5414 25.119 89.6016L17.6875 93.9574C18.4607 93.4934 19.4659 93.5278 20.5742 94.1722L54.7421 113.898C56.0222 114.637 57.1649 116.037 57.9638 117.661L65.4212 113.073Z" fill="black"/>
<path opacity="0.6" d="M59.1051 160.223C59.1051 161.924 58.5552 163.135 57.6875 163.694L65.0675 159.363C66.0297 158.848 66.6397 157.594 66.6397 155.798V117.807C66.6397 116.243 66.1758 114.551 65.4197 113.065L57.9624 117.652C58.6669 119.096 59.1051 120.719 59.1051 122.223V160.214V160.223Z" fill="black"/>
<path d="M49.0898 133.125C49.0898 138.04 47.1395 139.724 44.2099 138.031C42.5947 137.095 41.4521 135.617 40.9538 133.761C40.1204 134.818 38.763 134.887 36.8815 133.804C33.8143 132.034 31.383 127.825 31.383 123.683C31.383 119.542 33.7886 118.151 36.8815 119.929C38.4537 120.84 39.6908 122.18 40.55 123.855V122.232L43.7889 124.096V132.997C43.7889 134.32 44.2872 135.041 44.9316 135.411C46.0227 136.046 46.6928 134.973 46.6928 131.785C46.6928 126.209 43.1274 120.298 37.8437 117.249C32.5342 114.181 28.9946 116.312 28.9946 122.06C28.9946 127.807 32.4655 134.07 37.7492 137.12C39.2441 137.988 40.9366 138.607 42.4401 138.615L43.2047 141.579C41.7528 141.596 39.6307 140.84 37.7578 139.749C30.8761 135.78 26.3398 127.773 26.3398 120.513C26.3398 113.254 30.9362 110.633 37.8523 114.637C44.5364 118.494 49.107 126.218 49.107 133.117L49.0898 133.125ZM40.6015 128.993C40.6015 126.605 39.3386 124.525 37.6289 123.537C35.8934 122.532 34.6821 123.237 34.6821 125.574C34.6821 127.91 35.8934 130.067 37.6289 131.072C39.3386 132.06 40.6015 131.416 40.6015 129.002V128.993Z" fill="#B6965A"/>
<g opacity="0.9">
<path d="M49.0898 133.125C49.0898 138.04 47.1395 139.724 44.2099 138.031C42.5947 137.095 41.4521 135.617 40.9538 133.761C40.1204 134.818 38.763 134.887 36.8815 133.804C33.8143 132.034 31.383 127.825 31.383 123.683C31.383 119.542 33.7886 118.151 36.8815 119.929C38.4537 120.84 39.6908 122.18 40.55 123.855V122.232L43.7889 124.096V132.997C43.7889 134.32 44.2872 135.041 44.9316 135.411C46.0227 136.046 46.6928 134.973 46.6928 131.785C46.6928 126.209 43.1274 120.298 37.8437 117.249C32.5342 114.181 28.9946 116.312 28.9946 122.06C28.9946 127.807 32.4655 134.07 37.7492 137.12C39.2441 137.988 40.9366 138.607 42.4401 138.615L43.2047 141.579C41.7528 141.596 39.6307 140.84 37.7578 139.749C30.8761 135.78 26.3398 127.773 26.3398 120.513C26.3398 113.254 30.9362 110.633 37.8523 114.637C44.5364 118.494 49.107 126.218 49.107 133.117L49.0898 133.125ZM40.6015 128.993C40.6015 126.605 39.3386 124.525 37.6289 123.537C35.8934 122.532 34.6821 123.237 34.6821 125.574C34.6821 127.91 35.8934 130.067 37.6289 131.072C39.3386 132.06 40.6015 131.416 40.6015 129.002V128.993Z" fill="white"/>
</g>
<path d="M62.2767 177.148L28.1088 157.422C27.0778 156.829 26.1328 156.76 25.3853 157.121C25.2908 157.164 25.2049 157.216 25.119 157.276L17.6875 161.632C17.6875 161.632 17.7218 161.614 17.7304 161.606C16.794 162.138 16.2012 163.376 16.2012 165.137V203.128C16.2012 206.341 18.1514 210.078 20.5656 211.47L54.7335 231.196C55.9019 231.866 56.9586 231.866 57.7404 231.325C57.7233 231.342 57.7061 231.359 57.6803 231.368L65.0603 227.038C66.0225 226.522 66.6325 225.268 66.6325 223.472V185.481C66.6325 182.268 64.6823 178.531 62.2681 177.139L62.2767 177.148Z" fill="#B6965A"/>
<path d="M65.4212 180.747C64.6308 179.192 63.5139 177.861 62.2767 177.148L28.1088 157.422C27.0779 156.829 26.1328 156.76 25.3854 157.121C25.2909 157.164 25.205 157.216 25.119 157.276L17.6875 161.632C18.4607 161.168 19.4659 161.202 20.5742 161.846L54.7421 181.572C56.0222 182.311 57.1649 183.711 57.9638 185.335L65.4212 180.747Z" fill="#B6965A"/>
<path d="M59.1051 227.905C59.1051 229.607 58.5552 230.818 57.6875 231.376L65.0675 227.046C66.0297 226.531 66.6397 225.276 66.6397 223.481V185.49C66.6397 183.926 66.1758 182.234 65.4197 180.747L57.9624 185.335C58.6669 186.779 59.1051 188.402 59.1051 189.906V227.897V227.905Z" fill="#B6965A"/>
<path opacity="0.3" d="M65.4212 180.747C64.6308 179.192 63.5139 177.861 62.2767 177.148L28.1088 157.422C27.0779 156.829 26.1328 156.76 25.3854 157.121C25.2909 157.164 25.205 157.216 25.119 157.276L17.6875 161.632C18.4607 161.168 19.4659 161.202 20.5742 161.846L54.7421 181.572C56.0222 182.311 57.1649 183.711 57.9638 185.335L65.4212 180.747Z" fill="black"/>
<path opacity="0.6" d="M59.1051 227.905C59.1051 229.607 58.5552 230.818 57.6875 231.376L65.0675 227.046C66.0297 226.531 66.6397 225.276 66.6397 223.481V185.49C66.6397 183.926 66.1758 182.234 65.4197 180.747L57.9624 185.335C58.6669 186.779 59.1051 188.402 59.1051 189.906V227.897V227.905Z" fill="black"/>
<path d="M33.8387 194.133L25.5996 180.747V198.892L33.8387 194.133Z" fill="#B6965A"/>
<path d="M41.4941 197.99L49.7161 212.235V194.124L41.4941 197.99Z" fill="#B6965A"/>
<path d="M26.8438 180.163L35.3063 193.909C35.3063 193.909 35.375 193.978 35.4008 194.021C35.4179 194.055 35.4265 194.09 35.4351 194.124L37.918 198.154L40.0487 197.148C40.0487 197.148 40.1174 197.08 40.1604 197.054C40.2463 197.002 40.3408 196.977 40.4353 196.968L48.9923 192.947L26.8523 180.163H26.8438Z" fill="#B6965A"/>
<path d="M40.2481 198.583L37.9542 199.666C37.8597 199.709 37.7566 199.734 37.6621 199.734C37.4301 199.734 37.2067 199.614 37.0779 199.408L34.5606 195.318L26.2871 200.095L48.5302 212.939L40.2481 198.6V198.583Z" fill="#B6965A"/>
<g opacity="0.9">
<path d="M33.8387 194.133L25.5996 180.747V198.892L33.8387 194.133Z" fill="white"/>
<path d="M41.4941 197.99L49.7161 212.235V194.124L41.4941 197.99Z" fill="white"/>
<path d="M26.8438 180.163L35.3063 193.909C35.3063 193.909 35.375 193.978 35.4008 194.021C35.4179 194.055 35.4265 194.09 35.4351 194.124L37.918 198.154L40.0487 197.148C40.0487 197.148 40.1174 197.08 40.1604 197.054C40.2463 197.002 40.3408 196.977 40.4353 196.968L48.9923 192.947L26.8523 180.163H26.8438Z" fill="white"/>
<path d="M40.2481 198.583L37.9542 199.666C37.8597 199.709 37.7566 199.734 37.6621 199.734C37.4301 199.734 37.2067 199.614 37.0779 199.408L34.5606 195.318L26.2871 200.095L48.5302 212.939L40.2481 198.6V198.583Z" fill="white"/>
</g>
<path d="M62.2767 41.7906L28.1088 22.0648C27.0778 21.472 26.1328 21.4032 25.3853 21.7641C25.2908 21.807 25.2049 21.8586 25.119 21.9187L17.6875 26.2745C17.6875 26.2745 17.7218 26.2574 17.7304 26.2488C16.794 26.7814 16.2012 28.0186 16.2012 29.7798V67.7709C16.2012 70.984 18.1514 74.7213 20.5656 76.1131L54.7335 95.8389C55.9019 96.509 56.9586 96.509 57.7404 95.9678C57.7233 95.9849 57.7061 96.0021 57.6803 96.0107L65.0603 91.6806C66.0225 91.1652 66.6325 89.9108 66.6325 88.1152V50.1242C66.6325 46.911 64.6823 43.1738 62.2681 41.782L62.2767 41.7906Z" fill="#B6965A"/>
<path d="M65.4212 45.3903C64.6308 43.8353 63.5139 42.5036 62.2767 41.7906L28.1088 22.0648C27.0779 21.472 26.1328 21.4032 25.3854 21.7641C25.2909 21.807 25.205 21.8586 25.119 21.9187L17.6875 26.2745C18.4607 25.8106 19.4659 25.845 20.5742 26.4893L54.7421 46.2151C56.0222 46.954 57.1649 48.3544 57.9638 49.9781L65.4212 45.3903Z" fill="#B6965A"/>
<path d="M59.1051 92.5484C59.1051 94.2494 58.5552 95.4608 57.6875 96.0193L65.0675 91.6892C66.0297 91.1737 66.6397 89.9194 66.6397 88.1238V50.1328C66.6397 48.5691 66.1758 46.8766 65.4197 45.3903L57.9624 49.9781C58.6669 51.4215 59.1051 53.0452 59.1051 54.5487V92.5398V92.5484Z" fill="#B6965A"/>
<path opacity="0.3" d="M65.4212 45.3903C64.6308 43.8353 63.5139 42.5036 62.2767 41.7906L28.1088 22.0648C27.0779 21.472 26.1328 21.4032 25.3854 21.7641C25.2909 21.807 25.205 21.8586 25.119 21.9187L17.6875 26.2745C18.4607 25.8106 19.4659 25.845 20.5742 26.4893L54.7421 46.2151C56.0222 46.954 57.1649 48.3544 57.9638 49.9781L65.4212 45.3903Z" fill="black"/>
<path opacity="0.6" d="M59.1051 92.5484C59.1051 94.2494 58.5552 95.4608 57.6875 96.0193L65.0675 91.6892C66.0297 91.1737 66.6397 89.9194 66.6397 88.1238V50.1328C66.6397 48.5691 66.1758 46.8766 65.4197 45.3903L57.9624 49.9781C58.6669 51.4215 59.1051 53.0452 59.1051 54.5487V92.5398V92.5484Z" fill="black"/>
<path d="M47.9308 76.156C46.6163 73.9996 45.2933 71.8432 43.9788 69.6867C43.3774 68.6987 42.6987 68.1231 41.9083 67.9513C41.2725 67.8138 40.6282 67.6763 39.9838 67.4787C39.812 67.4272 39.5371 67.2038 39.4168 66.9976C37.226 63.2002 35.5163 59.3084 34.3221 55.3134C34.2705 55.1244 34.3049 54.8838 34.3908 54.7893C34.7946 54.3855 35.2242 54.0161 35.6538 53.6552C36.1864 53.2085 36.2809 52.461 35.9802 51.3785C35.3445 49.0846 34.7345 46.7907 34.0987 44.4968C33.6863 42.9933 32.7585 41.9108 31.6416 41.6359C30.0865 41.2579 28.6776 41.3094 27.4318 41.7906C26.9077 41.9967 26.6328 42.4693 26.6328 43.2769C26.8476 44.8491 27.0022 46.4041 27.2943 48.0021C29.4164 59.5231 34.5283 70.1421 42.5956 79.8246C43.2313 80.5892 43.8671 80.95 44.5115 80.9242C45.929 80.8641 47.1404 80.4002 48.137 79.5239C48.9016 78.8537 48.8243 77.6338 47.9222 76.1474L47.9308 76.156Z" fill="#B6965A"/>
<path d="M47.8284 64.4803C47.6909 62.1864 47.0122 59.8152 45.8008 57.401C44.9245 55.6484 43.8506 54.0761 42.5791 52.6672C42.2354 52.2891 41.9519 52.1689 41.7886 52.461C41.6254 52.7531 41.7886 53.1483 42.1151 53.5177C42.2268 53.6466 42.3385 53.7754 42.4502 53.9043C44.9417 56.9285 46.3678 60.1674 46.7287 63.6383C46.7545 63.9047 46.7115 64.1624 46.806 64.4202C46.9091 64.6951 47.1239 65.0645 47.3129 65.202C47.4933 65.3308 47.6909 65.202 47.8456 65.1934C47.8456 64.8583 47.8456 64.6779 47.8284 64.4975V64.4803Z" fill="#B6965A"/>
<path d="M40.0438 57.4269C41.1865 58.7499 41.7878 60.1589 41.9081 61.6882C41.9253 61.9201 42.1143 62.2294 42.1745 62.3755C42.6985 62.8051 42.9563 62.659 42.9563 62.1263C42.9563 60.5112 41.8394 57.9681 40.5421 56.6193C40.2156 56.2842 39.9493 56.1811 39.7946 56.4646C39.6486 56.7224 39.7603 57.1004 40.0438 57.4269Z" fill="#B6965A"/>
<g opacity="0.9">
<path d="M47.9308 76.156C46.6163 73.9996 45.2933 71.8432 43.9788 69.6867C43.3774 68.6987 42.6987 68.1231 41.9083 67.9513C41.2725 67.8138 40.6282 67.6763 39.9838 67.4787C39.812 67.4272 39.5371 67.2038 39.4168 66.9976C37.226 63.2002 35.5163 59.3084 34.3221 55.3134C34.2705 55.1244 34.3049 54.8838 34.3908 54.7893C34.7946 54.3855 35.2242 54.0161 35.6538 53.6552C36.1864 53.2085 36.2809 52.461 35.9802 51.3785C35.3445 49.0846 34.7345 46.7907 34.0987 44.4968C33.6863 42.9933 32.7585 41.9108 31.6416 41.6359C30.0865 41.2579 28.6776 41.3094 27.4318 41.7906C26.9077 41.9967 26.6328 42.4693 26.6328 43.2769C26.8476 44.8491 27.0022 46.4041 27.2943 48.0021C29.4164 59.5231 34.5283 70.1421 42.5956 79.8246C43.2313 80.5892 43.8671 80.95 44.5115 80.9242C45.929 80.8641 47.1404 80.4002 48.137 79.5239C48.9016 78.8537 48.8243 77.6338 47.9222 76.1474L47.9308 76.156Z" fill="white"/>
<path d="M47.8284 64.4803C47.6909 62.1864 47.0122 59.8152 45.8008 57.401C44.9245 55.6484 43.8506 54.0761 42.5791 52.6672C42.2354 52.2891 41.9519 52.1689 41.7886 52.461C41.6254 52.7531 41.7886 53.1483 42.1151 53.5177C42.2268 53.6466 42.3385 53.7754 42.4502 53.9043C44.9417 56.9285 46.3678 60.1674 46.7287 63.6383C46.7545 63.9047 46.7115 64.1624 46.806 64.4202C46.9091 64.6951 47.1239 65.0645 47.3129 65.202C47.4933 65.3308 47.6909 65.202 47.8456 65.1934C47.8456 64.8583 47.8456 64.6779 47.8284 64.4975V64.4803Z" fill="white"/>
<path d="M40.0438 57.4269C41.1865 58.7499 41.7878 60.1589 41.9081 61.6882C41.9253 61.9201 42.1143 62.2294 42.1745 62.3755C42.6985 62.8051 42.9563 62.659 42.9563 62.1263C42.9563 60.5112 41.8394 57.9681 40.5421 56.6193C40.2156 56.2842 39.9493 56.1811 39.7946 56.4646C39.6486 56.7224 39.7603 57.1004 40.0438 57.4269Z" fill="white"/>
</g>
<path d="M237.588 19.0407L245.638 23.6199V20.7676C245.63 20.5614 245.612 20.3638 245.612 20.1662C245.612 19.9686 245.621 19.7795 245.638 19.5905V19.5218C245.93 15.7502 248.791 14.2983 252.279 16.3172C253.766 17.1764 255.132 18.5338 256.24 20.1232C257.03 14.9942 261.214 13.1384 266.266 16.0595C271.885 19.307 276.438 27.1939 276.438 33.6804V39.7888C276.438 40.7683 276.962 41.679 277.813 42.1772L282.547 44.9523C284.634 46.1808 285.923 48.4232 285.923 50.8459C285.923 53.011 283.578 54.3684 281.705 53.2773L237.7 27.8554C235.32 26.4808 233.859 23.9464 233.859 21.1971C233.859 19.2898 235.921 18.087 237.579 19.0321L237.588 19.0407Z" fill="#F6F3ED"/>
<path d="M298.957 17.8465L304.817 21.1799V19.1094C304.808 18.9634 304.8 18.8173 304.8 18.6713C304.8 18.5252 304.808 18.3877 304.817 18.2503V18.1987C305.032 15.4495 307.111 14.4013 309.645 15.8705C310.728 16.4976 311.724 17.4856 312.532 18.6369C313.107 14.9082 316.149 13.5594 319.826 15.6815C323.915 18.0441 327.223 23.7745 327.223 28.4998V32.9415C327.223 33.6546 327.61 34.3161 328.22 34.677L331.665 36.6959C333.185 37.5895 334.122 39.2218 334.122 40.983C334.122 42.5553 332.421 43.5433 331.055 42.7529L299.052 24.2642C297.325 23.2676 296.26 21.4205 296.26 19.4187C296.26 18.0269 297.763 17.1592 298.966 17.8465H298.957Z" fill="#F6F3ED"/>
</g>
<defs>
<clipPath id="clip0_1318_19398">
<rect width="338.5" height="359.978" fill="white" transform="translate(0.25 0.0108032)"/>
</clipPath>
</defs>
</svg>
